<svg width="194" height="194" viewBox="0 0 194 194" fill="none" xmlns="http://www.w3.org/2000/svg">
<rect x="2" y="2" width="190" height="190" rx="12" stroke="#614BFF" stroke-width="4"/>
<path d="M19.0737 11.7451C14.6555 11.7451 11.0737 15.3268 11.0737 19.7451V69.4155C11.0737 73.8338 14.6555 77.4155 19.0737 77.4155H69.1704C73.5887 77.4155 77.1704 73.8337 77.1704 69.4155V38.0133H83.8227C87.4496 38.0133 90.3898 35.0731 90.3898 31.4462C90.3898 27.8194 87.4496 24.8792 83.8227 24.8792H77.1704V19.7451C77.1704 15.3268 73.5887 11.7451 69.1704 11.7451H19.0737ZM63.9511 64.2814H24.2931V24.8792H63.9511V64.2814Z" fill="#F9F9F9"/>
<path d="M174.926 182.488C179.344 182.488 182.926 178.906 182.926 174.488V124.818C182.926 120.399 179.344 116.818 174.926 116.818H156.487V110.293C156.487 106.643 153.528 103.684 149.877 103.684C146.227 103.684 143.268 106.643 143.268 110.293V116.818H110.176C106.55 116.818 103.609 119.758 103.609 123.385C103.609 127.012 106.55 129.952 110.176 129.952H116.829V143.086H110.176C106.55 143.086 103.609 146.026 103.609 149.653C103.609 153.28 106.55 156.22 110.176 156.22H116.829V174.488C116.829 178.906 120.41 182.488 124.829 182.488H174.926ZM130.048 129.952H169.706V169.354H130.048V129.952Z" fill="#F9F9F9"/>
<path d="M50.7318 103.684H70.6035C74.2303 103.684 77.1705 100.744 77.1705 97.1168C77.1705 93.49 74.2303 90.5498 70.6035 90.5498H17.6408C14.0139 90.5498 11.0737 93.49 11.0737 97.1168C11.0737 100.744 14.0139 103.684 17.6408 103.684H37.5124V116.818H30.8601C27.2332 116.818 24.2931 119.758 24.2931 123.385C24.2931 127.012 27.2332 129.952 30.8601 129.952H37.5124V156.22H30.8601C27.2332 156.22 24.2931 159.16 24.2931 162.787C24.2931 166.414 27.2332 169.354 30.8601 169.354H37.5124V174.488C37.5124 178.907 41.0942 182.488 45.5124 182.488H97.0422C100.669 182.488 103.609 179.548 103.609 175.921C103.609 172.294 100.669 169.354 97.0422 169.354H90.3899V162.83C90.3899 159.179 87.4306 156.22 83.7802 156.22C80.1298 156.22 77.1705 159.179 77.1705 162.83V169.354H50.7318V156.22H57.3841C61.011 156.22 63.9512 153.28 63.9512 149.653C63.9512 146.026 61.011 143.086 57.3841 143.086H50.7318V103.684Z" fill="#F9F9F9"/>
<path d="M37.5127 44.5807C37.5127 40.9538 40.4955 38.0137 44.1224 38.0137C47.7492 38.0137 50.7321 40.9538 50.7321 44.5807C50.7321 48.2076 47.7492 51.1477 44.1224 51.1477C40.4955 51.1477 37.5127 48.2076 37.5127 44.5807Z" fill="#F9F9F9"/>
<path d="M143.268 44.5807C143.268 40.9538 146.25 38.0137 149.877 38.0137C153.504 38.0137 156.487 40.9538 156.487 44.5807C156.487 48.2076 153.504 51.1477 149.877 51.1477C146.25 51.1477 143.268 48.2076 143.268 44.5807Z" fill="#F9F9F9"/>
<path d="M156.487 77.4154H174.926C179.344 77.4154 182.926 73.8337 182.926 69.4154V19.7451C182.926 15.3268 179.344 11.7451 174.926 11.7451H124.829C120.411 11.7451 116.829 15.3268 116.829 19.7451V69.4154C116.829 73.8337 120.411 77.4154 124.829 77.4154H143.268V83.9398C143.268 87.5903 146.227 90.5495 149.877 90.5495C153.528 90.5495 156.487 87.5903 156.487 83.9398V77.4154ZM130.048 64.2814V24.8792H169.706V64.2814H130.048Z" fill="#F9F9F9"/>
<path d="M176.358 103.684C179.985 103.684 182.926 100.744 182.926 97.1169C182.926 93.49 179.99 90.5498 176.363 90.5498C172.277 90.5498 167.137 90.5498 163.049 90.5498C159.422 90.5498 156.487 93.49 156.487 97.1169C156.487 100.744 159.427 103.684 163.054 103.684H176.358Z" fill="#F9F9F9"/>
<path d="M143.268 149.653C143.268 146.026 146.25 143.086 149.877 143.086C153.504 143.086 156.487 146.026 156.487 149.653C156.487 153.28 153.504 156.22 149.877 156.22C146.25 156.22 143.268 153.28 143.268 149.653Z" fill="#F9F9F9"/>
<path d="M90.3901 136.519C90.3901 132.892 93.373 129.952 96.9998 129.952C100.627 129.952 103.61 132.892 103.61 136.519C103.61 140.146 100.627 143.086 96.9998 143.086C93.373 143.086 90.3901 140.146 90.3901 136.519Z" fill="#F9F9F9"/>
<path d="M63.9517 136.476C63.9517 140.126 66.9109 143.086 70.5613 143.086C74.2118 143.086 77.171 140.13 77.171 136.48C77.171 132.462 77.171 127.441 77.171 123.423C77.171 119.773 74.2118 116.817 70.5613 116.817C66.9109 116.817 63.9517 119.777 63.9517 123.427V136.476Z" fill="#F9F9F9"/>
<path d="M77.1709 110.251C77.1709 106.624 80.1537 103.684 83.7806 103.684C87.4075 103.684 90.3903 106.624 90.3903 110.251C90.3903 113.878 87.4075 116.818 83.7806 116.818C80.1537 116.818 77.1709 113.878 77.1709 110.251Z" fill="#F9F9F9"/>
<path d="M24.2931 136.558C24.2931 132.908 21.3338 129.952 17.6834 129.952C14.033 129.952 11.0737 132.911 11.0737 136.562V149.611C11.0737 153.261 14.033 156.22 17.6834 156.22C21.3338 156.22 24.2931 153.265 24.2931 149.614C24.2931 145.597 24.2931 140.576 24.2931 136.558Z" fill="#F9F9F9"/>
<path d="M11.0737 175.922C11.0737 172.295 14.0565 169.354 17.6834 169.354C21.3104 169.354 24.2931 172.295 24.2931 175.922C24.2931 179.549 21.3104 182.489 17.6834 182.489C14.0565 182.489 11.0737 179.549 11.0737 175.922Z" fill="#F9F9F9"/>
<path d="M90.3901 18.3122C90.3901 14.6853 93.373 11.7451 96.9998 11.7451C100.627 11.7451 103.61 14.6853 103.61 18.3122C103.61 21.939 100.627 24.8792 96.9998 24.8792C93.373 24.8792 90.3901 21.939 90.3901 18.3122Z" fill="#F9F9F9"/>
<path d="M90.3901 57.6721C90.3901 61.3225 93.3494 64.2818 96.9998 64.2818C100.65 64.2818 103.61 61.3263 103.61 57.6759C103.61 53.6587 103.61 48.6377 103.61 44.6195C103.61 40.969 100.65 38.0137 96.9998 38.0137C93.3494 38.0137 90.3901 40.9729 90.3901 44.6234V57.6721Z" fill="#F9F9F9"/>
<path d="M103.61 90.5501V84.0257C103.61 80.3753 100.65 77.416 96.9998 77.416C93.3494 77.416 90.3901 80.3753 90.3901 84.0257V90.5501C90.3901 97.8038 96.2705 103.684 103.524 103.684H136.701C140.328 103.684 143.268 100.744 143.268 97.1171C143.268 93.4902 140.328 90.5501 136.701 90.5501H103.61Z" fill="#F9F9F9"/>
</svg>
