<svg width="24" height="24" viewBox="0 0 24 24" fill="none" xmlns="http://www.w3.org/2000/svg">
<g clip-path="url(#clip0_1395_14888)">
<path d="M0.399902 23.4671L2.02 17.544C1.02051 15.8106 0.495064 13.844 0.495651 11.8298C0.498295 5.52762 5.62057 0.400391 11.9144 0.400391C14.969 0.401861 17.8362 1.59206 19.9917 3.75247C22.1478 5.91318 23.3344 8.78471 23.3332 11.8389C23.3306 18.141 18.2077 23.2688 11.9147 23.2688H11.9097C9.99888 23.2683 8.1212 22.788 6.45323 21.8778L0.399902 23.4671Z" fill="url(#paint0_linear_1395_14888)"/>
<path fill-rule="evenodd" clip-rule="evenodd" d="M20.34 3.47552C18.1017 1.23573 15.1254 0.00147186 11.9543 0C5.42006 0 0.102437 5.31586 0.0997883 11.8501C0.0989052 13.9389 0.64465 15.9776 1.68198 17.7747L0 23.9156L6.28431 22.2678C8.01603 23.2121 9.96529 23.7096 11.9493 23.7105H11.9543C18.4876 23.7105 23.8061 18.3934 23.8088 11.8595C23.8099 8.69306 22.5781 5.7156 20.34 3.47552ZM11.9543 21.7091H11.9505C10.1822 21.7079 8.44815 21.2331 6.93573 20.3356L6.57572 20.1222L2.84647 21.1001L3.842 17.4653L3.60739 17.0926C2.62099 15.5243 2.10026 13.7119 2.10115 11.851C2.10321 6.42001 6.52303 2.00165 11.9581 2.00165C14.59 2.00254 17.0635 3.02868 18.9242 4.89021C20.7845 6.75204 21.808 9.22673 21.8074 11.8589C21.8051 17.2899 17.3849 21.7091 11.9543 21.7091Z" fill="#EAE6FF"/>
<path fill-rule="evenodd" clip-rule="evenodd" d="M17.3589 14.3315C17.0628 14.1834 15.6066 13.4666 15.3349 13.3677C15.0635 13.2691 14.866 13.2197 14.6685 13.5164C14.4709 13.8125 13.9034 14.4795 13.7306 14.677C13.5578 14.8749 13.3851 14.8996 13.0889 14.7515C12.7928 14.6029 11.8388 14.2906 10.707 13.2815C9.82653 12.4964 9.23192 11.5268 9.05913 11.2304C8.88634 10.934 9.04058 10.7735 9.18924 10.6258C9.32199 10.4933 9.48536 10.2802 9.63343 10.1071C9.7812 9.93431 9.83065 9.81067 9.92955 9.61316C10.0282 9.41535 9.97871 9.24256 9.90483 9.09449C9.83065 8.94614 9.25517 7.4814 8.99172 6.89562C8.76977 6.40256 8.53605 6.39256 8.32499 6.38402C8.1525 6.37666 7.95469 6.37695 7.75747 6.37695C7.55995 6.37695 7.2391 6.45113 6.9677 6.74756C6.696 7.04398 5.93066 7.76045 5.93066 9.21783C5.93066 10.6752 6.99242 12.0834 7.14019 12.2812C7.28855 12.4788 9.18953 15.5648 12.2003 16.7523C14.7023 17.739 15.2116 17.5427 15.7547 17.4932C16.2978 17.4437 17.507 16.777 17.754 16.0853C18.0006 15.3938 18.0006 14.801 17.9267 14.677C17.8526 14.5537 17.655 14.4795 17.3589 14.3315Z" fill="white"/>
</g>
<defs>
<linearGradient id="paint0_linear_1395_14888" x1="11.8665" y1="23.4671" x2="11.8665" y2="0.400365" gradientUnits="userSpaceOnUse">
<stop stop-color="#20B038"/>
<stop offset="1" stop-color="#60D66A"/>
</linearGradient>
<clipPath id="clip0_1395_14888">
<rect width="23.8667" height="24" fill="white"/>
</clipPath>
</defs>
</svg>
