<svg width="23" height="24" viewBox="0 0 23 24" fill="none" xmlns="http://www.w3.org/2000/svg">
<g clip-path="url(#clip0_1395_14895)">
<path d="M18.0139 14.6665C17.2263 14.6671 16.4507 14.8517 15.7541 15.2043C15.0574 15.5569 14.4606 16.0669 14.0151 16.6904L10.36 13.7515C10.8416 12.6352 10.8434 11.3813 10.3652 10.2637L14.0109 7.30987C14.6712 8.22657 15.6518 8.88575 16.7749 9.16782C17.8981 9.44988 19.0894 9.33617 20.1326 8.84729C21.1759 8.35841 22.0022 7.52675 22.4614 6.50317C22.9207 5.4796 22.9826 4.33189 22.6359 3.26825C22.2892 2.20461 21.5569 1.29548 20.5718 0.705766C19.5867 0.116055 18.414 -0.115174 17.2665 0.0540208C16.1191 0.223216 15.0727 0.781628 14.3174 1.62797C13.562 2.4743 13.1477 3.55251 13.1495 4.667C13.1539 4.93079 13.1818 5.19373 13.2328 5.45296L9.16007 8.5928C8.46879 7.97105 7.60337 7.55669 6.67015 7.40062C5.73692 7.24456 4.77653 7.35358 3.90697 7.7143C3.0374 8.07502 2.29653 8.67173 1.77538 9.43112C1.25422 10.1905 0.975482 11.0795 0.9734 11.9889C0.971319 12.8982 1.24599 13.7884 1.76366 14.55C2.28133 15.3116 3.01946 15.9114 3.88737 16.2758C4.75528 16.6402 5.71516 16.7532 6.64909 16.6011C7.58302 16.449 8.45032 16.0383 9.14444 15.4194L13.2359 18.5473C13.1858 18.8063 13.1583 19.0688 13.1536 19.3322C13.1534 20.2553 13.4384 21.1577 13.9725 21.9253C14.5066 22.6929 15.2658 23.2912 16.1541 23.6446C17.0424 23.9979 18.0199 24.0904 18.963 23.9104C19.9061 23.7303 20.7724 23.2859 21.4523 22.6331C22.1323 21.9804 22.5953 21.1488 22.7828 20.2434C22.9703 19.3381 22.874 18.3997 22.5059 17.5469C22.1378 16.6941 21.5146 15.9653 20.715 15.4526C19.9154 14.9398 18.9754 14.6663 18.0139 14.6665ZM18.0139 2.00014C18.5633 1.99995 19.1005 2.15619 19.5575 2.4491C20.0145 2.74202 20.3707 3.15846 20.5812 3.64575C20.7916 4.13304 20.8467 4.66928 20.7397 5.18667C20.6326 5.70406 20.3681 6.17934 19.9796 6.55241C19.5912 6.92547 19.0962 7.17957 18.5572 7.28255C18.0183 7.38553 17.4597 7.33278 16.952 7.13096C16.4444 6.92914 16.0104 6.58732 15.7051 6.14874C15.3999 5.71015 15.2369 5.1945 15.2369 4.667C15.2374 3.96004 15.5302 3.28218 16.0508 2.78219C16.5714 2.2822 17.2774 2.00094 18.0139 2.00014ZM5.86229 14.6665C5.31281 14.6667 4.77561 14.5104 4.31863 14.2175C3.86165 13.9246 3.50542 13.5082 3.295 13.0209C3.08458 12.5336 3.02942 11.9973 3.13649 11.48C3.24357 10.9626 3.50806 10.4873 3.89653 10.1142C4.285 9.74115 4.77999 9.48706 5.3189 9.38408C5.85781 9.2811 6.41643 9.33385 6.92411 9.53567C7.43178 9.73749 7.86571 10.0793 8.17101 10.5179C8.4763 10.9565 8.63926 11.4721 8.63926 11.9996C8.63843 12.7065 8.34563 13.3842 7.82505 13.8841C7.30448 14.3841 6.59863 14.6654 5.86229 14.6665ZM18.0139 21.9991C17.4644 21.9991 16.9273 21.8427 16.4705 21.5497C16.0136 21.2566 15.6576 20.8401 15.4473 20.3528C15.2371 19.8655 15.182 19.3293 15.2892 18.812C15.3964 18.2946 15.661 17.8195 16.0495 17.4465C16.438 17.0735 16.933 16.8195 17.4719 16.7166C18.0108 16.6137 18.5693 16.6665 19.077 16.8684C19.5846 17.0702 20.0184 17.4121 20.3237 17.8506C20.6289 18.2892 20.7919 18.8048 20.7919 19.3322C20.7913 20.0394 20.4985 20.7174 19.9776 21.2174C19.4567 21.7174 18.7505 21.9986 18.0139 21.9991Z" fill="#614BFF"/>
</g>
<defs>
<clipPath id="clip0_1395_14895">
<rect width="23" height="24" fill="white"/>
</clipPath>
</defs>
</svg>
