<svg width="24" height="24" viewBox="0 0 24 24" fill="none" xmlns="http://www.w3.org/2000/svg">
<path fill-rule="evenodd" clip-rule="evenodd" d="M2.73684 15C3.69607 15 4.47368 15.7555 4.47368 16.6875V20.3181C4.48872 20.3284 4.50654 20.34 4.52752 20.3527C4.74977 20.4873 5.16384 20.625 5.7093 20.625H18.2907C18.8362 20.625 19.2502 20.4873 19.4725 20.3527C19.4935 20.34 19.5113 20.3284 19.5263 20.3181V16.6875C19.5263 15.7555 20.3039 15 21.2632 15C22.2224 15 23 15.7555 23 16.6875V20.5112C23 21.8038 22.1384 22.7152 21.3098 23.2169C20.4553 23.7344 19.3831 24 18.2907 24H5.7093C4.61687 24 3.54471 23.7344 2.69021 23.2169C1.86161 22.7152 1 21.8038 1 20.5112V16.6875C1 15.7555 1.77761 15 2.73684 15ZM19.5986 20.2577C19.5992 20.2578 19.5961 20.2622 19.5873 20.2706C19.5936 20.2618 19.598 20.2576 19.5986 20.2577ZM4.40138 20.2577C4.40199 20.2576 4.40639 20.2618 4.41275 20.2706C4.40395 20.2622 4.40077 20.2578 4.40138 20.2577Z" fill="#23D288"/>
<path fill-rule="evenodd" clip-rule="evenodd" d="M14 6.22904L16.725 9.36284C17.3706 10.1054 18.5337 10.2148 19.3229 9.60728C20.112 8.99976 20.2283 7.90533 19.5826 7.16281L14.0442 0.793449L14.0336 0.781388C13.5995 0.291148 13.0267 0.140347 12.8234 0.0920071C12.5345 0.0233427 12.2471 2.62368e-06 12 2.21917e-10C11.753 -2.62236e-06 11.4655 0.0233311 11.1767 0.0919911C10.9733 0.140328 10.4006 0.291122 9.96638 0.781377L4.41737 7.16282C3.77172 7.90534 3.88802 8.99976 4.67714 9.60728C5.46627 10.2148 6.62938 10.1054 7.27503 9.36284L10 6.22903V16.2327C10 17.2087 10.8954 18 12 18C13.1046 18 14 17.2087 14 16.2327V6.22904Z" fill="#614BFF"/>
</svg>
