<svg width="220" height="220" viewBox="0 0 220 220" fill="none" xmlns="http://www.w3.org/2000/svg">
<rect x="5" y="5" width="210" height="211" rx="21" fill="#F9F9FC" stroke="#614BFF" stroke-width="8"/>
<mask id="mask0_1395_14777" style="mask-type:alpha" maskUnits="userSpaceOnUse" x="9" y="9" width="202" height="203">
<rect x="11.5" y="11.5" width="197" height="198" rx="14.5" fill="#F9F9FC" stroke="#614BFF" stroke-width="5"/>
</mask>
<g mask="url(#mask0_1395_14777)">
<path d="M8.09472 0.958008C3.67644 0.958008 0.0947266 4.53973 0.0947266 8.95801V77.3368C0.0947266 81.7551 3.67645 85.3368 8.09473 85.3368H76.6372C81.0554 85.3368 84.6371 81.7551 84.6371 77.3368V34.7095H93.1077C97.7679 34.7095 101.546 30.9318 101.546 26.2716C101.546 21.6115 97.7679 17.8338 93.1077 17.8338H84.6371V8.95801C84.6371 4.53973 81.0554 0.958008 76.6371 0.958008H8.09472ZM67.7287 68.461H17.0032V17.8338H67.7287V68.461Z" fill="black"/>
<path d="M211.905 220.342C216.323 220.342 219.905 216.761 219.905 212.342V143.964C219.905 139.545 216.323 135.964 211.905 135.964H186.088V127.542C186.088 122.873 182.303 119.088 177.634 119.088C172.965 119.088 169.18 122.873 169.18 127.542V135.964H126.892C122.232 135.964 118.454 139.741 118.454 144.402C118.454 149.062 122.232 152.839 126.892 152.839H135.363V169.715H126.892C122.232 169.715 118.454 173.493 118.454 178.153C118.454 182.813 122.232 186.591 126.892 186.591H135.363V212.342C135.363 216.761 138.944 220.342 143.363 220.342H211.905ZM152.271 152.839H202.997V203.467H152.271V152.839Z" fill="black"/>
<path d="M50.8202 119.089H76.1993C80.8594 119.089 84.6371 115.311 84.6371 110.651C84.6371 105.991 80.8594 102.213 76.1993 102.213H8.5326C3.87249 102.213 0.0947266 105.991 0.0947266 110.651C0.0947266 115.311 3.87249 119.089 8.53261 119.089H33.9117V135.964H25.4411C20.781 135.964 17.0032 139.742 17.0032 144.402C17.0032 149.062 20.781 152.84 25.4411 152.84H33.9117V186.592H25.4411C20.781 186.592 17.0032 190.369 17.0032 195.03C17.0032 199.69 20.781 203.467 25.4411 203.467H33.9117V212.343C33.9117 216.761 37.4934 220.343 41.9117 220.343H110.016C114.676 220.343 118.454 216.565 118.454 211.905C118.454 207.245 114.676 203.467 110.016 203.467H101.546V195.046C101.546 190.377 97.7605 186.592 93.0914 186.592C88.4222 186.592 84.6371 190.377 84.6371 195.046V203.467H50.8202V186.592H59.2908C63.9509 186.592 67.7287 182.814 67.7287 178.154C67.7287 173.494 63.9509 169.716 59.2908 169.716H50.8202V119.089Z" fill="black"/>
<path d="M33.9116 43.1478C33.9116 38.4877 37.7058 34.71 42.3659 34.71C47.026 34.71 50.8201 38.4877 50.8201 43.1478C50.8201 47.8079 47.026 51.5857 42.3659 51.5857C37.7058 51.5857 33.9116 47.8079 33.9116 43.1478Z" fill="black"/>
<path d="M169.18 43.1478C169.18 38.4877 172.974 34.71 177.634 34.71C182.294 34.71 186.088 38.4877 186.088 43.1478C186.088 47.8079 182.294 51.5857 177.634 51.5857C172.974 51.5857 169.18 47.8079 169.18 43.1478Z" fill="black"/>
<path d="M186.088 85.3368H211.905C216.323 85.3368 219.905 81.7551 219.905 77.3368V8.958C219.905 4.53972 216.323 0.958008 211.905 0.958008H143.363C138.945 0.958008 135.363 4.53973 135.363 8.95801V77.3368C135.363 81.7551 138.945 85.3368 143.363 85.3368H169.18V93.7583C169.18 98.4275 172.965 102.213 177.634 102.213C182.303 102.213 186.088 98.4275 186.088 93.7583V85.3368ZM152.271 68.461V17.8338H202.997V68.461H152.271Z" fill="black"/>
<path d="M211.467 119.089C216.128 119.089 219.905 115.311 219.905 110.651C219.905 105.991 216.133 102.213 211.473 102.213C206.265 102.213 199.729 102.213 194.521 102.213C189.861 102.213 186.088 105.991 186.088 110.651C186.088 115.311 189.866 119.089 194.526 119.089H211.467Z" fill="black"/>
<path d="M169.18 178.154C169.18 173.494 172.974 169.716 177.634 169.716C182.294 169.716 186.088 173.494 186.088 178.154C186.088 182.814 182.294 186.592 177.634 186.592C172.974 186.592 169.18 182.814 169.18 178.154Z" fill="black"/>
<path d="M101.546 161.278C101.546 156.618 105.34 152.84 110 152.84C114.66 152.84 118.454 156.618 118.454 161.278C118.454 165.938 114.66 169.716 110 169.716C105.34 169.716 101.546 165.938 101.546 161.278Z" fill="black"/>
<path d="M67.729 161.261C67.729 165.93 71.5141 169.715 76.1832 169.715C80.8524 169.715 84.6375 165.935 84.6375 161.266C84.6375 156.085 84.6375 149.595 84.6375 144.413C84.6375 139.744 80.8524 135.964 76.1832 135.964C71.5141 135.964 67.729 139.749 67.729 144.418V161.261Z" fill="black"/>
<path d="M84.6372 127.526C84.6372 122.866 88.4313 119.088 93.0914 119.088C97.7516 119.088 101.546 122.866 101.546 127.526C101.546 132.186 97.7516 135.964 93.0914 135.964C88.4313 135.964 84.6372 132.186 84.6372 127.526Z" fill="black"/>
<path d="M17.0032 161.289C17.0032 156.62 13.2181 152.84 8.54897 152.84C3.87982 152.84 0.0947266 156.625 0.0947266 161.294V178.137C0.0947266 182.806 3.87982 186.591 8.54897 186.591C13.2181 186.591 17.0032 182.811 17.0032 178.142C17.0032 172.961 17.0032 166.471 17.0032 161.289Z" fill="black"/>
<path d="M0.0947266 211.905C0.0947266 207.245 3.88886 203.467 8.54897 203.467C13.2091 203.467 17.0032 207.245 17.0032 211.905C17.0032 216.565 13.2091 220.343 8.54897 220.343C3.88886 220.343 0.0947266 216.565 0.0947266 211.905Z" fill="black"/>
<path d="M101.546 9.39589C101.546 4.73577 105.34 0.958008 110 0.958008C114.66 0.958008 118.454 4.73577 118.454 9.39589C118.454 14.056 114.66 17.8338 110 17.8338C105.34 17.8338 101.546 14.056 101.546 9.39589Z" fill="black"/>
<path d="M101.546 60.0072C101.546 64.6764 105.331 68.4615 110 68.4615C114.669 68.4615 118.454 64.6816 118.454 60.0124C118.454 54.8314 118.454 48.3412 118.454 43.1589C118.454 38.4897 114.669 34.71 110 34.71C105.331 34.71 101.546 38.4951 101.546 43.1642V60.0072Z" fill="black"/>
<path d="M118.454 102.213V93.7912C118.454 89.122 114.669 85.3369 110 85.3369C105.331 85.3369 101.546 89.122 101.546 93.7912V104.088C101.546 112.373 108.262 119.088 116.546 119.088H160.742C165.402 119.088 169.18 115.311 169.18 110.651C169.18 105.99 165.402 102.213 160.742 102.213H118.454Z" fill="black"/>
</g>
</svg>
