<svg version="1.2" xmlns="http://www.w3.org/2000/svg" viewBox="0 0 279 222" width="279" height="222"><defs><clipPath clipPathUnits="userSpaceOnUse" id="cp1"><path d="m-47-202h375v812h-375z"/></clipPath><clipPath clipPathUnits="userSpaceOnUse" id="cp2"><path d="m41.5 27c0-8.01 6.49-14.5 14.5-14.5h168c8.01 0 14.5 6.49 14.5 14.5v169c0 8.01-6.49 14.5-14.5 14.5h-168c-8.01 0-14.5-6.49-14.5-14.5z"/></clipPath><linearGradient id="P" gradientUnits="userSpaceOnUse"/><linearGradient id="g1" x2="1" href="#P" gradientTransform="matrix(4.923,127.135,-271.314,10.506,137.765,105.641)"><stop stop-color="#343edf" stop-opacity=".53"/><stop offset="1" stop-color="#fff" stop-opacity="0"/></linearGradient><clipPath clipPathUnits="userSpaceOnUse" id="cp3"><path d="m101 306h24v24h-24z"/></clipPath></defs><style>.a{fill:#110e33}.b{opacity:.6;fill:#8f92a1}.c{fill:#f9f9fc;stroke:#614bff;stroke-width:8}.d{fill:#f9f9f9}.e{fill:none;stroke:#614bff;stroke-linecap:round;stroke-width:6}.f{fill:#1b183e}.g{opacity:.3;fill:#f9f9f9}.h{fill:url(#g1)}.i{fill:#23d288}.j{fill:#614bff}.k{fill:none;stroke:#614bff}.l{fill:none;stroke:#23d288;stroke-width:3}.m{fill:none;stroke:#23d288;stroke-linecap:round;stroke-width:3}.n{opacity:.3;fill:none;stroke:#fff}.o{opacity:.4;fill:#fff}.p{fill:#fff}</style><g clip-path="url(#cp1)"><path class="a" d="m-47-202h375v812h-375z"/><path fill-rule="evenodd" class="b" d="m38 257.1q0 1-0.8 1.7-0.7 0.7-2.1 0.7h-1.6v3.5h-1.1v-8.4h2.7q1.4 0 2.1 0.7 0.8 0.7 0.8 1.8zm-2.9 1.5q0.9 0 1.3-0.4 0.4-0.4 0.4-1.1 0-1.6-1.7-1.6h-1.6v3.1zm5.3-4.5v8.9h-1.1v-8.9zm7.9 5.4q0 0.3-0.1 0.6h-5.2q0 1 0.6 1.5 0.6 0.6 1.5 0.6 0.7 0 1.2-0.3 0.5-0.4 0.7-0.9h1.1q-0.2 0.9-1 1.5-0.8 0.6-2 0.6-0.9 0-1.7-0.4-0.7-0.4-1.1-1.2-0.4-0.8-0.4-1.8 0-1 0.4-1.8 0.4-0.8 1.1-1.2 0.7-0.4 1.7-0.4 0.9 0 1.7 0.4 0.7 0.4 1.1 1.2 0.4 0.7 0.4 1.6zm-1.2-0.3q0-0.6-0.2-1-0.3-0.5-0.8-0.7-0.5-0.3-1-0.3-0.9 0-1.5 0.6-0.5 0.5-0.6 1.4zm2.1 0.5q0-1 0.5-1.8 0.4-0.7 1.1-1.2 0.7-0.4 1.6-0.4 0.8 0 1.5 0.4 0.6 0.4 0.9 0.9v-1.2h1.1v6.6h-1.1v-1.2q-0.3 0.6-1 0.9-0.6 0.4-1.4 0.4-0.9 0-1.6-0.4-0.7-0.5-1.1-1.2-0.5-0.8-0.5-1.8zm5.6 0q0-0.7-0.3-1.3-0.3-0.5-0.8-0.8-0.5-0.3-1.1-0.3-0.6 0-1.1 0.3-0.5 0.2-0.8 0.8-0.3 0.5-0.3 1.3 0 0.7 0.3 1.3 0.3 0.6 0.8 0.9 0.5 0.2 1.1 0.2 0.6 0 1.1-0.2 0.5-0.3 0.8-0.9 0.3-0.6 0.3-1.3zm5.3 3.4q-0.8 0-1.4-0.2-0.6-0.3-0.9-0.8-0.4-0.4-0.4-1h1.1q0.1 0.5 0.5 0.8 0.4 0.3 1.1 0.3 0.6 0 1-0.3 0.3-0.3 0.3-0.7 0-0.4-0.4-0.6-0.3-0.2-1.1-0.4-0.8-0.2-1.2-0.4-0.5-0.2-0.8-0.6-0.4-0.4-0.4-1 0-0.6 0.3-1 0.3-0.4 0.9-0.6 0.5-0.3 1.2-0.3 1.1 0 1.8 0.6 0.7 0.5 0.7 1.5h-1.1q0-0.5-0.4-0.8-0.4-0.4-1-0.4-0.6 0-0.9 0.3-0.4 0.2-0.4 0.7 0 0.3 0.2 0.5 0.2 0.2 0.6 0.3 0.3 0.1 0.8 0.3 0.8 0.2 1.2 0.4 0.4 0.2 0.8 0.5 0.3 0.4 0.3 1 0 0.6-0.3 1-0.3 0.4-0.9 0.7-0.5 0.2-1.2 0.2zm9.9-3.6q0 0.3 0 0.6h-5.3q0.1 1 0.7 1.5 0.6 0.6 1.5 0.6 0.7 0 1.2-0.3 0.4-0.4 0.6-0.9h1.2q-0.3 0.9-1.1 1.5-0.7 0.6-1.9 0.6-1 0-1.7-0.4-0.7-0.4-1.2-1.2-0.4-0.8-0.4-1.8 0-1 0.4-1.8 0.4-0.8 1.2-1.2 0.7-0.4 1.7-0.4 0.9 0 1.6 0.4 0.8 0.4 1.1 1.2 0.4 0.7 0.4 1.6zm-1.1-0.3q0-0.6-0.3-1-0.2-0.5-0.7-0.7-0.5-0.3-1.1-0.3-0.8 0-1.4 0.6-0.6 0.5-0.6 1.4zm5.3 0.5q0-1 0.4-1.8 0.4-0.7 1.1-1.2 0.8-0.4 1.6-0.4 0.9 0 1.5 0.4 0.7 0.4 1 0.9v-1.2h1.1v6.6h-1.1v-1.2q-0.3 0.6-1 0.9-0.6 0.4-1.5 0.4-0.9 0-1.6-0.4-0.7-0.5-1.1-1.2-0.4-0.8-0.4-1.8zm5.6 0q0-0.7-0.3-1.3-0.3-0.5-0.8-0.8-0.5-0.3-1.1-0.3-0.7 0-1.2 0.3-0.5 0.2-0.8 0.8-0.3 0.5-0.3 1.3 0 0.7 0.3 1.3 0.3 0.6 0.8 0.9 0.5 0.2 1.2 0.2 0.6 0 1.1-0.2 0.5-0.3 0.8-0.9 0.3-0.6 0.3-1.3zm4-5.6v8.9h-1.1v-8.9zm2.5 1.3q-0.4 0-0.6-0.3-0.2-0.2-0.2-0.5 0-0.3 0.2-0.5 0.2-0.2 0.6-0.2 0.3 0 0.5 0.2 0.2 0.2 0.2 0.5 0 0.3-0.2 0.5-0.2 0.3-0.5 0.3zm0.5 1v6.6h-1.1v-6.6zm4.6-0.1q0.8 0 1.5 0.4 0.6 0.4 0.9 0.9v-1.2h1.1v6.7q0 0.9-0.4 1.6-0.4 0.7-1.1 1.1-0.7 0.4-1.6 0.4-1.3 0-2.2-0.6-0.8-0.6-1-1.6h1.1q0.2 0.6 0.7 0.9 0.6 0.4 1.4 0.4 0.9 0 1.4-0.6 0.6-0.5 0.6-1.6v-1.3q-0.3 0.5-0.9 0.9-0.7 0.4-1.5 0.4-0.9 0-1.6-0.4-0.7-0.5-1.1-1.2-0.5-0.8-0.5-1.8 0-1 0.5-1.8 0.4-0.7 1.1-1.2 0.7-0.4 1.6-0.4zm2.4 3.4q0-0.7-0.3-1.3-0.3-0.5-0.8-0.8-0.5-0.3-1.1-0.3-0.6 0-1.1 0.3-0.5 0.2-0.8 0.8-0.3 0.5-0.3 1.3 0 0.7 0.3 1.3 0.3 0.6 0.8 0.9 0.5 0.2 1.1 0.2 0.6 0 1.1-0.2 0.5-0.3 0.8-0.9 0.3-0.6 0.3-1.3zm6.2-3.4q1.2 0 1.9 0.7 0.8 0.8 0.8 2.1v3.9h-1.1v-3.7q0-1-0.5-1.5-0.5-0.5-1.4-0.5-0.8 0-1.3 0.5-0.5 0.5-0.5 1.6v3.6h-1.1v-6.6h1.1v1q0.3-0.5 0.8-0.8 0.6-0.3 1.3-0.3zm14.3 8.3l-1.6-1.7q-0.6 0.2-1.3 0.2-1.1 0-2.1-0.6-1-0.5-1.5-1.5-0.6-1-0.6-2.2 0-1.2 0.6-2.2 0.5-1 1.5-1.5 1-0.6 2.1-0.6 1.2 0 2.2 0.6 0.9 0.5 1.5 1.5 0.5 1 0.5 2.2 0 1.2-0.5 2.2-0.5 0.9-1.4 1.5l2.1 2.1zm-6-5.8q0 1 0.4 1.8 0.4 0.7 1.1 1.1 0.7 0.4 1.5 0.4 0.9 0 1.6-0.4 0.7-0.4 1.1-1.1 0.4-0.8 0.4-1.8 0-1-0.4-1.7-0.4-0.8-1.1-1.2-0.7-0.4-1.6-0.4-0.8 0-1.5 0.4-0.7 0.4-1.1 1.2-0.4 0.7-0.4 1.7zm13.1 4.2l-2-3.4h-1.3v3.4h-1.1v-8.4h2.7q1 0 1.6 0.4 0.7 0.3 1 0.8 0.3 0.6 0.3 1.3 0 0.9-0.5 1.5-0.5 0.7-1.5 0.9l2.1 3.5zm-3.3-4.3h1.6q0.9 0 1.4-0.4 0.4-0.5 0.4-1.2 0-0.7-0.4-1.2-0.5-0.4-1.4-0.4h-1.6zm18.2-2.2l-2.1 6.5h-1.1l-1.6-5.2-1.6 5.2h-1.1l-2.1-6.5h1.2l1.5 5.5 1.6-5.5h1.1l1.6 5.5 1.5-5.5zm1.6-1.1q-0.3 0-0.5-0.2-0.2-0.2-0.2-0.6 0-0.3 0.2-0.5 0.2-0.2 0.5-0.2 0.3 0 0.6 0.2 0.2 0.2 0.2 0.5 0 0.4-0.2 0.6-0.3 0.2-0.6 0.2zm0.6 1.1v6.5h-1.1v-6.5zm3.2 0.9v3.8q0 0.5 0.2 0.7 0.2 0.2 0.7 0.2h0.8v0.9h-1q-0.9 0-1.4-0.4-0.4-0.4-0.4-1.4v-3.8h-0.9v-0.9h0.9v-1.7h1.1v1.7h1.7v0.9zm6.3-1.1q0.7 0 1.3 0.4 0.6 0.3 1 0.9 0.3 0.6 0.3 1.6v3.8h-1.1v-3.7q0-1-0.4-1.5-0.5-0.5-1.4-0.5-0.9 0-1.4 0.5-0.5 0.6-0.5 1.6v3.6h-1.1v-8.8h1.1v3.2q0.3-0.5 0.9-0.8 0.6-0.3 1.3-0.3zm5-0.9q-0.3 0-0.6-0.2-0.2-0.2-0.2-0.6 0-0.3 0.2-0.5 0.3-0.2 0.6-0.2 0.3 0 0.5 0.2 0.2 0.2 0.2 0.5 0 0.4-0.2 0.6-0.2 0.2-0.5 0.2zm0.5 1.1v6.5h-1.1v-6.5zm5.1-0.2q1.2 0 1.9 0.8 0.8 0.7 0.8 2.1v3.8h-1.1v-3.7q0-1-0.5-1.5-0.5-0.5-1.4-0.5-0.8 0-1.3 0.5-0.5 0.6-0.5 1.6v3.6h-1.1v-6.5h1.1v0.9q0.3-0.5 0.8-0.8 0.6-0.3 1.3-0.3zm10.3 1.1h-1.4v5.6h-1.1v-5.6h-0.8v-0.9h0.8v-0.5q0-1.1 0.6-1.6 0.6-0.5 1.8-0.5v0.9q-0.7 0-1 0.3-0.3 0.2-0.3 0.9v0.5h1.4zm2.4 0.1q0.3-0.5 0.8-0.9 0.5-0.3 1.3-0.3v1.2h-0.3q-1.8 0-1.8 2v3.5h-1.1v-6.5h1.1zm3 2.2q0-1.1 0.4-1.8 0.4-0.8 1.1-1.2 0.7-0.4 1.6-0.4 0.8 0 1.5 0.4 0.6 0.3 0.9 0.9v-1.2h1.1v6.6h-1.1v-1.3q-0.3 0.6-0.9 1-0.7 0.4-1.5 0.4-0.9 0-1.6-0.5-0.7-0.4-1.1-1.2-0.4-0.8-0.4-1.7zm5.5 0q0-0.8-0.3-1.3-0.3-0.6-0.8-0.9-0.5-0.3-1.1-0.3-0.6 0-1.1 0.3-0.5 0.3-0.8 0.9-0.3 0.5-0.3 1.3 0 0.7 0.3 1.3 0.3 0.5 0.8 0.8 0.5 0.3 1.1 0.3 0.6 0 1.1-0.3 0.5-0.3 0.8-0.8 0.3-0.6 0.3-1.3zm10.9-3.4q0.8 0 1.4 0.3 0.6 0.3 0.9 0.9 0.4 0.7 0.4 1.6v3.9h-1.1v-3.8q0-0.9-0.5-1.5-0.5-0.5-1.3-0.5-0.9 0-1.4 0.6-0.5 0.5-0.5 1.5v3.7h-1.1v-3.8q0-0.9-0.5-1.5-0.4-0.5-1.3-0.5-0.8 0-1.3 0.6-0.5 0.5-0.5 1.5v3.7h-1.1v-6.6h1.1v0.9q0.3-0.5 0.8-0.8 0.6-0.2 1.2-0.2 0.9 0 1.5 0.3 0.6 0.4 1 1.1 0.2-0.7 0.9-1 0.6-0.4 1.4-0.4zm10.4 3.1q0 0.3 0 0.7h-5.3q0.1 1 0.7 1.5 0.6 0.5 1.5 0.5 0.7 0 1.2-0.3 0.4-0.3 0.6-0.9h1.2q-0.3 1-1 1.6-0.8 0.6-2 0.6-1 0-1.7-0.4-0.7-0.5-1.1-1.2-0.5-0.8-0.5-1.8 0-1.1 0.4-1.8 0.4-0.8 1.2-1.2 0.7-0.4 1.7-0.4 0.9 0 1.6 0.4 0.8 0.4 1.1 1.1 0.4 0.7 0.4 1.6zm-1.1-0.2q0-0.6-0.3-1.1-0.2-0.4-0.7-0.7-0.5-0.2-1.1-0.2-0.8 0-1.4 0.5-0.6 0.6-0.6 1.5zm7.1-1.9v3.9q0 0.4 0.2 0.6 0.2 0.2 0.7 0.2h0.8v1h-1q-0.9 0-1.4-0.5-0.4-0.4-0.4-1.3v-3.9h-0.9v-0.9h0.9v-1.7h1.1v1.7h1.7v0.9zm5.9 5.8q-0.9 0-1.7-0.4-0.7-0.5-1.2-1.2-0.4-0.8-0.4-1.8 0-1 0.4-1.8 0.5-0.8 1.2-1.2 0.8-0.4 1.7-0.4 1 0 1.7 0.4 0.8 0.4 1.2 1.2 0.5 0.7 0.5 1.8 0 1-0.5 1.8-0.4 0.7-1.2 1.2-0.8 0.4-1.7 0.4zm0-1q0.6 0 1.1-0.3 0.5-0.2 0.8-0.8 0.3-0.5 0.3-1.3 0-0.8-0.3-1.4-0.3-0.5-0.8-0.8-0.5-0.3-1.1-0.3-0.6 0-1.1 0.3-0.5 0.3-0.8 0.8-0.3 0.6-0.3 1.4 0 0.8 0.3 1.3 0.3 0.6 0.8 0.8 0.5 0.3 1.1 0.3zm10.3 1q-0.7 0-1.3-0.3-0.6-0.2-1-0.7-0.3-0.5-0.4-1.1h1.2q0 0.5 0.4 0.8 0.4 0.3 1.1 0.3 0.6 0 1-0.2 0.4-0.3 0.4-0.7 0-0.5-0.4-0.7-0.4-0.2-1.2-0.4-0.8-0.2-1.2-0.4-0.5-0.2-0.8-0.6-0.3-0.3-0.3-1 0-0.5 0.3-0.9 0.3-0.4 0.8-0.7 0.6-0.2 1.3-0.2 1.1 0 1.7 0.5 0.7 0.6 0.8 1.5h-1.1q-0.1-0.5-0.5-0.8-0.3-0.3-1-0.3-0.5 0-0.9 0.3-0.3 0.2-0.3 0.6 0 0.3 0.2 0.6 0.2 0.2 0.5 0.3 0.3 0.1 0.9 0.3 0.7 0.2 1.1 0.4 0.5 0.1 0.8 0.5 0.3 0.4 0.3 1 0 0.5-0.3 0.9-0.3 0.5-0.8 0.7-0.6 0.3-1.3 0.3zm3.6-3.4q0-1.1 0.4-1.8 0.4-0.8 1.1-1.2 0.7-0.4 1.7-0.4 1.2 0 1.9 0.6 0.8 0.6 1.1 1.6h-1.2q-0.1-0.6-0.6-0.9-0.5-0.4-1.2-0.4-1 0-1.6 0.7-0.5 0.6-0.5 1.8 0 1.2 0.5 1.8 0.6 0.6 1.6 0.6 0.7 0 1.2-0.3 0.4-0.3 0.6-0.9h1.2q-0.3 1-1.1 1.6-0.8 0.6-1.9 0.6-1 0-1.7-0.4-0.7-0.5-1.1-1.2-0.4-0.8-0.4-1.8zm7.2 0q0-1.1 0.5-1.8 0.4-0.8 1.1-1.2 0.7-0.4 1.6-0.4 0.8 0 1.5 0.4 0.6 0.3 0.9 0.9v-1.2h1.1v6.6h-1.1v-1.3q-0.3 0.6-1 1-0.6 0.4-1.4 0.4-0.9 0-1.6-0.5-0.7-0.4-1.1-1.2-0.5-0.8-0.5-1.7zm5.6 0q0-0.8-0.3-1.3-0.3-0.6-0.8-0.9-0.5-0.3-1.1-0.3-0.6 0-1.1 0.3-0.5 0.3-0.8 0.9-0.3 0.5-0.3 1.3 0 0.7 0.3 1.3 0.3 0.5 0.8 0.8 0.5 0.3 1.1 0.3 0.6 0 1.1-0.3 0.5-0.3 0.8-0.8 0.3-0.6 0.3-1.3zm6.2-3.4q1.2 0 1.9 0.7 0.8 0.7 0.8 2.1v3.9h-1.1v-3.8q0-0.9-0.5-1.5-0.5-0.5-1.4-0.5-0.8 0-1.3 0.6-0.5 0.5-0.5 1.5v3.7h-1.1v-6.6h1.1v0.9q0.3-0.5 0.8-0.8 0.6-0.2 1.3-0.2z"/><path class="c" d="m35 27c0-11.6 9.4-21 21-21h168c11.6 0 21 9.4 21 21v169c0 11.6-9.4 21-21 21h-168c-11.6 0-21-9.4-21-21z"/><g clip-path="url(#cp2)"><path fill-rule="evenodd" d="m106.6 2c4.5 0 8 3.5 8 8v8.8h8.5c4.7 0 8.4 3.8 8.4 8.5 0 4.6-3.7 8.4-8.4 8.4h-8.5v42.6c0 4.5-3.5 8-8 8h-68.5c-4.4 0-8-3.5-8-8v-68.3c0-4.5 3.6-8 8-8zm-8.9 16.8h-50.7v50.7h50.7z"/><path fill-rule="evenodd" d="m173.4 221.3c-4.5 0-8-3.5-8-8v-25.7h-8.5c-4.7 0-8.4-3.8-8.4-8.4 0-4.7 3.7-8.5 8.4-8.5h8.5v-16.9h-8.5c-4.7 0-8.4-3.7-8.4-8.4 0-4.7 3.7-8.4 8.4-8.4h42.3v-8.5c0-4.6 3.8-8.4 8.4-8.4 4.7 0 8.5 3.8 8.5 8.4v8.5h25.8c4.4 0 8 3.5 8 8v68.3c0 4.5-3.6 8-8 8zm8.9-16.8h50.7v-50.7h-50.7z"/><path  d="m80.8 120.1h25.4c4.7 0 8.4-3.8 8.4-8.4 0-4.7-3.7-8.5-8.4-8.5h-67.7c-4.6 0-8.4 3.8-8.4 8.5 0 4.6 3.8 8.4 8.4 8.4h25.4v16.9h-8.5c-4.6 0-8.4 3.7-8.4 8.4 0 4.7 3.8 8.4 8.4 8.4h8.5v33.8h-8.5c-4.6 0-8.4 3.8-8.4 8.4 0 4.7 3.8 8.5 8.4 8.5h8.5v8.8c0 4.5 3.6 8 8 8h68.1c4.7 0 8.5-3.7 8.5-8.4 0-4.7-3.8-8.4-8.5-8.4h-8.5v-8.5c0-4.6-3.7-8.4-8.4-8.4-4.7 0-8.5 3.8-8.5 8.4v8.5h-33.8v-16.9h8.5c4.7 0 8.4-3.8 8.4-8.4 0-4.7-3.7-8.5-8.4-8.5h-8.5z"/><path  d="m63.9 44.1c0-4.6 3.8-8.4 8.5-8.4 4.6 0 8.4 3.8 8.4 8.4 0 4.7-3.8 8.5-8.4 8.5-4.7 0-8.5-3.8-8.5-8.5z"/><path  d="m199.2 44.1c0-4.6 3.8-8.4 8.4-8.4 4.7 0 8.5 3.8 8.5 8.4 0 4.7-3.8 8.5-8.5 8.5-4.6 0-8.4-3.8-8.4-8.5z"/><path fill-rule="evenodd" d="m216.1 94.8c0 4.6-3.8 8.4-8.5 8.4-4.6 0-8.4-3.8-8.4-8.4v-8.5h-25.8c-4.5 0-8-3.5-8-8v-68.3c0-4.5 3.5-8 8-8h68.5c4.4 0 8 3.5 8 8v68.3c0 4.5-3.6 8-8 8h-25.8zm16.9-25.3v-50.6h-50.7v50.6z"/><path  d="m241.5 120.1c4.6 0 8.4-3.8 8.4-8.4 0-4.7-3.8-8.5-8.4-8.5-5.2 0-11.8 0-17 0-4.6 0-8.4 3.8-8.4 8.5 0 4.6 3.8 8.4 8.4 8.4z"/><path  d="m199.2 179.2c0-4.7 3.8-8.5 8.4-8.5 4.7 0 8.5 3.8 8.5 8.5 0 4.6-3.8 8.4-8.5 8.4-4.6 0-8.4-3.8-8.4-8.4z"/><path  d="m131.5 162.3c0-4.7 3.8-8.5 8.5-8.5 4.7 0 8.5 3.8 8.5 8.5 0 4.6-3.8 8.4-8.5 8.4-4.7 0-8.5-3.8-8.5-8.4z"/><path  d="m97.7 162.3c0 4.6 3.8 8.4 8.5 8.4 4.7 0 8.4-3.8 8.4-8.4 0-5.2 0-11.7 0-16.9 0-4.7-3.7-8.4-8.4-8.4-4.7 0-8.5 3.7-8.5 8.4z"/><path  d="m114.6 128.5c0-4.6 3.8-8.4 8.5-8.4 4.7 0 8.4 3.8 8.4 8.4 0 4.7-3.7 8.5-8.4 8.5-4.7 0-8.5-3.8-8.5-8.5z"/><path  d="m47 162.3c0-4.7-3.8-8.5-8.5-8.5-4.6 0-8.4 3.8-8.4 8.5v16.8c0 4.7 3.8 8.5 8.4 8.5 4.7 0 8.5-3.8 8.5-8.5 0-5.1 0-11.6 0-16.8z"/><path  d="m30.1 212.9c0-4.7 3.8-8.4 8.4-8.4 4.7 0 8.5 3.7 8.5 8.4 0 4.7-3.8 8.4-8.5 8.4-4.6 0-8.4-3.7-8.4-8.4z"/><path  d="m131.5 10.4c0-4.7 3.8-8.4 8.5-8.4 4.7 0 8.5 3.7 8.5 8.4 0 4.7-3.8 8.4-8.5 8.4-4.7 0-8.5-3.7-8.5-8.4z"/><path  d="m131.5 61c0 4.7 3.8 8.5 8.5 8.5 4.7 0 8.5-3.8 8.5-8.5 0-5.2 0-11.7 0-16.8 0-4.7-3.8-8.5-8.5-8.5-4.7 0-8.5 3.8-8.5 8.5z"/><path  d="m148.5 103.2v-8.4c0-4.7-3.8-8.5-8.5-8.5-4.7 0-8.5 3.8-8.5 8.5v10.3c0 8.3 6.8 15 15 15h44.2c4.7 0 8.5-3.8 8.5-8.4 0-4.7-3.8-8.5-8.5-8.5z"/></g><path fill-rule="evenodd" class="d" d="m75.5-39.9q-1.5 0-2.7-0.5-1.3-0.5-2-1.4-0.7-1-0.8-2.4h3.7q0.1 0.8 0.5 1.2 0.5 0.4 1.2 0.4 0.8 0 1.2-0.3 0.5-0.4 0.5-1 0-0.5-0.4-0.9-0.3-0.3-0.9-0.5-0.5-0.3-1.4-0.5-1.4-0.5-2.2-0.9-0.9-0.4-1.5-1.2-0.6-0.8-0.6-2.2 0-1.9 1.4-3 1.4-1.1 3.7-1.1 2.3 0 3.7 1.1 1.5 1.1 1.6 3.1h-3.7q-0.1-0.7-0.5-1.1-0.5-0.4-1.2-0.4-0.6 0-1 0.3-0.4 0.4-0.4 1 0 0.7 0.6 1 0.7 0.4 2 0.9 1.4 0.4 2.2 0.8 0.9 0.5 1.5 1.3 0.6 0.8 0.6 2 0 1.2-0.6 2.2-0.6 1-1.7 1.6-1.2 0.5-2.8 0.5zm6.6-5.7q0-1.7 0.7-3 0.7-1.3 1.9-2 1.3-0.7 3-0.7 2.1 0 3.5 1.1 1.4 1.1 1.8 3.1h-3.6q-0.5-1.3-1.8-1.3-0.9 0-1.5 0.7-0.6 0.8-0.6 2.1 0 1.4 0.6 2.1 0.6 0.7 1.5 0.7 1.3 0 1.8-1.2h3.6q-0.4 1.9-1.8 3-1.5 1.2-3.5 1.2-1.7 0-3-0.7-1.2-0.7-1.9-2-0.7-1.3-0.7-3.1zm12.1 0q0-1.7 0.6-3 0.7-1.3 1.8-2 1.1-0.7 2.5-0.7 1.2 0 2 0.5 0.9 0.4 1.4 1.2v-1.6h3.4v11.2h-3.4v-1.6q-0.5 0.8-1.4 1.3-0.9 0.5-2 0.5-1.4 0-2.5-0.7-1.1-0.8-1.8-2.1-0.6-1.3-0.6-3zm8.3 0q0-1.3-0.7-2-0.7-0.7-1.7-0.7-1 0-1.8 0.7-0.7 0.7-0.7 2 0 1.3 0.7 2 0.8 0.8 1.8 0.8 1 0 1.7-0.8 0.7-0.7 0.7-2zm12.7-5.7q2 0 3.1 1.3 1.2 1.3 1.2 3.5v6.5h-3.4v-6.1q0-1.1-0.6-1.7-0.5-0.6-1.5-0.6-1 0-1.6 0.6-0.6 0.6-0.6 1.7v6.1h-3.4v-11.2h3.4v1.5q0.6-0.7 1.4-1.1 0.9-0.5 2-0.5zm20.9 13.7l-1.8-2.4q-0.8 0.1-1.5 0.1-2 0-3.7-0.9-1.6-0.9-2.6-2.5-0.9-1.7-0.9-3.8 0-2 0.9-3.7 1-1.6 2.6-2.5 1.7-0.9 3.7-0.9 2 0 3.6 0.9 1.7 0.9 2.6 2.5 1 1.7 1 3.7 0 1.8-0.8 3.3-0.7 1.5-2 2.5l3.1 3.7zm-7.1-9.5q0 1.9 1 3 1 1.1 2.7 1.1 1.7 0 2.7-1.1 1-1.1 1-3 0-1.8-1-2.9-1-1.1-2.7-1.1-1.7 0-2.7 1.1-1 1.1-1 2.9zm20 7.1l-2.9-5.3h-0.8v5.3h-3.5v-14h5.8q1.6 0 2.8 0.5 1.2 0.6 1.8 1.6 0.5 1 0.5 2.3 0 1.4-0.8 2.5-0.7 1.1-2.3 1.5l3.3 5.6zm-3.8-7.7h2.1q1 0 1.4-0.5 0.5-0.4 0.5-1.3 0-0.8-0.5-1.2-0.4-0.5-1.4-0.5h-2.1zm13.3 0.7q0-2.1 0.9-3.7 0.9-1.7 2.5-2.6 1.6-0.9 3.7-0.9 2.5 0 4.2 1.3 1.8 1.4 2.4 3.6h-3.7q-0.5-0.8-1.2-1.3-0.8-0.5-1.8-0.5-1.6 0-2.5 1.1-1 1.1-1 3 0 1.8 1 2.9 0.9 1.1 2.5 1.1 1 0 1.8-0.4 0.7-0.5 1.2-1.4h3.7q-0.6 2.3-2.4 3.6-1.7 1.3-4.2 1.3-2.1 0-3.7-0.9-1.6-0.9-2.5-2.5-0.9-1.6-0.9-3.7zm20.9 7.2q-1.6 0-3-0.7-1.3-0.7-2-2-0.8-1.3-0.8-3.1 0-1.7 0.8-3 0.8-1.3 2.1-2 1.3-0.7 2.9-0.7 1.7 0 3 0.7 1.3 0.7 2.1 2 0.7 1.3 0.7 3 0 1.8-0.7 3.1-0.8 1.3-2.1 2-1.4 0.7-3 0.7zm0-3q1 0 1.7-0.7 0.7-0.7 0.7-2.1 0-1.3-0.7-2-0.7-0.7-1.7-0.7-1 0-1.6 0.7-0.7 0.7-0.7 2 0 1.4 0.7 2.1 0.6 0.7 1.6 0.7zm7-2.8q0-1.7 0.6-3 0.7-1.3 1.8-2 1.1-0.7 2.5-0.7 1.1 0 2 0.5 0.9 0.4 1.4 1.2v-5.2h3.5v14.8h-3.5v-1.6q-0.4 0.8-1.4 1.3-0.8 0.5-2 0.5-1.4 0-2.5-0.7-1.1-0.7-1.8-2-0.6-1.4-0.6-3.1zm8.3 0q0-1.2-0.7-2-0.7-0.7-1.7-0.7-1 0-1.7 0.7-0.8 0.7-0.8 2 0 1.3 0.8 2.1 0.7 0.7 1.7 0.7 1 0 1.7-0.7 0.7-0.8 0.7-2.1zm16.4-0.1q0 0.4 0 1h-7.8q0.1 1 0.7 1.6 0.6 0.5 1.5 0.5 1.2 0 1.7-1.1h3.7q-0.3 1.1-1 2-0.8 0.9-1.9 1.4-1.1 0.5-2.4 0.5-1.7 0-2.9-0.7-1.3-0.7-2-2-0.8-1.3-0.8-3.1 0-1.7 0.7-3 0.8-1.3 2-2 1.3-0.7 3-0.7 1.6 0 2.9 0.7 1.2 0.7 1.9 1.9 0.7 1.3 0.7 3zm-3.5-0.9q0-0.9-0.6-1.4-0.6-0.6-1.5-0.6-0.8 0-1.4 0.5-0.6 0.5-0.7 1.5z"/><path class="e" d="m6 101h268"/><path class="f" d="m-49 463c0-24.3 19.7-44 44-44h287c24.3 0 44 19.7 44 44v147h-375z"/><path fill-rule="evenodd" class="d" d="m84.8 447l-2-3.4h-1.3v3.4h-1.1v-8.4h2.7q0.9 0 1.6 0.4 0.6 0.3 1 0.8 0.3 0.6 0.3 1.3 0 0.9-0.5 1.5-0.5 0.7-1.5 0.9l2.1 3.5zm-3.3-4.3h1.6q0.9 0 1.3-0.4 0.5-0.5 0.5-1.2 0-0.7-0.5-1.2-0.4-0.4-1.3-0.4h-1.6zm12.2 0.8q0 0.3 0 0.7h-5.3q0.1 0.9 0.7 1.5 0.6 0.5 1.4 0.5 0.7 0 1.2-0.3 0.5-0.3 0.7-0.9h1.2q-0.3 1-1.1 1.6-0.8 0.5-2 0.5-0.9 0-1.6-0.4-0.8-0.4-1.2-1.2-0.4-0.7-0.4-1.8 0-1 0.4-1.8 0.4-0.7 1.1-1.1 0.8-0.5 1.7-0.5 1 0 1.7 0.5 0.7 0.4 1.1 1.1 0.4 0.7 0.4 1.6zm-1.1-0.2q0-0.7-0.3-1.1-0.3-0.5-0.8-0.7-0.4-0.2-1-0.2-0.8 0-1.4 0.5-0.6 0.5-0.7 1.5zm2.2 0.4q0-1 0.4-1.7 0.4-0.8 1.1-1.2 0.7-0.5 1.7-0.5 1.2 0 2 0.6 0.8 0.6 1 1.7h-1.2q-0.1-0.6-0.6-1-0.5-0.3-1.2-0.3-1 0-1.5 0.6-0.6 0.7-0.6 1.8 0 1.2 0.6 1.9 0.5 0.6 1.5 0.6 0.7 0 1.2-0.3 0.5-0.4 0.6-1h1.2q-0.3 1-1 1.6-0.8 0.6-2 0.6-1 0-1.7-0.4-0.7-0.4-1.1-1.2-0.4-0.7-0.4-1.8zm13.7-0.2q0 0.3-0.1 0.7h-5.2q0 0.9 0.6 1.5 0.6 0.5 1.5 0.5 0.7 0 1.2-0.3 0.5-0.3 0.7-0.9h1.1q-0.2 1-1 1.6-0.8 0.5-2 0.5-0.9 0-1.7-0.4-0.7-0.4-1.1-1.2-0.4-0.7-0.4-1.8 0-1 0.4-1.8 0.4-0.7 1.1-1.1 0.8-0.5 1.7-0.5 0.9 0 1.7 0.5 0.7 0.4 1.1 1.1 0.4 0.7 0.4 1.6zm-1.2-0.2q0-0.7-0.2-1.1-0.3-0.5-0.8-0.7-0.5-0.2-1-0.2-0.9 0-1.5 0.5-0.5 0.5-0.6 1.5zm5.8-3q1.2 0 1.9 0.8 0.8 0.7 0.8 2.1v3.8h-1.1v-3.7q0-1-0.5-1.5-0.5-0.5-1.4-0.5-0.8 0-1.3 0.5-0.6 0.6-0.6 1.6v3.6h-1v-6.5h1v0.9q0.4-0.5 0.9-0.8 0.6-0.3 1.3-0.3zm5.8 1.1v3.8q0 0.5 0.2 0.7 0.2 0.2 0.7 0.2h0.8v0.9h-1q-0.9 0-1.4-0.4-0.4-0.4-0.4-1.4v-3.8h-0.9v-0.9h0.9v-1.7h1.1v1.7h1.7v0.9zm11.4-2.7v0.9h-2.3v7.4h-1.1v-7.4h-2.3v-0.9zm2.4 2.8q0.3-0.5 0.9-0.9 0.5-0.3 1.3-0.3v1.2h-0.3q-1.9 0-1.9 2v3.5h-1.1v-6.5h1.1zm3 2.2q0-1.1 0.4-1.8 0.4-0.8 1.1-1.2 0.8-0.4 1.6-0.4 0.9 0 1.5 0.4 0.7 0.3 1 0.9v-1.2h1.1v6.6h-1.1v-1.3q-0.3 0.6-1 1-0.6 0.4-1.5 0.4-0.9 0-1.6-0.5-0.7-0.4-1.1-1.2-0.4-0.8-0.4-1.7zm5.6 0q0-0.8-0.3-1.3-0.3-0.6-0.8-0.9-0.5-0.3-1.1-0.3-0.7 0-1.2 0.3-0.5 0.3-0.8 0.9-0.3 0.5-0.3 1.3 0 0.7 0.3 1.3 0.3 0.5 0.8 0.8 0.5 0.3 1.2 0.3 0.6 0 1.1-0.3 0.5-0.3 0.8-0.8 0.3-0.6 0.3-1.3zm6.1-3.4q1.2 0 2 0.7 0.7 0.7 0.7 2.1v3.9h-1.1v-3.8q0-0.9-0.4-1.5-0.5-0.5-1.4-0.5-0.9 0-1.4 0.6-0.5 0.5-0.5 1.5v3.7h-1.1v-6.6h1.1v0.9q0.4-0.5 0.9-0.8 0.6-0.2 1.2-0.2zm6.8 6.8q-0.7 0-1.3-0.3-0.6-0.2-1-0.7-0.3-0.5-0.3-1.1h1.1q0 0.5 0.4 0.8 0.5 0.3 1.1 0.3 0.7 0 1-0.2 0.4-0.3 0.4-0.7 0-0.5-0.4-0.7-0.4-0.2-1.2-0.4-0.7-0.2-1.2-0.4-0.5-0.2-0.8-0.6-0.3-0.3-0.3-1 0-0.5 0.3-0.9 0.3-0.4 0.8-0.7 0.6-0.2 1.3-0.2 1.1 0 1.8 0.5 0.6 0.6 0.7 1.5h-1.1q0-0.5-0.4-0.8-0.4-0.3-1-0.3-0.6 0-1 0.3-0.3 0.2-0.3 0.6 0 0.3 0.2 0.6 0.2 0.2 0.5 0.3 0.3 0.1 0.9 0.3 0.7 0.2 1.1 0.4 0.5 0.1 0.8 0.5 0.3 0.4 0.3 1 0 0.5-0.3 0.9-0.3 0.5-0.8 0.7-0.6 0.3-1.3 0.3zm3.6-3.4q0-1.1 0.4-1.8 0.4-0.8 1.1-1.2 0.7-0.4 1.6-0.4 0.9 0 1.5 0.4 0.6 0.3 0.9 0.9v-1.2h1.1v6.6h-1.1v-1.3q-0.3 0.6-0.9 1-0.7 0.4-1.5 0.4-0.9 0-1.6-0.5-0.7-0.4-1.1-1.2-0.4-0.8-0.4-1.7zm5.5 0q0-0.8-0.3-1.3-0.3-0.6-0.8-0.9-0.5-0.3-1.1-0.3-0.6 0-1.1 0.3-0.5 0.3-0.8 0.9-0.3 0.5-0.3 1.3 0 0.7 0.3 1.3 0.3 0.5 0.8 0.8 0.5 0.3 1.1 0.3 0.6 0 1.1-0.3 0.5-0.3 0.8-0.8 0.3-0.6 0.3-1.3zm2.6 0q0-1.1 0.4-1.8 0.4-0.8 1.1-1.2 0.7-0.4 1.7-0.4 1.2 0 2 0.6 0.8 0.6 1 1.6h-1.2q-0.1-0.6-0.6-0.9-0.5-0.4-1.2-0.4-1 0-1.5 0.7-0.6 0.6-0.6 1.8 0 1.2 0.6 1.8 0.5 0.6 1.5 0.6 0.7 0 1.2-0.3 0.5-0.3 0.6-0.9h1.2q-0.2 1-1 1.6-0.8 0.6-2 0.6-1 0-1.7-0.4-0.7-0.5-1.1-1.2-0.4-0.8-0.4-1.8zm9-2.4v3.9q0 0.4 0.2 0.6 0.2 0.2 0.7 0.2h0.8v1h-1q-0.9 0-1.3-0.5-0.5-0.4-0.5-1.3v-3.9h-0.8v-0.9h0.8v-1.7h1.1v1.7h1.7v0.9zm3.6-2q-0.3 0-0.5-0.2-0.2-0.2-0.2-0.5 0-0.3 0.2-0.6 0.2-0.2 0.5-0.2 0.3 0 0.5 0.2 0.2 0.3 0.2 0.6 0 0.3-0.2 0.5-0.2 0.2-0.5 0.2zm0.6 1.1v6.6h-1.1v-6.6zm4.7 6.7q-0.9 0-1.7-0.4-0.7-0.5-1.2-1.2-0.4-0.8-0.4-1.8 0-1 0.4-1.8 0.5-0.8 1.2-1.2 0.8-0.4 1.7-0.4 1 0 1.7 0.4 0.8 0.4 1.2 1.2 0.5 0.7 0.5 1.8 0 1-0.5 1.8-0.4 0.7-1.2 1.2-0.8 0.4-1.7 0.4zm0-1q0.6 0 1.1-0.3 0.5-0.2 0.8-0.8 0.3-0.5 0.3-1.3 0-0.8-0.3-1.4-0.3-0.5-0.8-0.8-0.5-0.3-1.1-0.3-0.6 0-1.1 0.3-0.5 0.3-0.8 0.8-0.3 0.6-0.3 1.4 0 0.8 0.3 1.3 0.3 0.6 0.8 0.8 0.5 0.3 1.1 0.3zm8-5.8q1.2 0 1.9 0.7 0.8 0.7 0.8 2.1v3.9h-1.1v-3.8q0-0.9-0.5-1.5-0.5-0.5-1.3-0.5-0.9 0-1.4 0.6-0.5 0.5-0.5 1.5v3.7h-1.1v-6.6h1.1v0.9q0.3-0.5 0.9-0.8 0.5-0.2 1.2-0.2zm6.8 6.8q-0.8 0-1.4-0.3-0.6-0.2-0.9-0.7-0.3-0.5-0.4-1.1h1.1q0.1 0.5 0.5 0.8 0.4 0.3 1.1 0.3 0.6 0 1-0.2 0.3-0.3 0.3-0.7 0-0.5-0.3-0.7-0.4-0.2-1.2-0.4-0.8-0.2-1.2-0.4-0.5-0.2-0.8-0.6-0.4-0.3-0.4-1 0-0.5 0.3-0.9 0.3-0.4 0.9-0.7 0.6-0.2 1.3-0.2 1.1 0 1.7 0.5 0.7 0.6 0.7 1.5h-1q-0.1-0.5-0.5-0.8-0.3-0.3-1-0.3-0.6 0-0.9 0.3-0.4 0.2-0.4 0.6 0 0.3 0.2 0.6 0.3 0.2 0.6 0.3 0.3 0.1 0.9 0.3 0.7 0.2 1.1 0.4 0.5 0.1 0.8 0.5 0.3 0.4 0.3 1 0 0.5-0.3 0.9-0.3 0.5-0.8 0.7-0.6 0.3-1.3 0.3z"/><path class="g" d="m73 460.5c0-1.4 1.1-2.5 2.5-2.5h130c1.4 0 2.5 1.1 2.5 2.5 0 1.4-1.1 2.5-2.5 2.5h-130c-1.4 0-2.5-1.1-2.5-2.5z"/><path fill-rule="evenodd" class="d" d="m28.8-118.8q-1.7 0-2.8-0.5-1.1-0.5-1.7-1.3-0.6-0.8-0.7-1.7 0-0.2 0.2-0.3 0.1-0.1 0.2-0.1h1.6q0.3 0 0.4 0.1 0.1 0.1 0.2 0.3 0.1 0.3 0.4 0.7 0.3 0.3 0.8 0.5 0.6 0.2 1.4 0.2 1.3 0 1.9-0.4 0.7-0.5 0.7-1.2 0-0.5-0.4-0.8-0.3-0.3-1.1-0.6-0.7-0.3-1.8-0.6-1.4-0.3-2.3-0.7-0.9-0.5-1.4-1.2-0.4-0.7-0.4-1.8 0-1 0.5-1.8 0.6-0.8 1.7-1.3 1-0.5 2.5-0.5 1.2 0 2.1 0.3 0.9 0.3 1.5 0.9 0.5 0.5 0.9 1.1 0.3 0.5 0.3 1.1 0 0.1-0.1 0.3-0.1 0.1-0.3 0.1h-1.7q-0.1 0-0.2-0.1-0.2-0.1-0.3-0.3-0.1-0.5-0.7-0.9-0.6-0.4-1.5-0.4-1 0-1.6 0.4-0.6 0.3-0.6 1.1 0 0.5 0.3 0.8 0.3 0.3 1 0.6 0.6 0.2 1.7 0.5 1.5 0.4 2.5 0.8 1 0.5 1.4 1.2 0.5 0.7 0.5 1.7 0 1.2-0.7 2.1-0.6 0.8-1.7 1.2-1.2 0.5-2.7 0.5zm11 0q-1.3 0-2.3-0.5-1-0.5-1.5-1.4-0.6-0.9-0.6-2.3 0-0.2 0-0.7 0-0.4 0-0.7 0-1.3 0.6-2.2 0.5-1 1.5-1.5 1-0.4 2.3-0.4 1.1 0 1.9 0.3 0.9 0.3 1.4 0.8 0.5 0.5 0.8 1 0.2 0.5 0.2 1 0.1 0.2-0.1 0.3-0.1 0.1-0.3 0.1h-1.6q-0.2 0-0.3-0.1-0.1-0.1-0.1-0.3-0.3-0.7-0.8-1-0.4-0.3-1.1-0.3-0.9 0-1.4 0.6-0.5 0.6-0.6 1.8 0 0.7 0 1.2 0.1 1.3 0.6 1.8 0.5 0.6 1.4 0.6 0.7 0 1.2-0.3 0.4-0.3 0.7-1 0-0.2 0.1-0.3 0.1-0.1 0.3-0.1h1.6q0.2 0 0.3 0.2 0.2 0.1 0.1 0.3 0 0.3-0.1 0.7-0.2 0.4-0.5 0.8-0.3 0.4-0.9 0.8-0.5 0.3-1.2 0.6-0.7 0.2-1.6 0.2zm8.9 0q-0.9 0-1.7-0.4-0.7-0.4-1.2-1-0.4-0.6-0.4-1.4 0-1.2 1-2 1-0.7 2.7-1l2.5-0.3v-0.4q0-0.8-0.4-1.2-0.4-0.4-1.3-0.4-0.6 0-1.1 0.3-0.4 0.2-0.5 0.7-0.2 0.2-0.5 0.2h-1.4q-0.2 0-0.3-0.1-0.1-0.1-0.1-0.3 0-0.3 0.3-0.7 0.2-0.4 0.6-0.8 0.5-0.4 1.2-0.7 0.8-0.2 1.8-0.2 1.2 0 1.9 0.2 0.8 0.3 1.3 0.8 0.5 0.5 0.7 1.1 0.2 0.6 0.2 1.3v5.7q0 0.1-0.1 0.3-0.2 0.1-0.3 0.1h-1.5q-0.2 0-0.3-0.1-0.1-0.2-0.1-0.3v-0.7q-0.3 0.3-0.7 0.6-0.4 0.3-0.9 0.5-0.6 0.2-1.4 0.2zm0.6-1.7q0.7 0 1.2-0.3 0.5-0.3 0.8-0.8 0.3-0.6 0.3-1.5v-0.3l-1.8 0.2q-1.1 0.2-1.6 0.6-0.5 0.3-0.5 0.8 0 0.4 0.2 0.7 0.3 0.3 0.7 0.4 0.3 0.2 0.7 0.2zm7.4 1.5q-0.1 0-0.3-0.1-0.1-0.2-0.1-0.3v-8.5q0-0.2 0.1-0.3 0.2-0.2 0.3-0.2h1.5q0.2 0 0.3 0.2 0.1 0.1 0.1 0.3v0.7q0.5-0.6 1.2-0.9 0.8-0.4 1.8-0.4 1.1 0 2 0.5 0.8 0.4 1.2 1.3 0.4 0.9 0.4 2.2v5.1q0 0.1-0.1 0.3-0.1 0.1-0.3 0.1h-1.6q-0.1 0-0.3-0.1-0.1-0.2-0.1-0.3v-5q0-1-0.5-1.6-0.5-0.6-1.5-0.6-0.9 0-1.5 0.6-0.5 0.6-0.5 1.6v5q0 0.1-0.2 0.3-0.1 0.1-0.3 0.1zm19 0.2q-1.3 0-2.3-0.5-1-0.4-1.5-1.2-0.6-0.8-0.6-1.9 0-0.8 0.4-1.4 0.3-0.7 0.9-1.2 0.5-0.5 1.2-0.9-0.7-0.8-1.1-1.5-0.3-0.6-0.3-1.3 0-0.8 0.4-1.5 0.5-0.7 1.3-1.1 0.8-0.5 2-0.5 1.1 0 1.8 0.4 0.8 0.4 1.3 1.1 0.4 0.7 0.4 1.6 0 0.7-0.4 1.3-0.3 0.6-0.9 1.1-0.6 0.4-1.3 0.8l2.6 2.6q0.2-0.3 0.4-0.9 0.3-0.6 0.5-1.5 0.1-0.3 0.4-0.3h1.3q0.2 0 0.3 0.1 0.1 0.1 0.1 0.3-0.1 0.4-0.2 0.8-0.1 0.5-0.4 1-0.2 0.5-0.5 0.9-0.3 0.5-0.6 1l1.9 1.9q0.2 0.1 0.2 0.3 0 0.1-0.1 0.2-0.1 0.1-0.3 0.1h-1.7q-0.2 0-0.3-0.1-0.1 0-0.2-0.1l-1-1q-0.7 0.7-1.6 1-0.9 0.4-2.1 0.4zm0-1.9q0.6 0 1.2-0.2 0.6-0.2 1.1-0.7l-2.8-2.9q-0.7 0.4-1.1 0.9-0.5 0.4-0.5 1.1 0 0.6 0.3 1 0.3 0.4 0.8 0.6 0.5 0.2 1 0.2zm0-6.1q0.5-0.3 0.9-0.5 0.4-0.3 0.6-0.6 0.3-0.4 0.3-0.8 0-0.6-0.4-1-0.4-0.3-1.1-0.3-0.5 0-1 0.3-0.4 0.4-0.4 1 0 0.3 0.1 0.6 0.1 0.2 0.3 0.5 0.3 0.4 0.7 0.8zm13.6 7.8q-0.2 0-0.3-0.1-0.1-0.2-0.1-0.3v-11.8q0-0.1 0.1-0.3 0.1-0.1 0.3-0.1h4.8q1.4 0 2.5 0.4 1 0.5 1.6 1.4 0.6 0.9 0.6 2.2 0 1.3-0.6 2.2-0.6 0.9-1.6 1.3-1.1 0.5-2.5 0.5h-2.6v4.2q0 0.1-0.2 0.3-0.1 0.1-0.3 0.1zm2.1-6.6h2.7q1 0 1.6-0.5 0.5-0.5 0.5-1.5 0-0.9-0.5-1.4-0.5-0.6-1.6-0.6h-2.7zm11.7 6.8q-1 0-1.7-0.3-0.8-0.4-1.2-1-0.5-0.7-0.5-1.4 0-1.3 1-2 1.1-0.8 2.7-1l2.5-0.4v-0.4q0-0.7-0.4-1.1-0.3-0.5-1.3-0.5-0.6 0-1 0.3-0.4 0.3-0.6 0.7-0.2 0.2-0.4 0.2h-1.5q-0.2 0-0.3-0.1-0.1-0.1-0.1-0.3 0.1-0.3 0.3-0.7 0.2-0.4 0.7-0.8 0.4-0.4 1.2-0.6 0.7-0.3 1.8-0.3 1.1 0 1.9 0.3 0.8 0.3 1.2 0.7 0.5 0.5 0.7 1.1 0.2 0.7 0.2 1.4v5.6q0 0.2-0.1 0.3-0.1 0.1-0.3 0.1h-1.5q-0.2 0-0.3-0.1-0.1-0.1-0.1-0.3v-0.7q-0.2 0.3-0.6 0.7-0.4 0.2-1 0.4-0.6 0.2-1.3 0.2zm0.6-1.7q0.6 0 1.1-0.3 0.5-0.2 0.8-0.8 0.3-0.6 0.3-1.4v-0.4l-1.8 0.3q-1 0.1-1.6 0.5-0.5 0.4-0.5 0.9 0 0.4 0.3 0.7 0.2 0.2 0.6 0.4 0.4 0.1 0.8 0.1zm8.4 5q-0.2 0-0.3-0.1-0.1-0.2-0.1-0.3 0-0.1 0-0.1 0-0.1 0.1-0.2l1.4-3.3-3.5-8.2q0-0.2 0-0.2 0-0.2 0.1-0.3 0.1-0.1 0.3-0.1h1.4q0.2 0 0.3 0.1 0.2 0.1 0.2 0.2l2.4 5.9 2.5-5.9q0-0.1 0.1-0.2 0.1-0.1 0.4-0.1h1.4q0.1 0 0.2 0.1 0.2 0.1 0.2 0.2 0 0.1-0.1 0.3l-5.1 11.8q-0.1 0.2-0.2 0.3-0.1 0.1-0.3 0.1z"/><path class="d" d="m8-126v1c0 0.2-0.2 0.4-0.5 0.4h-14.5l4 4.2q0.1 0.1 0.1 0.3 0 0.2-0.1 0.3l-0.6 0.7q-0.2 0.1-0.4 0.1-0.1 0-0.3-0.1l-5.5-5.7q-0.2-0.2-0.2-0.5v-0.4q0-0.3 0.2-0.5l5.5-5.7q0.2-0.1 0.3-0.1 0.2 0 0.4 0.1l0.6 0.7q0.1 0.1 0.1 0.3 0 0.2-0.1 0.3l-4 4.2h14.5c0.3 0 0.5 0.2 0.5 0.4z"/><path class="h" d="m40 104h201v88h-201z"/><path class="f" d="m68 503c0-8.3 6.7-15 15-15h20c8.3 0 15 6.7 15 15v20c0 8.3-6.7 15-15 15h-20c-8.3 0-15-6.7-15-15z"/><path fill-rule="evenodd" class="i" d="m83.7 516c1 0 1.8 0.8 1.8 1.7v3.6q0 0 0 0.1c0.2 0.1 0.7 0.2 1.2 0.2h12.6c0.5 0 0.9-0.1 1.2-0.2q0-0.1 0-0.1v-3.6c0-0.9 0.8-1.7 1.8-1.7 0.9 0 1.7 0.8 1.7 1.7v3.8c0 1.3-0.9 2.2-1.7 2.7-0.8 0.5-1.9 0.8-3 0.8h-12.6c-1.1 0-2.2-0.3-3-0.8-0.8-0.5-1.7-1.4-1.7-2.7v-3.8c0-0.9 0.8-1.7 1.7-1.7zm16.9 5.3q0 0 0 0 0 0 0 0zm-15.2 0q0 0 0 0 0 0 0 0z"/><path fill-rule="evenodd" class="j" d="m95 507.2l2.7 3.2c0.7 0.7 1.8 0.8 2.6 0.2 0.8-0.6 0.9-1.7 0.3-2.4l-5.6-6.4c-0.4-0.5-1-0.7-1.2-0.7q-0.4-0.1-0.8-0.1-0.4 0-0.8 0.1c-0.2 0-0.8 0.2-1.2 0.7l-5.6 6.4c-0.6 0.7-0.5 1.8 0.3 2.4 0.8 0.6 1.9 0.5 2.6-0.2l2.7-3.2v10c0 1 0.9 1.8 2 1.8 1.1 0 2-0.8 2-1.8z"/><path fill-rule="evenodd" class="d" d="m80.6 558.1q-0.9 0-1.5-0.3-0.7-0.3-1-0.8-0.4-0.5-0.4-1.2h1.1q0.1 0.6 0.5 1 0.5 0.4 1.3 0.4 0.8 0 1.2-0.4 0.5-0.4 0.5-1 0-0.5-0.3-0.8-0.3-0.3-0.7-0.5-0.4-0.1-1-0.3-0.9-0.2-1.4-0.4-0.5-0.3-0.8-0.7-0.4-0.5-0.4-1.3 0-0.6 0.4-1.2 0.3-0.5 1-0.8 0.6-0.3 1.4-0.3 1.2 0 1.9 0.6 0.8 0.6 0.9 1.6h-1.2q-0.1-0.5-0.5-0.9-0.5-0.3-1.2-0.3-0.7 0-1.1 0.3-0.5 0.4-0.5 1 0 0.5 0.3 0.8 0.3 0.2 0.6 0.4 0.4 0.1 1.1 0.3 0.8 0.3 1.3 0.5 0.5 0.2 0.9 0.7 0.4 0.4 0.4 1.2 0 0.6-0.4 1.2-0.3 0.5-0.9 0.8-0.7 0.4-1.5 0.4zm10.4-3.6q0 0.3-0.1 0.6h-5.2q0 1 0.6 1.5 0.6 0.6 1.5 0.6 0.7 0 1.2-0.3 0.5-0.4 0.7-0.9h1.1q-0.2 0.9-1 1.5-0.8 0.6-2 0.6-0.9 0-1.7-0.4-0.7-0.4-1.1-1.2-0.4-0.8-0.4-1.8 0-1 0.4-1.8 0.4-0.8 1.1-1.2 0.8-0.4 1.7-0.4 0.9 0 1.7 0.4 0.7 0.4 1.1 1.2 0.4 0.7 0.4 1.6zm-1.2-0.3q0-0.6-0.2-1-0.3-0.5-0.8-0.7-0.5-0.3-1-0.3-0.9 0-1.5 0.6-0.5 0.5-0.6 1.4zm5.8-2.9q1.2 0 1.9 0.7 0.7 0.8 0.7 2.1v3.9h-1v-3.7q0-1-0.5-1.5-0.5-0.5-1.4-0.5-0.8 0-1.3 0.5-0.6 0.5-0.6 1.6v3.6h-1v-6.6h1v1q0.4-0.5 0.9-0.8 0.6-0.3 1.3-0.3zm4 3.4q0-1 0.4-1.8 0.4-0.7 1.1-1.2 0.8-0.4 1.7-0.4 0.7 0 1.4 0.4 0.6 0.3 1 0.9v-3.5h1.1v8.9h-1.1v-1.2q-0.3 0.6-1 0.9-0.6 0.4-1.5 0.4-0.8 0-1.6-0.4-0.7-0.5-1.1-1.2-0.4-0.8-0.4-1.8zm5.6 0q0-0.7-0.3-1.3-0.3-0.5-0.8-0.8-0.5-0.3-1.1-0.3-0.7 0-1.2 0.3-0.5 0.2-0.8 0.8-0.3 0.5-0.3 1.3 0 0.7 0.3 1.3 0.3 0.6 0.8 0.9 0.5 0.2 1.2 0.2 0.6 0 1.1-0.2 0.5-0.3 0.8-0.9 0.3-0.6 0.3-1.3z"/><path class="f" d="m158 503c0-8.3 6.7-15 15-15h20c8.3 0 15 6.7 15 15v20c0 8.3-6.7 15-15 15h-20c-8.3 0-15-6.7-15-15z"/><path fill-rule="evenodd" class="i" d="m173.7 516.1c1 0 1.8 0.8 1.8 1.8v3.6q0 0 0 0.1c0.3 0.1 0.7 0.2 1.2 0.2h12.6c0.5 0 1-0.1 1.2-0.2q0-0.1 0-0.1v-3.6c0-1 0.8-1.8 1.8-1.8 0.9 0 1.7 0.8 1.7 1.8v3.8c0 1.3-0.9 2.2-1.7 2.7-0.8 0.6-1.9 0.8-3 0.8h-12.6c-1.1 0-2.2-0.2-3-0.8-0.8-0.5-1.7-1.4-1.7-2.7v-3.8c0-1 0.8-1.8 1.7-1.8zm16.9 5.4q0 0 0 0 0 0 0 0zm-15.2 0q0 0 0 0 0 0 0 0z"/><path fill-rule="evenodd" class="j" d="m181.3 512.8l-2.7-3.4c-0.7-0.7-1.7-0.8-2.5-0.2-0.7 0.6-0.8 1.7-0.2 2.4l5.2 6.5c0.4 0.5 0.9 0.6 1.1 0.7q0.4 0.1 0.8 0.1 0.4 0 0.8-0.1c0.2-0.1 0.7-0.2 1.1-0.7l5.2-6.5c0.6-0.7 0.5-1.8-0.2-2.4-0.8-0.6-1.8-0.5-2.5 0.2l-2.7 3.4v-9.8c0-1-0.7-1.8-1.7-1.8-1 0-1.7 0.8-1.7 1.8z"/><path fill-rule="evenodd" class="d" d="m164.7 558l-2-3.4h-1.3v3.4h-1.1v-8.4h2.7q0.9 0 1.6 0.4 0.6 0.3 1 0.8 0.3 0.6 0.3 1.3 0 0.9-0.5 1.5-0.5 0.7-1.5 0.9l2.1 3.5zm-3.3-4.3h1.6q0.9 0 1.3-0.4 0.5-0.5 0.5-1.2 0-0.7-0.5-1.2-0.4-0.4-1.3-0.4h-1.6zm12.2 0.8q0 0.3 0 0.7h-5.3q0.1 0.9 0.7 1.5 0.6 0.5 1.4 0.5 0.8 0 1.2-0.3 0.5-0.3 0.7-0.9h1.2q-0.3 1-1.1 1.6-0.8 0.5-2 0.5-0.9 0-1.6-0.4-0.8-0.4-1.2-1.2-0.4-0.7-0.4-1.8 0-1 0.4-1.8 0.4-0.7 1.1-1.1 0.8-0.5 1.7-0.5 1 0 1.7 0.5 0.7 0.4 1.1 1.1 0.4 0.7 0.4 1.6zm-1.1-0.2q0-0.7-0.3-1.1-0.3-0.5-0.8-0.7-0.4-0.2-1-0.2-0.8 0-1.4 0.5-0.6 0.5-0.7 1.5zm2.2 0.4q0-1 0.4-1.7 0.4-0.8 1.1-1.2 0.8-0.5 1.7-0.5 1.2 0 2 0.6 0.8 0.6 1 1.7h-1.2q-0.1-0.6-0.6-1-0.5-0.3-1.2-0.3-0.9 0-1.5 0.6-0.6 0.7-0.6 1.8 0 1.2 0.6 1.9 0.6 0.6 1.5 0.6 0.7 0 1.2-0.3 0.5-0.4 0.6-1h1.2q-0.2 1-1 1.6-0.8 0.6-2 0.6-0.9 0-1.7-0.4-0.7-0.4-1.1-1.2-0.4-0.7-0.4-1.8zm8.2-4.3q-0.3 0-0.5-0.2-0.2-0.2-0.2-0.6 0-0.3 0.2-0.5 0.2-0.2 0.5-0.2 0.3 0 0.5 0.2 0.3 0.2 0.3 0.5 0 0.4-0.3 0.6-0.2 0.2-0.5 0.2zm0.6 1.1v6.5h-1.1v-6.5zm4.3 5.5l2-5.5h1.2l-2.6 6.5h-1.3l-2.5-6.5h1.1zm10.3-2.6q0 0.3 0 0.7h-5.3q0.1 1 0.7 1.5 0.6 0.5 1.5 0.5 0.7 0 1.1-0.3 0.5-0.3 0.7-0.9h1.2q-0.3 1-1.1 1.6-0.8 0.6-1.9 0.6-1 0-1.7-0.4-0.8-0.5-1.2-1.2-0.4-0.8-0.4-1.8 0-1.1 0.4-1.8 0.4-0.8 1.2-1.2 0.7-0.4 1.7-0.4 0.9 0 1.6 0.4 0.7 0.4 1.1 1.1 0.4 0.7 0.4 1.6zm-1.1-0.2q0-0.6-0.3-1.1-0.3-0.4-0.7-0.7-0.5-0.2-1.1-0.2-0.8 0-1.4 0.5-0.6 0.6-0.7 1.5zm2.2 0.5q0-1.1 0.4-1.8 0.4-0.8 1.1-1.2 0.7-0.4 1.6-0.4 0.8 0 1.5 0.3 0.6 0.4 1 1v-3.5h1.1v8.9h-1.1v-1.3q-0.4 0.6-1 1-0.6 0.4-1.5 0.4-0.9 0-1.6-0.5-0.7-0.4-1.1-1.2-0.4-0.8-0.4-1.7zm5.6 0q0-0.8-0.3-1.3-0.3-0.6-0.9-0.9-0.5-0.3-1.1-0.3-0.6 0-1.1 0.3-0.5 0.3-0.8 0.9-0.3 0.5-0.3 1.3 0 0.7 0.3 1.3 0.3 0.5 0.8 0.8 0.5 0.3 1.1 0.3 0.6 0 1.1-0.3 0.6-0.3 0.9-0.8 0.3-0.6 0.3-1.3z"/><path class="f" d="m-19 503c0-8.3 6.7-15 15-15h20c8.3 0 15 6.7 15 15v20c0 8.3-6.7 15-15 15h-20c-8.3 0-15-6.7-15-15z"/><path class="k" d="m-19 503c0-8.3 6.7-15 15-15h20c8.3 0 15 6.7 15 15v20c0 8.3-6.7 15-15 15h-20c-8.3 0-15-6.7-15-15z"/><path class="l" d="m6 523.5c-5.8 0-10.5-4.7-10.5-10.5 0-5.8 4.7-10.5 10.5-10.5 5.8 0 10.5 4.7 10.5 10.5 0 5.8-4.7 10.5-10.5 10.5z"/><path class="m" d="m6.5 508v5c0 0.3-0.2 0.6-0.4 0.8l-4.1 2.7"/><path fill-rule="evenodd" class="i" d="m4.9 556.1h-3.7l-0.7 1.9h-1.1l3-8.3h1.3l3 8.3h-1.2zm-0.3-0.9l-1.5-4.2-1.5 4.2zm4.5-6.1v8.9h-1v-8.9zm2.9 0v8.9h-1.1v-8.9z"/><path class="f" d="m247 503c0-8.3 6.7-15 15-15h20c8.3 0 15 6.7 15 15v20c0 8.3-6.7 15-15 15h-20c-8.3 0-15-6.7-15-15z"/><path fill-rule="evenodd" class="j" d="m272 507.7c-1.4 0-2.8 0.4-3.9 1-0.9 0.5-2 0.2-2.5-0.7-0.5-0.9-0.2-2 0.7-2.5 1.7-1 3.6-1.5 5.7-1.5 6 0 11.1 4.5 11.1 10.5 0 5.9-5.1 10.5-11.1 10.5-5.4 0-10.1-3.7-10.9-8.9-0.2-1 0.5-1.9 1.5-2.1 1-0.2 1.9 0.5 2.1 1.5 0.5 3.2 3.5 5.8 7.3 5.8 4.3 0 7.4-3.2 7.4-6.8 0-3.7-3.1-6.8-7.4-6.8z"/><path fill-rule="evenodd" class="i" d="m267.4 501.5c0.9 0.5 1.3 1.6 0.8 2.5l-1.7 3.2 3.3 1.3c1 0.3 1.5 1.4 1.1 2.4-0.3 0.9-1.4 1.4-2.4 1l-5-1.9h-0.1c-1.1-0.5-1.4-1.7-1.1-2.6v-0.2l2.7-4.9c0.4-0.9 1.5-1.2 2.4-0.8z"/><path fill-rule="evenodd" class="d" d="m260.8 549.6v0.9h-3.6v2.8h3v0.9h-3v3.8h-1.1v-8.4zm0.9 5.1q0-1 0.4-1.8 0.4-0.7 1.2-1.2 0.7-0.4 1.5-0.4 0.9 0 1.5 0.4 0.7 0.4 1 0.9v-1.2h1.1v6.6h-1.1v-1.2q-0.3 0.6-1 0.9-0.6 0.4-1.5 0.4-0.8 0-1.5-0.4-0.8-0.5-1.2-1.2-0.4-0.8-0.4-1.8zm5.6 0q0-0.7-0.3-1.3-0.3-0.5-0.8-0.8-0.5-0.3-1.1-0.3-0.6 0-1.2 0.3-0.5 0.2-0.8 0.8-0.3 0.5-0.3 1.3 0 0.7 0.3 1.3 0.3 0.6 0.8 0.9 0.6 0.2 1.2 0.2 0.6 0 1.1-0.2 0.5-0.3 0.8-0.9 0.3-0.6 0.3-1.3zm3.5-4.3q-0.3 0-0.5-0.3-0.2-0.2-0.2-0.5 0-0.3 0.2-0.5 0.2-0.2 0.5-0.2 0.3 0 0.5 0.2 0.2 0.2 0.2 0.5 0 0.3-0.2 0.5-0.2 0.3-0.5 0.3zm0.5 1v6.6h-1.1v-6.6zm3-2.3v8.9h-1.1v-8.9zm7.9 5.4q0 0.3-0.1 0.6h-5.2q0 1 0.6 1.5 0.6 0.6 1.5 0.6 0.7 0 1.2-0.3 0.5-0.4 0.7-0.9h1.1q-0.2 0.9-1 1.5-0.8 0.6-2 0.6-0.9 0-1.7-0.4-0.7-0.4-1.1-1.2-0.4-0.8-0.4-1.8 0-1 0.4-1.8 0.4-0.8 1.1-1.2 0.8-0.4 1.7-0.4 0.9 0 1.7 0.4 0.7 0.4 1.1 1.2 0.4 0.7 0.4 1.6zm-1.2-0.3q0-0.6-0.2-1-0.3-0.5-0.8-0.7-0.5-0.3-1-0.3-0.9 0-1.5 0.6-0.5 0.5-0.6 1.4zm2.1 0.5q0-1 0.5-1.8 0.4-0.7 1.1-1.2 0.7-0.4 1.6-0.4 0.7 0 1.4 0.4 0.7 0.3 1 0.9v-3.5h1.1v8.9h-1.1v-1.2q-0.3 0.6-0.9 0.9-0.7 0.4-1.5 0.4-0.9 0-1.6-0.4-0.7-0.5-1.1-1.2-0.5-0.8-0.5-1.8zm5.6 0q0-0.7-0.3-1.3-0.3-0.5-0.8-0.8-0.5-0.3-1.1-0.3-0.6 0-1.1 0.3-0.5 0.2-0.8 0.8-0.3 0.5-0.3 1.3 0 0.7 0.3 1.3 0.3 0.6 0.8 0.9 0.5 0.2 1.1 0.2 0.6 0 1.1-0.2 0.5-0.3 0.8-0.9 0.3-0.6 0.3-1.3z"/><g clip-path="url(#cp3)"><path fill-rule="evenodd" class="i" d="m123.5 307.5c1 0.9 1.5 2.2 1.5 3.5v14c0 1.3-0.5 2.6-1.5 3.5-0.9 1-2.2 1.5-3.5 1.5h-14c-1.3 0-2.6-0.5-3.5-1.5-1-0.9-1.5-2.2-1.5-3.5v-14c0-1.3 0.5-2.6 1.5-3.5 0.9-1 2.2-1.5 3.5-1.5h14c1.3 0 2.6 0.5 3.5 1.5zm-19.6 1.4c-0.6 0.5-0.9 1.3-0.9 2.1v9.6l3.5-3.5q0.7-0.7 1.6-1.1 0.9-0.3 1.9-0.3 1 0 1.9 0.3 0.9 0.4 1.6 1.1l9.2 9.2q0.3-0.6 0.3-1.3v-14c0-0.8-0.3-1.6-0.9-2.1-0.5-0.6-1.3-0.9-2.1-0.9h-14c-0.8 0-1.6 0.3-2.1 0.9zm16.1 19.1q0.7 0 1.3-0.3l-9.2-9.2q-0.4-0.4-1-0.6-0.5-0.2-1.1-0.2-0.6 0-1.1 0.2-0.6 0.2-1 0.6l-4.9 4.9v1.6c0 0.8 0.3 1.6 0.9 2.1 0.5 0.6 1.3 0.9 2.1 0.9z"/><path fill-rule="evenodd" class="i" d="m114.5 315.5c-0.6-0.7-1-1.6-1-2.5 0-0.7 0.2-1.4 0.6-1.9 0.4-0.6 0.9-1.1 1.6-1.3 0.6-0.3 1.3-0.4 2-0.2 0.7 0.1 1.3 0.4 1.8 0.9 0.5 0.5 0.8 1.1 0.9 1.8 0.2 0.7 0.1 1.4-0.2 2-0.2 0.7-0.7 1.2-1.3 1.6-0.5 0.4-1.2 0.6-1.9 0.6-0.9 0-1.8-0.4-2.5-1zm1.4-3.6c-0.2 0.3-0.4 0.7-0.4 1.1q0 0.5 0.3 0.8 0.2 0.4 0.6 0.6 0.4 0.2 0.9 0.1 0.4-0.1 0.8-0.4 0.3-0.4 0.4-0.8 0.1-0.5-0.1-0.9-0.2-0.4-0.6-0.6-0.3-0.3-0.8-0.3c-0.4 0-0.8 0.2-1.1 0.4z"/></g><path fill-rule="evenodd" class="i" d="m167.3 306.5c0.8-0.9 2.5-0.5 2.5 0.7v7.4h5.9c1 0 1.7 1.1 1.1 1.9l-9.4 13c-0.8 1-2.5 0.5-2.5-0.7v-7.4h-6.6c-1 0-1.7-1.1-1.1-1.9zm0.3 3l-7.7 10h5.8c0.8 0 1.4 0.5 1.4 1.2v5.7l7.1-9.8h-5.2c-0.8 0-1.4-0.6-1.4-1.2z"/><path class="f" d="m-47-202h375v44h-375z"/><path class="n" d="m289.8-182c0-1.2 1-2.2 2.2-2.2h16.7c1.2 0 2.1 1 2.1 2.2v6c0 1.2-0.9 2.2-2.1 2.2h-16.7c-1.2 0-2.2-1-2.2-2.2z"/><path class="o" d="m312.3-181v4c0.8-0.3 1.4-1.1 1.4-2 0-0.9-0.6-1.7-1.4-2z"/><path class="p" d="m291.3-181.3c0-0.8 0.6-1.4 1.4-1.4h15.3c0.7 0 1.3 0.6 1.3 1.4v4.6c0 0.8-0.6 1.4-1.3 1.4h-15.3c-0.8 0-1.4-0.6-1.4-1.4z"/><path fill-rule="evenodd" class="p" d="m270.7-180c-0.1 0.1-0.3 0.1-0.4 0l-1.2-1.2q-0.1-0.1-0.1-0.2 0-0.1 0.1-0.2c4.2-4.1 10.9-4.1 15.1 0q0.1 0.1 0.1 0.2 0 0.1-0.1 0.2l-1.1 1.2c-0.1 0.1-0.3 0.1-0.5 0-1.6-1.5-3.7-2.4-5.9-2.4-2.3 0-4.4 0.9-6 2.4zm2.7 2.7c-0.2 0.1-0.4 0.1-0.5 0l-1.1-1.2q-0.1-0.1-0.1-0.2 0-0.1 0.1-0.2c2.7-2.6 7-2.6 9.8 0q0.1 0.1 0.1 0.2 0 0.1-0.1 0.2l-1.2 1.2c-0.1 0.1-0.3 0.1-0.4 0-0.9-0.8-2.1-1.3-3.3-1.3-1.3 0-2.4 0.5-3.3 1.3zm5.6 1.3q0 0.1-0.1 0.2l-2 2q-0.1 0.1-0.2 0.1-0.2 0-0.3-0.1l-2-2q-0.1-0.1-0.1-0.2 0-0.2 0.1-0.2c1.3-1.1 3.2-1.1 4.5 0q0.1 0 0.1 0.2z"/><path fill-rule="evenodd" class="p" d="m264-183.3v8.6c0 0.6-0.4 1-1 1h-1c-0.6 0-1-0.4-1-1v-8.6c0-0.6 0.4-1 1-1h1c0.6 0 1 0.4 1 1zm-6.7 1.3h1c0.6 0 1 0.4 1 1v6.3c0 0.6-0.4 1-1 1h-1c-0.5 0-1-0.4-1-1v-6.3c0-0.6 0.5-1 1-1zm-2.6 3.3v4c0 0.6-0.5 1-1 1h-1c-0.6 0-1-0.4-1-1v-4c0-0.5 0.4-1 1-1h1c0.5 0 1 0.5 1 1zm-4.7 2v2c0 0.6-0.4 1-1 1h-1c-0.6 0-1-0.4-1-1v-2c0-0.5 0.4-1 1-1h1c0.6 0 1 0.5 1 1z"/><path fill-rule="evenodd" class="p" d="m-11.7-181h-4.9v3.2q0.3-0.5 1-0.8 0.6-0.2 1.3-0.2 1.2 0 1.9 0.4 0.7 0.5 1 1.3 0.4 0.7 0.4 1.6 0 1-0.4 1.8-0.4 0.8-1.2 1.3-0.7 0.4-1.9 0.4-1.5 0-2.4-0.7-0.9-0.8-1.1-2h1.3q0.1 0.8 0.7 1.2 0.6 0.5 1.5 0.4 1.1 0.1 1.7-0.6 0.5-0.7 0.5-1.8 0-1.1-0.5-1.7-0.6-0.6-1.7-0.6-0.7 0-1.3 0.4-0.5 0.4-0.8 1h-1.2v-5.7h6.1zm3 9.1q-0.4 0-0.6-0.3-0.3-0.2-0.3-0.6 0-0.4 0.3-0.6 0.2-0.3 0.6-0.3 0.3 0 0.6 0.3 0.2 0.2 0.2 0.6 0 0.4-0.2 0.6-0.3 0.3-0.6 0.3zm0-6q-0.4 0-0.6-0.3-0.3-0.2-0.3-0.6 0-0.4 0.3-0.6 0.2-0.3 0.6-0.3 0.3 0 0.6 0.3 0.2 0.2 0.2 0.6 0 0.4-0.2 0.6-0.3 0.3-0.6 0.3zm2 3.6v-0.9l4.9-6.8h1.6v6.6h1.4v1.1h-1.4v2.3h-1.3v-2.3zm5.2-6.4l-3.7 5.3h3.7zm5.8 3.4q-0.8-0.3-1.2-0.8-0.5-0.6-0.5-1.5 0-0.7 0.4-1.3 0.4-0.6 1.1-1 0.8-0.4 1.9-0.4 1 0 1.8 0.4 0.7 0.4 1.1 1 0.4 0.6 0.4 1.3 0 0.8-0.4 1.5-0.5 0.6-1.2 0.8 0.8 0.3 1.3 1 0.6 0.6 0.6 1.6 0 0.9-0.5 1.6-0.4 0.7-1.3 1-0.8 0.4-1.8 0.4-1.1 0-1.9-0.4-0.8-0.3-1.3-1-0.4-0.7-0.4-1.6 0-1 0.5-1.6 0.5-0.7 1.4-1zm3.8-2.1q0-0.9-0.6-1.3-0.6-0.5-1.5-0.5-1 0-1.6 0.5-0.5 0.4-0.5 1.3 0 0.8 0.6 1.3 0.5 0.4 1.5 0.4 0.9 0 1.5-0.4 0.6-0.5 0.6-1.3zm-2.1 2.7q-1.1 0-1.7 0.5-0.7 0.5-0.7 1.4 0 0.9 0.6 1.5 0.7 0.5 1.8 0.5 1 0 1.7-0.5 0.6-0.6 0.6-1.5 0-0.9-0.6-1.4-0.7-0.5-1.7-0.5z"/></g></svg>