<svg width="70" height="70" viewBox="0 0 70 70" fill="none" xmlns="http://www.w3.org/2000/svg">
<rect width="70" height="70" rx="12" fill="white"/>
<g clip-path="url(#clip0_429_6956)">
<path d="M50.4763 28.1905C50.4763 27.65 50.1602 27.1809 49.7115 26.9566C50.0684 26.7119 50.3131 26.2938 50.3131 25.8145C50.3131 25.1109 49.7931 24.5399 49.1201 24.4481C49.3852 24.1932 49.5585 23.8363 49.5585 23.4386C49.5585 22.7655 49.0691 22.2047 48.4368 22.0823C48.6 21.858 48.702 21.5725 48.702 21.2666C48.702 20.5018 48.0799 19.8797 47.3152 19.8797C47.2744 19.8797 47.2336 19.8797 47.1928 19.8899C47.2948 19.6962 47.3559 19.4719 47.3559 19.2373C47.3559 18.4929 46.7645 17.8811 46.0303 17.8607C46.0405 17.7791 46.0507 17.7077 46.0507 17.6262C46.0507 16.8614 45.4287 16.2393 44.6639 16.2393C44.5313 16.2393 44.409 16.2597 44.2866 16.2903C44.2254 15.5867 43.634 15.0361 42.91 15.0361C42.7162 15.0361 42.5327 15.0769 42.3695 15.1482C42.1962 14.5874 41.6659 14.1795 41.0541 14.1795C40.7584 14.1795 40.4932 14.2713 40.2689 14.4242C40.1261 13.8124 39.5755 13.3535 38.9229 13.3535C38.4844 13.3535 38.0867 13.5575 37.8318 13.8838C37.6278 13.3739 37.1282 13.0068 36.5469 13.0068C36.1288 13.0068 35.7515 13.1904 35.4966 13.4861C35.2417 13.2108 34.8848 13.0374 34.4769 13.0374C33.9976 13.0374 33.5693 13.2822 33.3246 13.6595C33.0799 13.4249 32.7434 13.2822 32.3763 13.2822C31.7746 13.2822 31.2546 13.6697 31.071 14.2101C30.8365 14.0368 30.551 13.9348 30.2451 13.9348C29.6842 13.9348 29.1948 14.2713 28.9806 14.7608C28.848 14.72 28.7053 14.6894 28.5625 14.6894C27.7977 14.6894 27.1859 15.3012 27.1757 16.066C27.0126 16.0048 26.8494 15.964 26.6658 15.964C25.9113 15.964 25.2994 16.5657 25.2892 17.3101C24.555 17.3508 23.984 17.9525 23.984 18.6867C23.984 18.7886 23.9942 18.8906 24.0146 18.9926C23.2804 19.0334 22.7093 19.635 22.7093 20.3692C22.7093 20.6343 22.7807 20.8791 22.9133 21.083H22.8929C22.1281 21.083 21.5061 21.705 21.5061 22.4698C21.5061 22.8369 21.6488 23.1632 21.8834 23.4182C21.3123 23.5813 20.884 24.1116 20.884 24.7438C20.884 25.1619 21.0778 25.5494 21.3735 25.7941C20.9044 26.0185 20.5781 26.4875 20.5781 27.0484C20.5781 27.6092 20.9146 28.0885 21.3939 28.3026C21.0472 28.5576 20.8229 28.9552 20.8229 29.4243C20.8229 30.0056 21.1798 30.495 21.6794 30.699C21.5061 30.9335 21.4041 31.2088 21.4041 31.5249C21.4041 32.2183 21.914 32.7894 22.5666 32.8914C22.3524 33.1361 22.2097 33.4624 22.2097 33.8091C22.2097 34.5637 22.8215 35.1755 23.5761 35.1959C23.4945 35.3795 23.4435 35.5732 23.4435 35.7874C23.4435 36.5522 24.0656 37.1742 24.8304 37.1742C24.8915 37.1742 24.9425 37.1742 24.9935 37.164C24.9731 37.266 24.9527 37.3781 24.9527 37.4801C24.9527 38.2449 25.5747 38.8669 26.3395 38.8669C26.6964 38.8669 27.0227 38.7344 27.2675 38.51C29.5313 40.2129 32.3457 41.2123 35.3946 41.2123C37.9133 41.2123 40.2791 40.5189 42.2981 39.3258C42.5225 39.4787 42.7876 39.5603 43.0731 39.5603C43.685 39.5603 44.1948 39.1626 44.3784 38.6222C44.4905 38.6528 44.6027 38.663 44.7251 38.663C45.4899 38.663 46.1119 38.0409 46.1119 37.2762C46.1119 37.215 46.1119 37.164 46.1017 37.1028C46.2037 37.1232 46.3056 37.1436 46.4178 37.1436C47.1826 37.1436 47.8046 36.5216 47.8046 35.7568C47.8046 35.5324 47.7536 35.3183 47.6517 35.1347C48.3553 35.0634 48.9059 34.4821 48.9059 33.7581C48.9059 33.5848 48.8753 33.4318 48.8141 33.2789C49.3138 33.0647 49.6605 32.5752 49.6605 32.0042C49.6605 31.7085 49.5687 31.4332 49.4056 31.2088C49.8645 30.9845 50.1704 30.5154 50.1704 29.975C50.1704 29.72 50.099 29.4855 49.9766 29.2714C50.2621 29.0368 50.4763 28.6391 50.4763 28.1905Z" fill="#040404"/>
<path d="M27.3593 30.1485L26.3599 29.8834C25.2892 29.7304 24.606 30.5564 24.8406 31.9432C25.0445 33.1974 25.4422 34.2682 25.9826 35.7467C26.5945 37.4191 27.8283 37.0826 27.8283 37.0826L27.3593 30.1485Z" fill="url(#paint0_linear_429_6956)"/>
<path d="M43.012 30.1485L44.0114 29.8834C45.0719 29.7304 45.7653 30.5564 45.5307 31.9432C45.3268 33.1974 44.9291 34.2682 44.3887 35.7467C43.7768 37.4191 42.543 37.0826 42.543 37.0826L43.012 30.1485Z" fill="url(#paint1_linear_429_6956)"/>
<path d="M59.2969 67.1237L57.6756 57.1713C57.1045 54.3365 54.7694 52.0931 51.7918 51.5424L42.2574 48.5547C41.3091 48.4119 40.5647 47.433 40.5545 46.4133L40.3199 41.7021H29.9902L29.7455 46.607C29.6945 47.5655 28.9807 48.3609 28.0323 48.5139L18.5285 51.8484C15.551 52.399 13.2158 54.6322 12.6448 57.4772L10.9316 67.0626C16.999 67.0524 53.199 67.1237 59.2969 67.1237Z" fill="url(#paint2_linear_429_6956)"/>
<path d="M35.2214 22.6836L34.1405 22.6938C30.1942 22.7142 27.0024 25.9161 27.0024 29.8624V38.3771C27.0024 39.4376 27.4103 40.4573 28.1445 41.2221L30.6734 43.853C31.4076 44.6076 32.4171 45.0461 33.4675 45.0461H37.0467C38.097 45.0461 39.1167 44.6178 39.8407 43.853L42.3696 41.2221C43.1038 40.4573 43.5117 39.4376 43.5117 38.3771V29.8624C43.5117 25.9161 40.32 22.704 36.3737 22.6938L35.2214 22.6836Z" fill="url(#paint3_linear_429_6956)"/>
<path d="M52.1589 51.6445L42.3492 48.5649C41.6864 50.1455 39.9427 52.4093 35.4457 52.4093C30.7652 52.4093 29.2764 49.8294 28.8074 48.208C28.5728 48.361 28.3179 48.4629 28.0324 48.5139L18.0187 51.7056C15.0412 52.2563 12.706 54.4895 12.135 57.3345L10.9419 67.0728H41.0644C49.5077 67.0728 56.7477 67.1238 59.2256 67.1238L58.0427 57.2733C57.4717 54.4283 55.1365 52.1951 52.1589 51.6445Z" fill="white"/>
<path d="M59.9131 70.0361L59.0158 57.1163C58.4447 54.2815 56.1096 52.0381 53.132 51.4874L41.3032 48C40.8749 48.5506 37.0102 77.5922 37 77.7044" fill="url(#paint4_linear_429_6956)"/>
<path d="M31.9278 78.0753C31.9278 78.0753 29.6436 47.6673 29.3581 47.708C29.3581 47.708 20.7924 50.7468 17.8556 51.5014C14.929 52.256 12.5429 54.2954 11.9821 57.1303L10.687 69.53" fill="url(#paint5_linear_429_6956)"/>
<path d="M36.5474 44.0578H34.0491C33.835 44.0578 33.6922 43.8232 33.8044 43.6295L34.1715 42.9973C34.2225 42.9055 34.3142 42.8545 34.4162 42.8545H36.1905C36.2925 42.8545 36.3843 42.9055 36.4352 42.9973L36.8023 43.6295C36.9043 43.813 36.7717 44.0578 36.5474 44.0578Z" fill="#231F20"/>
<path d="M29.4296 47.667C29.4296 47.667 29.7151 50.5426 29.7967 51.4909C29.9802 53.4998 30.4799 59.5263 30.4799 59.5263L29.1135 54.4787L26.6865 57.3135L27.4819 48.3808L29.4296 47.667Z" fill="url(#paint6_linear_429_6956)"/>
<path d="M40.8806 47.5547C40.8806 47.5547 40.3912 49.0945 40.1566 51.2359C39.9221 53.3263 38.9941 59.5772 38.9941 59.5772L40.5849 54.8559L42.8793 57.5479L42.8997 48.1869L40.8806 47.5547Z" fill="url(#paint7_linear_429_6956)"/>
<path d="M43.0021 28.5987C42.1761 28.354 39.0761 27.6912 36.5472 29.4247C36.5472 29.4247 35.7824 29.8734 35.3949 29.8734C34.9973 29.8734 34.2631 29.4247 34.2631 29.4247C31.8157 27.6912 28.6852 28.354 27.849 28.5987C27.5227 28.7007 26.9517 28.8128 26.9517 28.8128L27.0638 29.8734C27.0638 29.8734 27.3086 29.9549 27.4207 29.9753L27.4105 30.0263C27.4003 30.1181 27.4003 32.4125 28.5832 33.7279C29.1135 34.3091 29.8171 34.615 30.6736 34.615C32.4378 34.615 33.3147 33.6157 33.743 32.7694C34.2019 31.872 34.365 30.9746 34.365 30.9441H34.569C34.7015 30.5566 36.0374 30.5566 36.1495 30.9441H36.3535C36.3535 30.9848 36.4759 31.872 36.8939 32.7694C37.2814 33.6055 38.1176 34.615 39.8817 34.615C40.7485 34.615 41.4623 34.3193 42.0129 33.7279C43.257 32.4125 43.3692 30.1283 43.359 30.0263V29.9753C43.5425 29.9345 44.032 29.7102 44.032 29.7102L44.2053 28.8638C44.2053 28.874 43.4507 28.7313 43.0021 28.5987ZM34.1509 30.9441C34.1509 30.9543 33.9877 31.8108 33.5493 32.6674C32.968 33.7993 32.0095 34.3703 30.694 34.3703C29.8987 34.3703 29.2562 34.095 28.7668 33.5647C27.6553 32.3309 27.6553 30.0365 27.6655 30.0161C27.7063 29.8428 28.0428 28.6803 30.5003 28.6803C34.2223 28.6803 34.1509 30.8829 34.1509 30.9441ZM41.8498 33.5647C41.3399 34.095 40.6873 34.3703 39.8919 34.3703C38.5765 34.3703 37.6383 33.7993 37.1183 32.6674C36.7206 31.8108 36.5982 30.9543 36.5982 30.9441C36.5982 30.8829 36.6288 28.6803 40.361 28.6803C42.8083 28.6803 43.0938 29.853 43.1244 30.0161C43.1244 30.0467 43.0225 32.3309 41.8498 33.5647Z" fill="url(#paint8_linear_429_6956)"/>
<path d="M35.5682 17.4023C27.2473 17.4023 26.0032 23.7144 26.0542 25.3664C26.1052 27.0183 27.1963 34.5132 27.1963 34.5132C27.1963 34.5132 26.9719 32.6268 27.2269 30.832C27.4716 29.1291 28.1854 27.3548 28.8992 26.1107C30.3778 23.5513 32.7945 25.3154 33.9876 26.2229C35.1807 27.1305 35.558 26.9061 35.558 26.9061C35.558 26.9061 35.9353 27.1305 37.1283 26.2229C38.3214 25.3154 40.7381 23.5513 42.2167 26.1107C43.0223 27.4976 43.6647 29.7409 43.5628 31.5051C43.4812 32.9123 43.267 34.1155 43.267 34.1155C43.267 34.1155 45.021 27.0183 45.0617 25.3664C45.1229 23.7144 43.8891 17.4023 35.5682 17.4023Z" fill="#040404"/>
</g>
<defs>
<linearGradient id="paint0_linear_429_6956" x1="25.6934" y1="33.5521" x2="24.3508" y2="33.6209" gradientUnits="userSpaceOnUse">
<stop stop-color="#FEC797"/>
<stop offset="1" stop-color="#FFD9A9"/>
</linearGradient>
<linearGradient id="paint1_linear_429_6956" x1="44.0792" y1="33.6366" x2="46.0069" y2="34.1529" gradientUnits="userSpaceOnUse">
<stop stop-color="#FEC797"/>
<stop offset="1" stop-color="#FFD9A9"/>
</linearGradient>
<linearGradient id="paint2_linear_429_6956" x1="35.1185" y1="40.5352" x2="35.1185" y2="54.3907" gradientUnits="userSpaceOnUse">
<stop stop-color="#FEC797"/>
<stop offset="1" stop-color="#FFD9A9"/>
</linearGradient>
<linearGradient id="paint3_linear_429_6956" x1="35.2536" y1="27.9349" x2="35.2536" y2="38.2645" gradientUnits="userSpaceOnUse">
<stop stop-color="#FEC797"/>
<stop offset="1" stop-color="#FFD9A9"/>
</linearGradient>
<linearGradient id="paint4_linear_429_6956" x1="48.455" y1="39.6998" x2="48.455" y2="71.3057" gradientUnits="userSpaceOnUse">
<stop offset="0.005" stop-color="#3EDD57"/>
<stop offset="1" stop-color="#35DFB6"/>
</linearGradient>
<linearGradient id="paint5_linear_429_6956" x1="21.306" y1="39.2226" x2="21.306" y2="71.5338" gradientUnits="userSpaceOnUse">
<stop offset="0.005" stop-color="#3EDD57"/>
<stop offset="1" stop-color="#35DFB6"/>
</linearGradient>
<linearGradient id="paint6_linear_429_6956" x1="28.583" y1="44.3532" x2="28.583" y2="56.9717" gradientUnits="userSpaceOnUse">
<stop offset="0.005" stop-color="#00B01C"/>
<stop offset="1" stop-color="#1DA308"/>
</linearGradient>
<linearGradient id="paint7_linear_429_6956" x1="40.9466" y1="44.1953" x2="40.9466" y2="56.9874" gradientUnits="userSpaceOnUse">
<stop offset="0.005" stop-color="#00B01C"/>
<stop offset="1" stop-color="#1DA308"/>
</linearGradient>
<linearGradient id="paint8_linear_429_6956" x1="35.5821" y1="27.426" x2="35.5821" y2="40.173" gradientUnits="userSpaceOnUse">
<stop offset="0.005" stop-color="#000014"/>
<stop offset="1" stop-color="#0B50A5"/>
</linearGradient>
<clipPath id="clip0_429_6956">
<rect width="49.7746" height="57" fill="white" transform="translate(10 13)"/>
</clipPath>
</defs>
</svg>
