<svg width="128" height="37" viewBox="0 0 128 37" fill="none" xmlns="http://www.w3.org/2000/svg">
<path d="M75.06 26.28C73.1467 26.28 71.42 25.8717 69.88 25.055C68.3633 24.2383 67.1617 23.0717 66.275 21.555C65.4117 20.0383 64.98 18.265 64.98 16.235C64.98 14.2283 65.4233 12.4667 66.31 10.95C67.1967 9.41 68.41 8.23167 69.95 7.415C71.49 6.59833 73.2167 6.19 75.13 6.19C77.0433 6.19 78.77 6.59833 80.31 7.415C81.85 8.23167 83.0633 9.41 83.95 10.95C84.8367 12.4667 85.28 14.2283 85.28 16.235C85.28 18.2417 84.825 20.015 83.915 21.555C83.0283 23.0717 81.8033 24.2383 80.24 25.055C78.7 25.8717 76.9733 26.28 75.06 26.28ZM75.06 21.1C76.2033 21.1 77.1717 20.68 77.965 19.84C78.7817 19 79.19 17.7983 79.19 16.235C79.19 14.6717 78.7933 13.47 78 12.63C77.23 11.79 76.2733 11.37 75.13 11.37C73.9633 11.37 72.995 11.79 72.225 12.63C71.455 13.4467 71.07 14.6483 71.07 16.235C71.07 17.7983 71.4433 19 72.19 19.84C72.96 20.68 73.9167 21.1 75.06 21.1ZM107.74 6.47V26H101.755V23.34C101.148 24.2033 100.32 24.9033 99.2702 25.44C98.2435 25.9533 97.1002 26.21 95.8402 26.21C94.3468 26.21 93.0285 25.8833 91.8852 25.23C90.7418 24.5533 89.8552 23.585 89.2252 22.325C88.5952 21.065 88.2802 19.5833 88.2802 17.88V6.47H94.2302V17.075C94.2302 18.3817 94.5685 19.3967 95.2452 20.12C95.9218 20.8433 96.8318 21.205 97.9752 21.205C99.1418 21.205 100.063 20.8433 100.74 20.12C101.417 19.3967 101.755 18.3817 101.755 17.075V6.47H107.74Z" fill="#23D288"/>
<g filter="url(#filter0_d_507_7600)">
<path d="M19.895 9.34C19.895 10.7633 19.5683 12.07 18.915 13.26C18.2617 14.4267 17.2583 15.3717 15.905 16.095C14.5517 16.8183 12.8717 17.18 10.865 17.18H7.155V26H1.17V1.43H10.865C12.825 1.43 14.4817 1.76833 15.835 2.445C17.1883 3.12166 18.2033 4.055 18.88 5.245C19.5567 6.435 19.895 7.8 19.895 9.34ZM10.41 12.42C11.5533 12.42 12.405 12.1517 12.965 11.615C13.525 11.0783 13.805 10.32 13.805 9.34C13.805 8.36 13.525 7.60167 12.965 7.065C12.405 6.52833 11.5533 6.26 10.41 6.26H7.155V12.42H10.41ZM20.4208 16.2C20.4208 14.1933 20.7942 12.4317 21.5408 10.915C22.3108 9.39833 23.3492 8.23167 24.6558 7.415C25.9625 6.59833 27.4208 6.19 29.0308 6.19C30.4075 6.19 31.6092 6.47 32.6358 7.03C33.6858 7.59 34.4908 8.325 35.0508 9.235V6.47H41.0358V26H35.0508V23.235C34.4675 24.145 33.6508 24.88 32.6008 25.44C31.5742 26 30.3725 26.28 28.9958 26.28C27.4092 26.28 25.9625 25.8717 24.6558 25.055C23.3492 24.215 22.3108 23.0367 21.5408 21.52C20.7942 19.98 20.4208 18.2067 20.4208 16.2ZM35.0508 16.235C35.0508 14.7417 34.6308 13.5633 33.7908 12.7C32.9742 11.8367 31.9708 11.405 30.7808 11.405C29.5908 11.405 28.5758 11.8367 27.7358 12.7C26.9192 13.54 26.5108 14.7067 26.5108 16.2C26.5108 17.6933 26.9192 18.8833 27.7358 19.77C28.5758 20.6333 29.5908 21.065 30.7808 21.065C31.9708 21.065 32.9742 20.6333 33.7908 19.77C34.6308 18.9067 35.0508 17.7283 35.0508 16.235ZM64.6157 6.47L52.3657 35.275H45.9257L50.4057 25.335L42.4607 6.47H49.1457L53.6607 18.685L58.1407 6.47H64.6157Z" fill="#614BFF"/>
</g>
<defs>
<filter id="filter0_d_507_7600" x="0.669922" y="0.429688" width="65.4458" height="35.8457" filterUnits="userSpaceOnUse" color-interpolation-filters="sRGB">
<feFlood flood-opacity="0" result="BackgroundImageFix"/>
<feColorMatrix in="SourceAlpha" type="matrix" values="0 0 0 0 0 0 0 0 0 0 0 0 0 0 0 0 0 0 127 0" result="hardAlpha"/>
<feOffset dx="0.5"/>
<feGaussianBlur stdDeviation="0.5"/>
<feColorMatrix type="matrix" values="0 0 0 0 0.0313726 0 0 0 0 0.0588235 0 0 0 0 0.0941176 0 0 0 0.3 0"/>
<feBlend mode="normal" in2="BackgroundImageFix" result="effect1_dropShadow_507_7600"/>
<feBlend mode="normal" in="SourceGraphic" in2="effect1_dropShadow_507_7600" result="shape"/>
</filter>
</defs>
</svg>
