<svg width="318" height="162" viewBox="0 0 318 162" fill="none" xmlns="http://www.w3.org/2000/svg">
<g clip-path="url(#clip0_6090_11422)">
<path d="M0 0H318V142C318 153.046 309.046 162 298 162H20C8.95431 162 0 153.046 0 142V0Z" fill="#614BFF"/>
<rect opacity="0.3" y="125" width="319" height="38" fill="#19163D"/>
<path opacity="0.05" d="M328.857 -13.4541C325.576 -11.1092 312.706 -11.0663 308.583 -9.73771C300.711 -7.19683 293.503 -2.92938 287.936 2.71565C274.877 15.9527 268.259 39.341 245.463 41.5145C225.1 43.4554 211.085 27.7264 192.486 23.6427C153.931 15.1751 121.31 36.2736 90.2139 54.072C52.3238 75.7643 8.3584 88.3156 -33.1525 65.2641C-63.8279 48.2249 -69.1304 19.6814 -69.1304 -10.7418L299.592 -11.3786C302.813 -11.3786 307.444 -12.75 310.563 -13.2888C313.974 -13.8766 317.134 -14.5684 320.592 -14.5623C323.684 -14.5562 326.701 -15.0093 329.522 -14.1888C329.393 -13.9194 329.169 -13.6745 328.857 -13.4541Z" fill="white"/>
</g>
<defs>
<clipPath id="clip0_6090_11422">
<path d="M0 30C0 13.4315 13.4315 0 30 0H288C304.569 0 318 13.4315 318 30V132C318 148.569 304.569 162 288 162H30C13.4315 162 0 148.569 0 132V30Z" fill="white"/>
</clipPath>
</defs>
</svg>
