<svg width="24" height="24" viewBox="0 0 24 24" fill="none" xmlns="http://www.w3.org/2000/svg">
<path d="M3.43309 17.3253L3.07909 19.8003C3.03409 20.1123 3.13909 20.4263 3.36109 20.6493C3.58309 20.8723 3.89809 20.9763 4.21009 20.9313L6.68509 20.5773C7.06009 20.5243 8.00009 18.0003 8.00009 18.0003C8.00009 18.0003 8.47209 18.4053 8.66509 18.4663C9.07709 18.5963 9.47809 18.1923 9.61309 17.7823L10.0001 16.0103C10.0001 16.0103 10.5771 16.3023 10.7861 16.3453C11.0521 16.4003 11.3101 16.2363 11.4931 16.0523C11.6001 15.9453 11.6841 15.8133 11.7341 15.6613L12.0001 14.0103C12.0001 14.0103 12.6751 14.1973 12.9061 14.2243C13.1691 14.2543 13.4251 14.1203 13.6131 13.9313L14.7511 12.7943C16.6521 13.4063 18.8241 12.9643 20.3321 11.4563C22.4761 9.31131 22.4761 5.82231 20.3321 3.67831C18.1871 1.53431 14.6981 1.53431 12.5541 3.67831C11.0461 5.18631 10.6031 7.35731 11.2161 9.25931L3.71509 16.7593C3.56209 16.9123 3.46309 17.1103 3.43309 17.3253ZM18.5041 5.50631C19.6401 6.64431 19.6401 8.48931 18.5041 9.62831L14.3821 5.50631C15.5211 4.37031 17.3661 4.37031 18.5041 5.50631Z" fill="#F9F9F9"/>
</svg>
