<svg width="61" height="61" viewBox="0 0 61 61" fill="none" xmlns="http://www.w3.org/2000/svg">
<path fill-rule="evenodd" clip-rule="evenodd" d="M0.0935173 30.5683C0.0935173 28.6284 0.273746 26.7355 0.646214 24.7817L0.791321 24.0303H0.81073C2.47529 16.6844 6.84233 10.0465 12.8813 5.72564C13.2972 5.42711 13.873 5.52415 14.1716 5.93914C14.4683 6.35412 14.374 6.93177 13.959 7.22846C8.09561 11.4245 3.90787 17.9515 2.46512 25.1357L2.42723 25.3233C2.10005 27.0932 1.942 28.8104 1.942 30.5683C1.942 31.0785 1.52887 31.4926 1.01776 31.4926C0.506653 31.4926 0.0935173 31.0785 0.0935173 30.5683ZM53.5204 13.3368C49.2569 7.62408 43.046 3.73024 36.0291 2.37253C34.2518 2.02409 32.419 1.84848 30.5835 1.84848C26.2081 1.84848 21.989 2.82911 18.0397 4.7617C17.5794 4.98629 17.0258 4.79774 16.803 4.33839C16.5794 3.87997 16.7688 3.32635 17.2273 3.10176C21.4307 1.04347 25.9235 0 30.5835 0C32.5383 0 34.4903 0.187621 36.3822 0.558242C43.8501 2.00376 50.4621 6.14898 55.002 12.2314C55.3079 12.6409 55.2229 13.2194 54.8144 13.5244C54.648 13.6483 54.4548 13.7084 54.2626 13.7084C53.9798 13.7084 53.7016 13.5799 53.5204 13.3368ZM59.1296 38.2859C58.6333 38.1666 58.3274 37.6676 58.4457 37.1712C58.4642 37.0945 58.4827 37.0298 58.5002 36.9697H58.4984L58.6925 35.8671C59.9272 29.6202 58.9559 23.0359 55.9974 17.3259C55.7626 16.873 55.892 16.3148 56.3449 16.08C56.7987 15.8453 57.2608 16.0227 57.4956 16.4756C60.6306 22.5248 62.0179 29.4991 60.1694 36.125V36.1296C60.1694 36.8293 60.2212 37.0862 60.1213 37.3764C60.1001 37.4393 60.2664 37.5067 60.2433 37.6038C60.1417 38.0262 59.7627 38.3127 59.345 38.3127C59.2738 38.3108 59.2017 38.3016 59.1296 38.2859ZM37.262 59.7125C29.8736 49.8657 27.6083 41.0844 29.6823 30.3494C29.7793 29.8484 30.2664 29.5203 30.7655 29.6174C31.2664 29.7144 31.5936 30.1987 31.4975 30.7006C29.503 41.0059 31.6028 49.0893 38.7398 58.6025C39.0467 59.011 38.9635 59.5905 38.555 59.8955C38.3886 60.0203 38.1936 60.0804 38.0014 60.0804C37.7204 60.0832 37.4431 59.9556 37.262 59.7125ZM33.2167 60.4391C25.9966 50.2327 23.8542 41.0235 26.0539 29.6488C26.2886 28.4344 26.9827 27.3845 28.0068 26.6922C29.0281 26.0018 30.2582 25.7513 31.4681 25.987C32.6797 26.2218 33.7278 26.914 34.4192 27.9381C35.1096 28.9612 35.361 30.1932 35.1262 31.4049C34.3027 35.6647 34.2999 39.5133 35.117 43.1705C35.2279 43.6687 34.9146 44.1622 34.4164 44.2731C33.9155 44.385 33.4238 44.0707 33.3129 43.5726C32.4394 39.6639 32.4385 35.5668 33.311 31.0518C33.4515 30.3235 33.3008 29.5841 32.8868 28.9695C32.4727 28.3549 31.8442 27.9399 31.1159 27.7985C30.3885 27.658 29.6529 27.8078 29.041 28.2209C28.4255 28.6359 28.0095 29.2662 27.8663 29.9964C25.772 40.8285 27.8229 49.6143 34.7242 59.3688C35.019 59.7856 34.9201 60.3614 34.5033 60.6581C34.3406 60.7727 34.1548 60.8282 33.97 60.8282C33.6826 60.8282 33.397 60.6932 33.2167 60.4391ZM40.9877 58.4981C38.2141 54.9397 36.2085 51.6393 34.8572 48.4053C34.6604 47.934 34.8831 47.3924 35.3545 47.1955C35.8277 46.9968 36.3674 47.2195 36.5634 47.6918C37.8499 50.7714 39.7742 53.9342 42.4453 57.3603C42.7595 57.7633 42.6874 58.3428 42.2844 58.6561C42.1153 58.7883 41.9157 58.852 41.717 58.852C41.4415 58.8539 41.1698 58.7319 40.9877 58.4981ZM44.4074 56.8602C37.7787 48.5855 35.5226 41.8829 36.6225 33.7274C36.6909 33.22 37.1595 32.8715 37.6623 32.9353C38.1678 33.0037 38.5227 33.4686 38.4543 33.9751C37.4155 41.6731 39.4895 47.7666 45.8492 55.7059C46.169 56.1051 46.1043 56.6874 45.7059 57.0044C45.5359 57.1412 45.3316 57.2078 45.1283 57.2078C44.8584 57.2068 44.5895 57.0904 44.4074 56.8602ZM22.4751 37.8941C21.964 37.8941 21.5573 37.493 21.5647 36.9847C21.6045 34.3829 21.8919 31.6952 22.4261 28.9447C23.1822 25.037 26.612 22.2014 30.5853 22.2014C31.1168 22.2014 31.651 22.2532 32.1723 22.3539C34.3544 22.7772 36.2408 24.0249 37.4848 25.867C38.0819 26.7524 38.4987 27.7302 38.7233 28.7737C38.8305 29.2728 38.5135 29.7645 38.0144 29.8717C37.5135 29.9761 37.0236 29.661 36.9164 29.1628C36.7417 28.3504 36.4164 27.5879 35.9524 26.8993C34.9857 25.4668 33.518 24.4945 31.8201 24.1654C31.4144 24.0869 30.9985 24.0434 30.5853 24.0434C27.4965 24.0434 24.8282 26.2431 24.2404 29.282C23.7293 31.9272 23.4511 34.5188 23.4132 37.0124C23.4058 37.518 22.9945 37.8951 22.489 37.8951C22.4853 37.8941 22.4797 37.8941 22.4751 37.8941ZM28.8616 60.5793C24.8467 54.3971 22.5426 48.3322 21.8189 42.0381C21.7616 41.5307 22.1239 41.0723 22.6313 41.015C23.1406 40.9577 23.5971 41.3209 23.6544 41.8274C24.3458 47.8303 26.5566 53.6346 30.4125 59.5719C30.6907 60.0008 30.5687 60.5729 30.1408 60.8511C29.9846 60.9518 29.8099 60.9999 29.638 60.9999C29.3358 60.9999 29.0372 60.852 28.8616 60.5793ZM24.1619 60.023C18.2625 49.9127 16.5564 39.8135 18.7949 28.2401C19.452 24.8472 21.5473 21.8952 24.5409 20.1428C24.9808 19.884 25.5474 20.0319 25.8043 20.4728C26.0622 20.9136 25.9143 21.4793 25.4744 21.7371C22.9392 23.2215 21.1665 25.7197 20.6092 28.5913C18.4621 39.6989 20.0962 49.3905 25.7572 59.0913C26.0132 59.5331 25.8644 60.0987 25.4254 60.3548C25.2794 60.4416 25.1185 60.4814 24.9596 60.4814C24.6435 60.4814 24.3339 60.3196 24.1619 60.023ZM47.5212 54.8355C40.8824 46.6522 38.9988 40.5874 40.57 32.4596C41.0866 29.7904 40.5339 27.0805 39.0126 24.829C37.4913 22.5766 35.1863 21.0526 32.5198 20.535C31.6085 20.3566 30.663 20.3122 29.7471 20.3853C29.2434 20.4259 28.7924 20.047 28.7517 19.5387C28.7101 19.0303 29.089 18.5839 29.5983 18.5432C30.6806 18.4554 31.7971 18.5109 32.8729 18.7198C36.0236 19.3298 38.7483 21.132 40.545 23.7929C42.3417 26.4529 42.9952 29.6554 42.3852 32.8089C40.9332 40.3202 42.7142 45.9738 48.9565 53.6682C49.2782 54.0656 49.2181 54.6479 48.8216 54.9676C48.6506 55.1063 48.4445 55.1756 48.2403 55.1756C47.9704 55.1774 47.7042 55.061 47.5212 54.8355ZM19.1276 58.5341C17.7449 55.767 16.6312 52.9138 15.8169 50.0533C15.6783 49.5625 15.962 49.0514 16.4528 48.9119C16.9445 48.7705 17.4556 49.057 17.5942 49.5477C18.3762 52.2983 19.4464 55.0424 20.7792 57.707C21.0075 58.1635 20.8235 58.719 20.367 58.9473C20.233 59.012 20.0925 59.0434 19.9538 59.0434C19.6156 59.0453 19.2902 58.8595 19.1276 58.5341ZM14.7152 45.1511C13.8039 39.5825 13.9509 33.8198 15.1662 27.5378C16.5942 20.1577 23.0778 14.8008 30.5817 14.8008C31.5863 14.8008 32.5928 14.8978 33.5725 15.0891C37.6937 15.8858 41.2567 18.2427 43.6061 21.7243C45.9565 25.2041 46.8105 29.3918 46.0128 33.5167C45.6099 35.5999 45.5017 37.3486 45.6718 39.0215C45.7235 39.5298 45.3538 39.9827 44.8464 40.0354C44.3307 40.077 43.8852 39.7174 43.8335 39.2091C43.6431 37.3514 43.7595 35.4308 44.1976 33.1646C44.9028 29.5249 44.1486 25.8298 42.0746 22.7585C40.0016 19.6873 36.8582 17.6077 33.2204 16.9044C32.3562 16.7352 31.468 16.6502 30.5826 16.6502C23.9604 16.6502 18.2403 21.3768 16.9805 27.8899C15.8077 33.9539 15.6644 39.503 16.5397 44.8534C16.6219 45.3572 16.2818 45.8322 15.7762 45.9136C15.7254 45.9228 15.6774 45.9265 15.6265 45.9265C15.182 45.9246 14.7892 45.6039 14.7152 45.1511ZM50.3428 52.4415C47.8955 49.4091 46.1939 46.7177 45.1431 44.2167C44.9453 43.7453 45.1662 43.2037 45.6375 43.0059C46.1098 42.8091 46.6496 43.029 46.8474 43.4986C47.8298 45.8378 49.4445 48.3832 51.7819 51.2807C52.1026 51.6781 52.0398 52.2604 51.6433 52.5802C51.4723 52.7169 51.2671 52.7844 51.0638 52.7844C50.793 52.7844 50.5249 52.667 50.3428 52.4415ZM52.8698 49.6799C46.8401 42.066 46.9972 38.1694 47.8281 33.867C48.72 29.2587 47.7652 24.5774 45.1395 20.6864C44.1967 19.2908 43.0645 18.0394 41.7725 16.9682C41.3796 16.6419 41.3251 16.0596 41.6514 15.6668C41.9776 15.274 42.5599 15.2204 42.9527 15.5457C44.3797 16.7288 45.6312 18.1105 46.6719 19.6522C49.574 23.9517 50.6285 29.1247 49.6433 34.2164C48.878 38.1749 48.7653 41.5188 54.319 48.531C54.6361 48.9322 54.5686 49.5126 54.1675 49.8296C53.9974 49.9645 53.7959 50.0292 53.5944 50.0292C53.3218 50.0302 53.0519 49.91 52.8698 49.6799ZM13.8168 55.7846C10.2049 46.6716 9.48122 37.4726 11.5377 26.8336C12.0645 24.1043 13.1495 21.5701 14.7605 19.3001C15.0563 18.8842 15.6321 18.7862 16.0498 19.082C16.4657 19.3778 16.5646 19.9545 16.2679 20.3713C14.8104 22.4241 13.8289 24.7171 13.3529 27.1858C11.3657 37.4624 12.0589 46.3333 15.535 55.1053C15.7226 55.5794 15.4906 56.1173 15.0156 56.3049C14.9038 56.3493 14.7901 56.3696 14.6764 56.3696C14.3085 56.3696 13.9601 56.1488 13.8168 55.7846ZM18.1395 16.8332C17.8142 16.4394 17.8706 15.8562 18.2662 15.5318C21.7339 12.6741 26.1074 11.1001 30.5835 11.1001C31.8257 11.1001 33.0688 11.2193 34.2768 11.4559C35.7556 11.7424 37.2048 12.2018 38.5829 12.8229C39.0478 13.0327 39.2557 13.5798 39.0459 14.0447C38.837 14.5096 38.2908 14.7176 37.8241 14.5078C36.5763 13.9458 35.2639 13.5299 33.9238 13.2702C32.8313 13.0567 31.7074 12.9486 30.5835 12.9486C26.5363 12.9486 22.5787 14.3728 19.4418 16.9579C19.2699 17.1003 19.0629 17.1696 18.8549 17.1696C18.5878 17.1696 18.3244 17.055 18.1395 16.8332ZM8.21221 29.9039C7.70757 29.8262 7.36098 29.354 7.43954 28.8493C7.57726 27.95 7.73068 27.0452 7.90813 26.1311C10.008 15.2777 19.5434 7.40043 30.5835 7.40043C32.0614 7.40043 33.5411 7.54277 34.9783 7.82373C41.0376 8.99752 46.2781 12.4625 49.7338 17.581C51.5767 20.3102 52.7949 23.3279 53.355 26.5489C53.4428 27.0517 53.1054 27.5304 52.6026 27.6182C52.0943 27.706 51.6211 27.3687 51.5333 26.8659C51.0185 23.9028 49.8974 21.1273 48.2023 18.6152C45.0229 13.9062 40.2021 10.7185 34.6261 9.63802C33.3026 9.38016 31.9431 9.24892 30.5835 9.24892C20.427 9.24892 11.6541 16.4968 9.72242 26.4823C9.55051 27.3742 9.40078 28.256 9.26677 29.1331C9.19745 29.5896 8.8028 29.9159 8.35454 29.9159C8.30741 29.915 8.26027 29.9113 8.21221 29.9039ZM8.38872 51.2576C6.89977 45.653 6.40345 39.9412 6.86742 33.7959C6.90623 33.2867 7.34987 32.9077 7.85728 32.9438C8.36746 32.9817 8.74918 33.4253 8.71036 33.9336C8.26117 39.8701 8.73993 45.3813 10.1744 50.7817C10.3056 51.2743 10.0108 51.7817 9.51814 51.9129C9.43866 51.9333 9.35733 51.9434 9.27969 51.9434C8.87117 51.9444 8.49778 51.6708 8.38872 51.2576ZM55.0861 46.5078C50.3576 40.2618 50.8919 37.4965 51.4575 34.5666C51.6479 33.5869 51.7699 32.5776 51.8216 31.5628C51.8466 31.0517 52.2727 30.6598 52.7912 30.6866C53.3004 30.7125 53.6932 31.1469 53.6674 31.6562C53.6119 32.756 53.4788 33.854 53.2727 34.9178C52.7459 37.6462 52.3291 39.8015 56.5602 45.3904C56.868 45.7971 56.7885 46.3775 56.3809 46.6844C56.2136 46.811 56.0177 46.872 55.8236 46.872C55.5445 46.8747 55.2681 46.7481 55.0861 46.5078ZM56.9622 42.8054C54.3688 38.9855 54.7016 37.2637 55.086 35.271C56.3532 28.7227 54.9955 22.0719 51.2643 16.5431C47.5322 11.0143 41.8721 7.272 35.3267 6.00487C32.7397 5.49838 30.0308 5.40781 27.3477 5.76087C26.8384 5.82094 26.3763 5.47066 26.3116 4.9651C26.2451 4.45861 26.6 3.99464 27.1074 3.92809C29.9855 3.54916 32.9005 3.6462 35.6788 4.19058C42.7077 5.55199 48.7873 9.57152 52.7958 15.5098C56.8033 21.4471 58.2617 28.5906 56.9003 35.6231C56.5556 37.4069 56.3282 38.5835 58.49 41.7675C58.7775 42.1899 58.6666 42.7657 58.2442 43.0522C58.0852 43.1603 57.905 43.2121 57.7257 43.2121C57.4318 43.2112 57.1416 43.0698 56.9622 42.8054ZM4.18811 44.7685C4.21769 44.7685 4.24911 44.7667 4.28331 44.7648C4.79071 44.7112 5.15949 44.2583 5.10958 43.75C4.53101 38.0742 4.85542 32.197 6.09482 25.7781C7.80652 16.9386 14.1847 9.67687 22.7404 6.82558C23.2238 6.66384 23.4863 6.14071 23.3246 5.65641C23.1628 5.17303 22.6434 4.90962 22.1554 5.07229C12.9693 8.13338 6.11793 15.934 4.28053 25.4278C3.00415 32.0269 2.67327 38.0816 3.26941 43.9385C3.31562 44.4145 3.7186 44.7685 4.18811 44.7685Z" fill="#23D288"/>
</svg>
