<svg width="167" height="160" viewBox="0 0 167 160" fill="none" xmlns="http://www.w3.org/2000/svg">
<path d="M1.90428 20.298C2.95595 20.298 3.80857 19.4454 3.80857 18.3937V7.62113C3.80857 5.51891 5.51887 3.8086 7.62119 3.8086H18.3446C19.3963 3.8086 20.2489 2.95598 20.2489 1.9043C20.2489 0.852618 19.3963 0 18.3446 0H7.62119C3.41882 0 0 3.41885 0 7.62113V18.3936C0 19.4454 0.852611 20.298 1.90428 20.298Z" fill="#614BFF"/>
<path d="M18.3446 155.454H7.62119C5.51887 155.454 3.80857 153.744 3.80857 151.641V140.904C3.80857 139.853 2.95595 139 1.90428 139C0.852611 139 0 139.853 0 140.904V151.641C0 155.844 3.41882 159.262 7.62119 159.262H18.3446C19.3963 159.262 20.2489 158.41 20.2489 157.358C20.2489 156.307 19.3963 155.454 18.3446 155.454Z" fill="#614BFF"/>
<path d="M164.337 139C163.285 139 162.433 139.853 162.433 140.904V151.641C162.433 153.744 160.722 155.454 158.62 155.454H147.904C146.853 155.454 146 156.307 146 157.358C146 158.41 146.853 159.262 147.904 159.262H158.62C162.822 159.262 166.241 155.844 166.241 151.641V140.904C166.241 139.852 165.389 139 164.337 139Z" fill="#614BFF"/>
<path d="M158.62 0H147.904C146.853 0 146 0.852618 146 1.9043C146 2.95598 146.853 3.8086 147.904 3.8086H158.62C160.722 3.8086 162.433 5.51891 162.433 7.62113V18.3936C162.433 19.4453 163.285 20.2979 164.337 20.2979C165.389 20.2979 166.241 19.4453 166.241 18.3936V7.62113C166.241 3.41885 162.822 0 158.62 0Z" fill="#614BFF"/>
</svg>
