<svg width="122" height="122" viewBox="0 0 122 122" fill="none" xmlns="http://www.w3.org/2000/svg">
<path fill-rule="evenodd" clip-rule="evenodd" d="M0.187035 61.1367C0.187035 57.2567 0.547493 53.471 1.29243 49.5633L1.58264 48.0605H1.62146C4.95058 33.3688 13.6847 20.0929 25.7627 11.4513C26.5945 10.8542 27.7461 11.0483 28.3432 11.8783C28.9365 12.7082 28.748 13.8635 27.918 14.4569C16.1912 22.849 7.81573 35.903 4.93025 50.2713L4.85446 50.6465C4.2001 54.1864 3.884 57.6209 3.884 61.1367C3.884 62.1571 3.05773 62.9852 2.03552 62.9852C1.01331 62.9852 0.187035 62.1571 0.187035 61.1367ZM107.041 26.6736C98.5138 15.2482 86.0919 7.46048 72.0583 4.74506C68.5036 4.04818 64.8381 3.69697 61.167 3.69697C52.4163 3.69697 43.9779 5.65821 36.0793 9.52339C35.1588 9.97258 34.0516 9.59548 33.6061 8.67679C33.1587 7.75994 33.5377 6.6527 34.4545 6.20352C42.8614 2.08694 51.8469 0 61.167 0C65.0765 0 68.9805 0.375242 72.7644 1.11648C87.7001 4.00752 100.924 12.298 110.004 24.4628C110.616 25.2817 110.446 26.4389 109.629 27.0489C109.296 27.2966 108.91 27.4167 108.525 27.4167C107.96 27.4167 107.403 27.1598 107.041 26.6736ZM118.259 76.5717C117.267 76.3333 116.655 75.3351 116.891 74.3425C116.928 74.189 116.965 74.0596 117 73.9395H116.997L117.385 71.7343C119.854 59.2403 117.912 46.0717 111.995 34.6518C111.525 33.746 111.784 32.6296 112.69 32.16C113.597 31.6905 114.522 32.0454 114.991 32.9512C121.261 45.0495 124.036 58.9982 120.339 72.25V72.2592C120.339 73.6585 120.442 74.1724 120.243 74.7528C120.2 74.8785 120.533 75.0135 120.487 75.2076C120.283 76.0523 119.525 76.6254 118.69 76.6254C118.548 76.6217 118.403 76.6032 118.259 76.5717ZM74.524 119.425C59.7472 99.7313 55.2165 82.1689 59.3645 60.6987C59.5586 59.6968 60.5328 59.0406 61.531 59.2347C62.5329 59.4288 63.1872 60.3974 62.995 61.4011C59.0059 82.0117 63.2057 98.1786 77.4797 117.205C78.0934 118.022 77.927 119.181 77.11 119.791C76.7773 120.041 76.3872 120.161 76.0028 120.161C75.4408 120.166 74.8863 119.911 74.524 119.425ZM66.4335 120.878C51.9931 100.465 47.7083 82.047 52.1077 59.2977C52.5772 56.8688 53.9654 54.7689 56.0136 53.3844C58.0561 52.0036 60.5165 51.5026 62.9361 51.974C65.3595 52.4435 67.4557 53.828 68.8383 55.8761C70.2192 57.9224 70.722 60.3864 70.2524 62.8098C68.6054 71.3295 68.5999 79.0266 70.2339 86.341C70.4558 87.3374 69.8291 88.3244 68.8328 88.5463C67.8309 88.7699 66.8475 88.1414 66.6257 87.1451C64.8789 79.3279 64.877 71.1335 66.622 62.1037C66.903 60.6471 66.6017 59.1683 65.7736 57.9391C64.9454 56.7098 63.6885 55.8798 62.2319 55.597C60.7771 55.3161 59.3057 55.6155 58.082 56.4418C56.8509 57.2718 56.0191 58.5324 55.7326 59.9927C51.5439 81.657 55.6457 99.2287 69.4483 118.738C70.038 119.571 69.8402 120.723 69.0066 121.316C68.6812 121.545 68.3097 121.656 67.94 121.656C67.3651 121.656 66.7939 121.386 66.4335 120.878ZM81.9755 116.996C76.4282 109.879 72.417 103.279 69.7145 96.8107C69.3207 95.8679 69.7662 94.7847 70.709 94.391C71.6554 93.9936 72.7349 94.4391 73.1268 95.3836C75.6999 101.543 79.5484 107.868 84.8905 114.721C85.519 115.527 85.3748 116.686 84.5689 117.312C84.2306 117.577 83.8313 117.704 83.4339 117.704C82.8831 117.708 82.3396 117.464 81.9755 116.996ZM88.8148 113.72C75.5574 97.171 71.0453 83.7658 73.245 67.4548C73.3818 66.4399 74.3189 65.7431 75.3245 65.8706C76.3356 66.0074 77.0455 66.9372 76.9087 67.9502C74.831 83.3462 78.979 95.5332 91.6984 111.412C92.338 112.21 92.2086 113.375 91.4119 114.009C91.0718 114.282 90.6632 114.416 90.2566 114.416C89.7168 114.414 89.1789 114.181 88.8148 113.72ZM44.9502 75.7883C43.928 75.7883 43.1147 74.986 43.1295 73.9693C43.209 68.7659 43.7838 63.3905 44.8523 57.8894C46.3643 50.074 53.2241 44.4028 61.1707 44.4028C62.2336 44.4028 63.302 44.5063 64.3445 44.7078C68.7088 45.5544 72.4816 48.0499 74.9696 51.7339C76.1638 53.5048 76.9974 55.4605 77.4466 57.5474C77.661 58.5456 77.027 59.529 76.0288 59.7434C75.0269 59.9523 74.0472 59.322 73.8328 58.3256C73.4835 56.7008 72.8328 55.1758 71.9048 53.7987C69.9713 50.9335 67.0359 48.9889 63.6403 48.3309C62.8288 48.1737 61.997 48.0869 61.1707 48.0869C54.9931 48.0869 49.6565 52.4863 48.4808 58.5641C47.4586 63.8544 46.9022 69.0376 46.8265 74.0248C46.8117 75.0359 45.9891 75.7901 44.978 75.7901C44.9706 75.7883 44.9595 75.7883 44.9502 75.7883ZM57.7232 121.159C49.6934 108.794 45.0852 96.6644 43.6378 84.0762C43.5232 83.0614 44.2478 82.1446 45.2626 82.03C46.2811 81.9154 47.1943 82.6418 47.3089 83.6548C48.6916 95.6607 53.1131 107.269 60.825 119.144C61.3814 120.002 61.1374 121.146 60.2816 121.702C59.9692 121.904 59.6198 122 59.276 122C58.6715 122 58.0745 121.704 57.7232 121.159ZM48.3239 120.046C36.525 99.8253 33.1127 79.627 37.5897 56.4802C38.904 49.6944 43.0945 43.7904 49.0818 40.2856C49.9617 39.7681 51.0948 40.0638 51.6087 40.9456C52.1244 41.8273 51.8286 42.9586 50.9487 43.4743C45.8783 46.443 42.333 51.4394 41.2183 57.1826C36.9243 79.3977 40.1924 98.7809 51.5144 118.183C52.0264 119.066 51.7288 120.197 50.8508 120.71C50.5587 120.883 50.2371 120.963 49.9191 120.963C49.287 120.963 48.6677 120.639 48.3239 120.046ZM95.0424 109.671C81.7647 93.3045 77.9975 81.1747 81.1399 64.9191C82.1732 59.5807 81.0679 54.1609 78.0252 49.658C74.9826 45.1533 70.3725 42.1051 65.0396 41.07C63.217 40.7132 61.326 40.6245 59.4942 40.7705C58.4868 40.8519 57.5847 40.094 57.5034 39.0773C57.4202 38.0606 58.1781 37.1678 59.1966 37.0865C61.3612 36.9109 63.5941 37.0218 65.7458 37.4396C72.0472 38.6596 77.4966 42.2641 81.09 47.5859C84.6835 52.9058 85.9904 59.3108 84.7704 65.6179C81.8664 80.6405 85.4284 91.9477 97.9131 107.336C98.5564 108.131 98.4362 109.296 97.6432 109.935C97.3012 110.213 96.889 110.351 96.4805 110.351C95.9408 110.355 95.4084 110.122 95.0424 109.671ZM38.2551 117.068C35.4898 111.534 33.2624 105.828 31.6339 100.107C31.3566 99.1251 31.9241 98.1028 32.9056 97.8237C33.889 97.5409 34.9112 98.1139 35.1885 99.0955C36.7523 104.597 38.8929 110.085 41.5584 115.414C42.0149 116.327 41.6471 117.438 40.7339 117.895C40.4659 118.024 40.1849 118.087 39.9077 118.087C39.2311 118.091 38.5805 117.719 38.2551 117.068ZM29.4304 90.3021C27.6078 79.165 27.9017 67.6397 30.3325 55.0755C33.1884 40.3154 46.1555 29.6016 61.1634 29.6016C63.1727 29.6016 65.1857 29.7957 67.1451 30.1783C75.3875 31.7717 82.5134 36.4853 87.2122 43.4486C91.9129 50.4081 93.6209 58.7836 92.0257 67.0334C91.2197 71.1999 91.0035 74.6972 91.3436 78.043C91.4471 79.0596 90.7077 79.9654 89.6929 80.0707C88.6614 80.1539 87.7705 79.4349 87.6669 78.4182C87.2862 74.7027 87.5191 70.8616 88.3952 66.3291C89.8056 59.0498 88.2973 51.6595 84.1493 45.517C80.0031 39.3745 73.7164 35.2154 66.4408 33.8087C64.7125 33.4704 62.9361 33.3004 61.1652 33.3004C47.9208 33.3004 36.4806 42.7535 33.9611 55.7798C31.6153 67.9077 31.3288 79.006 33.0793 89.7069C33.2439 90.7143 32.5636 91.6644 31.5525 91.8271C31.4508 91.8456 31.3547 91.853 31.253 91.853C30.3639 91.8493 29.5783 91.2079 29.4304 90.3021ZM100.686 104.883C95.7909 98.8182 92.3878 93.4354 90.2861 88.4334C89.8905 87.4907 90.3323 86.4074 91.2751 86.0119C92.2196 85.6181 93.2992 86.0581 93.6947 86.9971C95.6597 91.6756 98.889 96.7663 103.564 102.561C104.205 103.356 104.08 104.521 103.287 105.16C102.945 105.434 102.534 105.569 102.128 105.569C101.586 105.569 101.05 105.334 100.686 104.883ZM105.74 99.3597C93.6801 84.1319 93.9944 76.3387 95.6562 67.734C97.44 58.5175 95.5305 49.1549 90.2789 41.3728C88.3935 38.5816 86.1291 36.0787 83.5449 33.9363C82.7593 33.2838 82.6502 32.1192 83.3028 31.3336C83.9553 30.548 85.1198 30.4408 85.9054 31.0915C88.7595 33.4576 91.2623 36.221 93.3437 39.3043C99.148 47.9035 101.257 58.2494 99.2866 68.4327C97.7561 76.3498 97.5305 83.0376 108.638 97.0621C109.272 97.8643 109.137 99.0252 108.335 99.6592C107.995 99.9291 107.592 100.058 107.189 100.058C106.644 100.06 106.104 99.82 105.74 99.3597ZM27.6337 111.569C20.4098 93.3431 18.9624 74.9452 23.0753 53.6673C24.129 48.2087 26.2991 43.1401 29.521 38.6003C30.1125 37.7684 31.2641 37.5725 32.0996 38.164C32.9314 38.7555 33.1292 39.909 32.5359 40.7426C29.6208 44.8481 27.6577 49.4342 26.7057 54.3715C22.7315 74.9248 24.1179 92.6666 31.07 110.211C31.4453 111.159 30.9813 112.235 30.0312 112.61C29.8075 112.699 29.5801 112.739 29.3528 112.739C28.6171 112.739 27.9202 112.298 27.6337 111.569ZM36.2791 33.6663C35.6284 32.8789 35.7412 31.7125 36.5323 31.0637C43.4678 25.3482 52.2149 22.2002 61.1671 22.2002C63.6515 22.2002 66.1377 22.4387 68.5536 22.9119C71.5112 23.4849 74.4096 24.4036 77.1657 25.6458C78.0955 26.0654 78.5114 27.1597 78.0918 28.0895C77.6741 29.0193 76.5816 29.4352 75.6481 29.0156C73.1527 27.8917 70.5278 27.0599 67.8475 26.5404C65.6626 26.1134 63.4149 25.8972 61.1671 25.8972C53.0726 25.8972 45.1574 28.7457 38.8836 33.9159C38.5398 34.2006 38.1257 34.3392 37.7098 34.3392C37.1756 34.3392 36.6488 34.11 36.2791 33.6663ZM16.4244 59.8078C15.4151 59.6525 14.722 58.7079 14.8791 57.6986C15.1545 55.9001 15.4614 54.0904 15.8163 52.2623C20.016 30.5555 39.0868 14.8009 61.167 14.8009C64.1227 14.8009 67.0821 15.0855 69.9565 15.6475C82.0752 17.995 92.5561 24.925 99.4676 35.1619C103.153 40.6205 105.59 46.6558 106.71 53.0978C106.886 54.1033 106.211 55.0609 105.205 55.2365C104.189 55.4121 103.242 54.7374 103.067 53.7318C102.037 47.8056 99.7948 42.2546 96.4047 37.2304C90.0459 27.8123 80.4042 21.4369 69.2523 19.276C66.6052 18.7603 63.8861 18.4978 61.167 18.4978C40.854 18.4978 23.3082 32.9937 19.4448 52.9647C19.101 54.7485 18.8016 56.5119 18.5335 58.2661C18.3949 59.1793 17.6056 59.8318 16.7091 59.8318C16.6148 59.83 16.5205 59.8226 16.4244 59.8078ZM16.7774 102.515C13.7995 91.3061 12.8069 79.8824 13.7348 67.5919C13.8125 66.5733 14.6997 65.8155 15.7146 65.8876C16.7349 65.9633 17.4984 66.8506 17.4207 67.8673C16.5223 79.7401 17.4799 90.7626 20.3487 101.563C20.6112 102.549 20.0215 103.563 19.0363 103.826C18.8773 103.867 18.7147 103.887 18.5594 103.887C17.7423 103.889 16.9956 103.342 16.7774 102.515ZM110.172 93.0156C100.715 80.5236 101.784 74.9929 102.915 69.1332C103.296 67.1738 103.54 65.1553 103.643 63.1256C103.693 62.1034 104.545 61.3197 105.582 61.3733C106.601 61.425 107.386 62.2938 107.335 63.3123C107.224 65.512 106.958 67.708 106.545 69.8356C105.492 75.2924 104.658 79.603 113.12 90.7808C113.736 91.5942 113.577 92.755 112.762 93.3687C112.427 93.6219 112.035 93.7439 111.647 93.7439C111.089 93.7495 110.536 93.4963 110.172 93.0156ZM113.924 85.6109C108.738 77.9711 109.403 74.5273 110.172 70.542C112.706 57.4455 109.991 44.1438 102.529 33.0862C95.0644 22.0285 83.7443 14.544 70.6533 12.0097C65.4794 10.9968 60.0615 10.8156 54.6954 11.5217C53.6768 11.6419 52.7526 10.9413 52.6232 9.93019C52.4901 8.91722 53.1999 7.98928 54.2147 7.85619C59.9709 7.09831 65.801 7.2924 71.3576 8.38116C85.4153 11.104 97.5746 19.143 105.592 31.0196C113.607 42.8942 116.523 57.1812 113.801 71.2463C113.111 74.8139 112.656 77.167 116.98 83.535C117.555 84.3798 117.333 85.5314 116.488 86.1044C116.17 86.3207 115.81 86.4242 115.451 86.4242C114.864 86.4223 114.283 86.1395 113.924 85.6109ZM8.37622 89.537C8.43537 89.537 8.49822 89.5333 8.56661 89.5296C9.58144 89.4224 10.319 88.5166 10.2192 87.5C9.06201 76.1484 9.71083 64.3939 12.1896 51.5562C15.613 33.8773 28.3694 19.3537 45.4809 13.6512C46.4476 13.3277 46.9726 12.2814 46.6491 11.3128C46.3256 10.3461 45.2868 9.81925 44.3108 10.1446C25.9387 16.2668 12.2359 31.868 8.56107 50.8556C6.00831 64.0538 5.34655 76.1632 6.53883 87.8771C6.63125 88.829 7.43719 89.537 8.37622 89.537Z" fill="#23D288"/>
</svg>
