<svg width="50" height="50" viewBox="0 0 50 50" fill="none" xmlns="http://www.w3.org/2000/svg">
<path fill-rule="evenodd" clip-rule="evenodd" d="M0 25C0 11.1929 11.1929 0 25 0C31.6304 0 37.9893 2.63392 42.6777 7.32233C47.3661 12.0107 50 18.3696 50 25C50 38.8071 38.8071 50 25 50C11.1929 50 0 38.8071 0 25ZM21.825 33.375L35.875 19.325C36.3353 18.8421 36.3353 18.0829 35.875 17.6L34.55 16.275C34.0639 15.7986 33.2861 15.7986 32.8 16.275L20.95 28.125L17.2 24.4C16.9732 24.1583 16.6565 24.0212 16.325 24.0212C15.9935 24.0212 15.6768 24.1583 15.45 24.4L14.125 25.725C13.8884 25.9597 13.7553 26.2792 13.7553 26.6125C13.7553 26.9458 13.8884 27.2653 14.125 27.5L20.075 33.375C20.3018 33.6167 20.6185 33.7538 20.95 33.7538C21.2815 33.7538 21.5982 33.6167 21.825 33.375Z" fill="url(#paint0_linear_5967_11787)"/>
<defs>
<linearGradient id="paint0_linear_5967_11787" x1="25" y1="0" x2="25" y2="50" gradientUnits="userSpaceOnUse">
<stop stop-color="#4EFF8A" stop-opacity="0.6"/>
<stop offset="1" stop-color="#26C16D"/>
</linearGradient>
</defs>
</svg>
