<svg width="50" height="50" viewBox="0 0 50 50" fill="none" xmlns="http://www.w3.org/2000/svg">
<rect width="50" height="50" rx="15" fill="#1B183E"/>
<circle cx="25" cy="25" r="10.5" stroke="#33CEFF" stroke-width="3"/>
<path d="M24.1189 28.9297C24.3535 29.1615 24.6717 29.2918 25.0034 29.2918C25.3352 29.2918 25.6533 29.1615 25.8879 28.9297C26.1225 28.6979 26.2543 28.3835 26.2543 28.0557C26.3008 27.6914 26.4293 27.3421 26.6304 27.0335C26.8315 26.7248 27.1 26.4646 27.4163 26.272C28.0267 25.9387 28.5599 25.483 28.9816 24.9341C29.4033 24.3852 29.7043 23.7553 29.8651 23.0847C30.026 22.4141 30.0432 21.7177 29.9156 21.0402C29.7881 20.3626 29.5186 19.7189 29.1246 19.1503C28.7305 18.5818 28.2204 18.1009 27.6272 17.7385C27.034 17.3762 26.3707 17.1404 25.6798 17.0463C24.9889 16.9522 24.2858 17.0019 23.6155 17.1921C22.9452 17.3823 22.3225 17.7089 21.7875 18.1509C21.2276 18.6151 20.7775 19.1949 20.4686 19.8494C20.1598 20.5039 19.9999 21.2174 20 21.9395C20 22.2674 20.1318 22.5818 20.3664 22.8136C20.6009 23.0454 20.9191 23.1756 21.2509 23.1756C21.5826 23.1756 21.9008 23.0454 22.1353 22.8136C22.3699 22.5818 22.5017 22.2674 22.5017 21.9395C22.5009 21.5764 22.5811 21.2176 22.7365 20.8886C22.892 20.5596 23.1188 20.2685 23.401 20.0359C23.6831 19.8033 24.0137 19.635 24.3691 19.5429C24.7245 19.4509 25.0961 19.4373 25.4575 19.5032C25.9525 19.5984 26.4074 19.8375 26.764 20.1899C27.1205 20.5423 27.3625 20.9918 27.4588 21.4809C27.5582 21.9931 27.4906 22.5231 27.2658 22.9949C27.0411 23.4666 26.6707 23.8558 26.208 24.1064C25.4999 24.5123 24.9048 25.0857 24.4762 25.775C24.0477 26.4643 23.799 27.248 23.7526 28.0557C23.7526 28.3835 23.8843 28.6979 24.1189 28.9297Z" fill="#33CEFF"/>
<path d="M24.3085 30.7362C24.5142 30.6003 24.756 30.5278 25.0034 30.5278C25.3352 30.5278 25.6533 30.6581 25.8879 30.8899C26.1225 31.1217 26.2543 31.4361 26.2543 31.7639C26.2543 32.0084 26.1809 32.2474 26.0435 32.4506C25.906 32.6539 25.7107 32.8124 25.4821 32.9059C25.2535 32.9995 25.002 33.0239 24.7594 32.9762C24.5167 32.9286 24.2939 32.8108 24.1189 32.638C23.944 32.4651 23.8249 32.2448 23.7766 32.0051C23.7283 31.7653 23.7531 31.5168 23.8478 31.2909C23.9425 31.065 24.1028 30.872 24.3085 30.7362Z" fill="#33CEFF"/>
</svg>
