<svg width="25" height="24" viewBox="0 0 25 24" fill="none" xmlns="http://www.w3.org/2000/svg">
<path d="M12.873 2C7.45205 2 2.87305 6.579 2.87305 12C2.87305 15.189 4.46505 18.078 6.87305 19.924V20H6.97505C8.64305 21.245 10.686 22 12.873 22C15.06 22 17.103 21.245 18.771 20H18.873V19.924C21.281 18.078 22.873 15.19 22.873 12C22.873 6.579 18.294 2 12.873 2ZM8.94705 18.927C9.24405 17.582 10.441 16.573 11.873 16.573H13.873C15.305 16.573 16.502 17.583 16.799 18.927C15.631 19.604 14.289 20 12.873 20C11.457 20 10.115 19.604 8.94705 18.927ZM18.483 17.641C17.726 15.841 15.945 14.573 13.873 14.573H11.873C9.80105 14.573 8.01905 15.842 7.26305 17.641C5.79605 16.182 4.87305 14.176 4.87305 12C4.87305 7.663 8.53605 4 12.873 4C17.21 4 20.873 7.663 20.873 12C20.873 14.176 19.95 16.182 18.483 17.641Z" fill="white"/>
<path d="M12.873 6C10.593 6 8.87305 7.72 8.87305 10C8.87305 12.28 10.593 14 12.873 14C15.153 14 16.873 12.28 16.873 10C16.873 7.72 15.153 6 12.873 6ZM12.873 12C11.695 12 10.873 11.178 10.873 10C10.873 8.822 11.695 8 12.873 8C14.051 8 14.873 8.822 14.873 10C14.873 11.178 14.051 12 12.873 12Z" fill="white"/>
</svg>
