<svg width="24" height="24" viewBox="0 0 24 24" fill="none" xmlns="http://www.w3.org/2000/svg">
<path d="M17.9993 2.28833C16.7787 1.19787 15.2839 0.460913 13.6756 0.156761C12.0674 -0.147391 10.4067 -0.00722033 8.87216 0.562189C7.33765 1.1316 5.98748 2.10869 4.96693 3.3883C3.94638 4.66792 3.29411 6.20161 3.0803 7.82433C2.88828 9.24718 3.04185 10.6953 3.52802 12.0463C4.01419 13.3972 4.81864 14.6111 5.8733 15.5853C6.5255 16.1573 7.05178 16.8584 7.41878 17.6444C7.78579 18.4304 7.98551 19.2841 8.0053 20.1513V20.3123C8.00636 21.2907 8.39546 22.2286 9.08724 22.9204C9.77903 23.6122 10.717 24.0013 11.6953 24.0023H12.3153C13.2936 24.0013 14.2316 23.6122 14.9234 22.9204C15.6151 22.2286 16.0042 21.2907 16.0053 20.3123V19.7633C16.0203 18.9968 16.2007 18.2425 16.5341 17.5522C16.8676 16.8618 17.3462 16.2516 17.9373 15.7633C18.8959 14.9238 19.6651 13.8901 20.1941 12.7308C20.723 11.5715 20.9996 10.3131 21.0054 9.0388C21.0113 7.76455 20.7463 6.5036 20.2281 5.33949C19.7098 4.17537 18.9501 3.13467 17.9993 2.28633V2.28833ZM12.3153 22.0023H11.6953C11.2472 22.0018 10.8177 21.8236 10.5009 21.5068C10.1841 21.1899 10.0058 20.7604 10.0053 20.3123C10.0053 20.3123 9.9983 20.0523 9.9973 20.0023H14.0053V20.3123C14.0048 20.7604 13.8265 21.1899 13.5097 21.5068C13.1929 21.8236 12.7634 22.0018 12.3153 22.0023ZM16.6153 14.2613C15.4767 15.2489 14.6545 16.5501 14.2513 18.0023H13.0053V10.8183C13.5882 10.6122 14.0932 10.2311 14.4512 9.72703C14.8092 9.22296 15.0027 8.62059 15.0053 8.00233C15.0053 7.73711 14.8999 7.48276 14.7124 7.29522C14.5249 7.10769 14.2705 7.00233 14.0053 7.00233C13.7401 7.00233 13.4857 7.10769 13.2982 7.29522C13.1107 7.48276 13.0053 7.73711 13.0053 8.00233C13.0053 8.26755 12.8999 8.5219 12.7124 8.70944C12.5249 8.89697 12.2705 9.00233 12.0053 9.00233C11.7401 9.00233 11.4857 8.89697 11.2982 8.70944C11.1107 8.5219 11.0053 8.26755 11.0053 8.00233C11.0053 7.73711 10.8999 7.48276 10.7124 7.29522C10.5249 7.10769 10.2705 7.00233 10.0053 7.00233C9.74008 7.00233 9.48573 7.10769 9.29819 7.29522C9.11066 7.48276 9.0053 7.73711 9.0053 8.00233C9.00786 8.62059 9.20138 9.22296 9.55939 9.72703C9.91739 10.2311 10.4224 10.6122 11.0053 10.8183V18.0023H9.6833C9.23229 16.5115 8.38642 15.1705 7.2353 14.1213C6.25825 13.2109 5.56202 12.04 5.22877 10.7468C4.89551 9.4536 4.93914 8.09205 5.35451 6.82282C5.76987 5.5536 6.53964 4.42968 7.57297 3.58369C8.60629 2.73771 9.86006 2.20496 11.1863 2.04833C11.4612 2.01764 11.7377 2.00228 12.0143 2.00233C13.7319 1.99722 15.39 2.63095 16.6663 3.78033C17.406 4.43993 17.997 5.24922 18.4002 6.15455C18.8035 7.05989 19.0096 8.04059 19.0051 9.03165C19.0005 10.0227 18.7854 11.0015 18.3739 11.9031C17.9624 12.8047 17.364 13.6085 16.6183 14.2613H16.6153Z" fill="#23D288"/>
</svg>
