<svg width="52" height="50" viewBox="0 0 52 50" fill="none" xmlns="http://www.w3.org/2000/svg">
<rect x="2" width="50" height="50" rx="15" fill="#614BFF"/>
<g clip-path="url(#clip0_6080_11527)">
<path d="M27 25C28.1867 25 29.3467 24.6481 30.3334 23.9888C31.3201 23.3295 32.0892 22.3925 32.5433 21.2961C32.9974 20.1997 33.1162 18.9933 32.8847 17.8295C32.6532 16.6656 32.0818 15.5965 31.2426 14.7574C30.4035 13.9182 29.3344 13.3468 28.1705 13.1153C27.0067 12.8838 25.8003 13.0026 24.7039 13.4567C23.6075 13.9109 22.6705 14.6799 22.0112 15.6666C21.3519 16.6533 21 17.8133 21 19C21.0016 20.5908 21.6342 22.116 22.7591 23.2409C23.884 24.3658 25.4092 24.9984 27 25ZM27 15C27.7911 15 28.5645 15.2346 29.2223 15.6741C29.8801 16.1136 30.3928 16.7384 30.6955 17.4693C30.9983 18.2002 31.0775 19.0044 30.9231 19.7804C30.7688 20.5563 30.3878 21.269 29.8284 21.8284C29.269 22.3878 28.5563 22.7688 27.7804 22.9231C27.0044 23.0775 26.2002 22.9983 25.4693 22.6955C24.7384 22.3928 24.1136 21.8801 23.6741 21.2223C23.2346 20.5645 23 19.7911 23 19C23 17.9391 23.4214 16.9217 24.1716 16.1716C24.9217 15.4214 25.9391 15 27 15Z" fill="#F9F9FC"/>
<path d="M27 27C24.6139 27.0026 22.3262 27.9517 20.639 29.639C18.9517 31.3262 18.0026 33.6139 18 36C18 36.2652 18.1054 36.5196 18.2929 36.7071C18.4804 36.8946 18.7348 37 19 37C19.2652 37 19.5196 36.8946 19.7071 36.7071C19.8946 36.5196 20 36.2652 20 36C20 34.1435 20.7375 32.363 22.0503 31.0503C23.363 29.7375 25.1435 29 27 29C28.8565 29 30.637 29.7375 31.9497 31.0503C33.2625 32.363 34 34.1435 34 36C34 36.2652 34.1054 36.5196 34.2929 36.7071C34.4804 36.8946 34.7348 37 35 37C35.2652 37 35.5196 36.8946 35.7071 36.7071C35.8946 36.5196 36 36.2652 36 36C35.9974 33.6139 35.0483 31.3262 33.361 29.639C31.6738 27.9517 29.3861 27.0026 27 27Z" fill="#F9F9FC"/>
</g>
<defs>
<clipPath id="clip0_6080_11527">
<rect width="24" height="24" fill="white" transform="translate(15 13)"/>
</clipPath>
</defs>
</svg>
