<svg width="50" height="50" viewBox="0 0 50 50" fill="none" xmlns="http://www.w3.org/2000/svg">
<rect width="50" height="50" rx="15" fill="#614BFF"/>
<g clip-path="url(#clip0_436_19)">
<path d="M14.2911 22.5516C14.0757 22.1519 13.9758 21.7001 14.0029 21.2468C14.0299 20.7936 14.1827 20.3568 14.4441 19.9856C14.8714 19.3587 15.4436 18.8441 16.1121 18.4856L23.6131 14.5816C24.3504 14.1982 25.1692 13.998 26.0001 13.998C26.8311 13.998 27.6499 14.1982 28.3871 14.5816L35.8871 18.4886C36.5557 18.8471 37.1279 19.3617 37.5551 19.9886C37.8166 20.3598 37.9694 20.7966 37.9964 21.2498C38.0235 21.7031 37.9236 22.1549 37.7081 22.5546C37.4762 22.9934 37.1282 23.3602 36.7022 23.615C36.2762 23.8697 35.7885 24.0028 35.2921 23.9996H35.0001V31.9996H36.0001C36.2654 31.9996 36.5197 32.1049 36.7073 32.2925C36.8948 32.48 37.0001 32.7344 37.0001 32.9996C37.0001 33.2648 36.8948 33.5191 36.7073 33.7067C36.5197 33.8942 36.2654 33.9996 36.0001 33.9996H16.0001C15.7349 33.9996 15.4806 33.8942 15.293 33.7067C15.1055 33.5191 15.0001 33.2648 15.0001 32.9996C15.0001 32.7344 15.1055 32.48 15.293 32.2925C15.4806 32.1049 15.7349 31.9996 16.0001 31.9996H17.0001V23.9996H16.7081C16.2113 24.0027 15.7232 23.8693 15.2969 23.6139C14.8707 23.3586 14.5228 22.9911 14.2911 22.5516ZM19.0001 31.9996H22.0001V23.9996H19.0001V31.9996ZM24.0001 23.9996V31.9996H28.0001V23.9996H24.0001ZM33.0001 23.9996H30.0001V31.9996H33.0001V23.9996ZM16.0631 21.6246C16.1259 21.7402 16.2193 21.8364 16.333 21.9026C16.4468 21.9687 16.5766 22.0023 16.7081 21.9996H35.2921C35.4237 22.0023 35.5535 21.9687 35.6673 21.9026C35.781 21.8364 35.8744 21.7402 35.9371 21.6246C35.9828 21.5481 36.005 21.4599 36.0007 21.3709C35.9964 21.282 35.966 21.1963 35.9131 21.1246C35.6709 20.7645 35.3453 20.4681 34.9641 20.2606L27.4641 16.3536C27.0122 16.119 26.5104 15.9965 26.0011 15.9965C25.4919 15.9965 24.9901 16.119 24.5381 16.3536L17.0381 20.2606C16.6571 20.4688 16.3317 20.7654 16.0891 21.1256C16.0362 21.197 16.0055 21.2824 16.0009 21.3711C15.9963 21.4599 16.0179 21.548 16.0631 21.6246Z" fill="#F9F9FC"/>
<path d="M37.7071 37.7071C37.8946 37.5196 38 37.2652 38 37C38 36.7348 37.8946 36.4804 37.7071 36.2929C37.5196 36.1054 37.2652 36 37 36H15C14.7348 36 14.4804 36.1054 14.2929 36.2929C14.1054 36.4804 14 36.7348 14 37C14 37.2652 14.1054 37.5196 14.2929 37.7071C14.4804 37.8946 14.7348 38 15 38H37C37.2652 38 37.5196 37.8946 37.7071 37.7071Z" fill="#F9F9FC"/>
</g>
<defs>
<clipPath id="clip0_436_19">
<rect width="25.0006" height="25" fill="white" transform="translate(13 13)"/>
</clipPath>
</defs>
</svg>
