<svg width="50" height="50" viewBox="0 0 50 50" fill="none" xmlns="http://www.w3.org/2000/svg">
<rect width="50" height="50" rx="15" fill="#614BFF"/>
<g clip-path="url(#clip0_6080_11538)">
<path d="M32 37H31C30.7348 37 30.4804 36.8946 30.2929 36.7071C30.1054 36.5196 30 36.2652 30 36C30 35.7348 30.1054 35.4804 30.2929 35.2929C30.4804 35.1054 30.7348 35 31 35H32C32.7956 35 33.5587 34.6839 34.1213 34.1213C34.6839 33.5587 35 32.7956 35 32V31C35 30.7348 35.1054 30.4804 35.2929 30.2929C35.4804 30.1054 35.7348 30 36 30C36.2652 30 36.5196 30.1054 36.7071 30.2929C36.8946 30.4804 37 30.7348 37 31V32C36.9984 33.3256 36.4711 34.5964 35.5338 35.5338C34.5964 36.4711 33.3256 36.9984 32 37ZM37 19V18C36.9984 16.6744 36.4711 15.4036 35.5338 14.4662C34.5964 13.5289 33.3256 13.0016 32 13H31C30.7348 13 30.4804 13.1054 30.2929 13.2929C30.1054 13.4804 30 13.7348 30 14C30 14.2652 30.1054 14.5196 30.2929 14.7071C30.4804 14.8946 30.7348 15 31 15H32C32.7956 15 33.5587 15.3161 34.1213 15.8787C34.6839 16.4413 35 17.2044 35 18V19C35 19.2652 35.1054 19.5196 35.2929 19.7071C35.4804 19.8946 35.7348 20 36 20C36.2652 20 36.5196 19.8946 36.7071 19.7071C36.8946 19.5196 37 19.2652 37 19ZM20 36C20 35.7348 19.8946 35.4804 19.7071 35.2929C19.5196 35.1054 19.2652 35 19 35H18C17.2044 35 16.4413 34.6839 15.8787 34.1213C15.3161 33.5587 15 32.7956 15 32V31C15 30.7348 14.8946 30.4804 14.7071 30.2929C14.5196 30.1054 14.2652 30 14 30C13.7348 30 13.4804 30.1054 13.2929 30.2929C13.1054 30.4804 13 30.7348 13 31V32C13.0016 33.3256 13.5289 34.5964 14.4662 35.5338C15.4036 36.4711 16.6744 36.9984 18 37H19C19.2652 37 19.5196 36.8946 19.7071 36.7071C19.8946 36.5196 20 36.2652 20 36ZM15 19V18C15 17.2044 15.3161 16.4413 15.8787 15.8787C16.4413 15.3161 17.2044 15 18 15H19C19.2652 15 19.5196 14.8946 19.7071 14.7071C19.8946 14.5196 20 14.2652 20 14C20 13.7348 19.8946 13.4804 19.7071 13.2929C19.5196 13.1054 19.2652 13 19 13H18C16.6744 13.0016 15.4036 13.5289 14.4662 14.4662C13.5289 15.4036 13.0016 16.6744 13 18L13 19C13 19.2652 13.1054 19.5196 13.2929 19.7071C13.4804 19.8946 13.7348 20 14 20C14.2652 20 14.5196 19.8946 14.7071 19.7071C14.8946 19.5196 15 19.2652 15 19Z" fill="#F9F9FC"/>
<path fill-rule="evenodd" clip-rule="evenodd" d="M29 25C29 24.2089 28.7654 23.4355 28.3259 22.7777C27.8864 22.1199 27.2616 21.6072 26.5307 21.3045C25.7998 21.0017 24.9956 20.9225 24.2196 21.0769C23.4437 21.2312 22.731 21.6122 22.1716 22.1716C21.6122 22.731 21.2312 23.4437 21.0769 24.2196C20.9225 24.9956 21.0017 25.7998 21.3045 26.5307C21.6072 27.2616 22.1199 27.8864 22.7777 28.3259C23.4355 28.7654 24.2089 29 25 29C26.0609 29 27.0783 28.5786 27.8284 27.8284C28.5786 27.0783 29 26.0609 29 25ZM26.6629 26.1111C26.8827 25.7822 27 25.3956 27 25C27 24.4696 26.7893 23.9609 26.4142 23.5858C26.0391 23.2107 25.5304 23 25 23C24.6044 23 24.2178 23.1173 23.8889 23.3371C23.56 23.5568 23.3036 23.8692 23.1522 24.2346C23.0009 24.6001 22.9613 25.0022 23.0384 25.3902C23.1156 25.7781 23.3061 26.1345 23.5858 26.4142C23.8655 26.6939 24.2219 26.8844 24.6098 26.9616C24.9978 27.0387 25.3999 26.9991 25.7654 26.8478C26.1308 26.6964 26.4432 26.44 26.6629 26.1111Z" fill="#F9F9FC"/>
</g>
<defs>
<clipPath id="clip0_6080_11538">
<rect width="24" height="24" fill="white" transform="translate(13 13)"/>
</clipPath>
</defs>
</svg>
