<svg width="50" height="50" viewBox="0 0 50 50" fill="none" xmlns="http://www.w3.org/2000/svg">
<rect width="50" height="50" rx="15" fill="#614BFF"/>
<g clip-path="url(#clip0_6080_11543)">
<path d="M23.8789 26.7077C23.9718 26.6148 24.0456 26.5045 24.0959 26.3831C24.1462 26.2617 24.1721 26.1316 24.1721 26.0002C24.1721 25.8688 24.1462 25.7387 24.0959 25.6173C24.0456 25.4959 23.9718 25.3856 23.8789 25.2927L20.5869 21.9997L30.9989 21.9927C31.2641 21.9927 31.5184 21.8873 31.706 21.6998C31.8935 21.5123 31.9989 21.2579 31.9989 20.9927C31.9989 20.7275 31.8935 20.4731 31.706 20.2856C31.5184 20.0981 31.2641 19.9927 30.9989 19.9927L20.5849 19.9997L23.8789 16.7077C24.0665 16.5202 24.172 16.2658 24.1721 16.0006C24.1722 15.7353 24.0669 15.4808 23.8794 15.2932C23.6919 15.1056 23.4375 15.0001 23.1722 15C22.9069 14.9999 22.6525 15.1052 22.4649 15.2927L18.8789 18.8787C18.6002 19.1573 18.3792 19.488 18.2284 19.852C18.0776 20.216 18 20.6062 18 21.0002C18 21.3942 18.0776 21.7844 18.2284 22.1484C18.3792 22.5124 18.6002 22.8431 18.8789 23.1217L22.4649 26.7077C22.6524 26.8952 22.9067 27.0005 23.1719 27.0005C23.437 27.0005 23.6913 26.8952 23.8789 26.7077Z" fill="#F9F9FC"/>
<path d="M26.121 25.2928C25.9335 25.4803 25.8282 25.7346 25.8282 25.9998C25.8282 26.265 25.9335 26.5193 26.121 26.7068L29.413 29.9998L19 30.0068C18.7348 30.0068 18.4804 30.1121 18.2929 30.2997C18.1054 30.4872 18 30.7416 18 31.0068C18 31.272 18.1054 31.5264 18.2929 31.7139C18.4804 31.9014 18.7348 32.0068 19 32.0068L29.414 31.9998L26.121 35.2928C26.0255 35.385 25.9493 35.4954 25.8969 35.6174C25.8445 35.7394 25.8169 35.8706 25.8157 36.0034C25.8146 36.1362 25.8399 36.2678 25.8902 36.3907C25.9405 36.5136 26.0147 36.6253 26.1086 36.7192C26.2025 36.8131 26.3141 36.8873 26.437 36.9376C26.5599 36.9879 26.6916 37.0132 26.8244 37.012C26.9572 37.0109 27.0884 36.9833 27.2104 36.9309C27.3324 36.8785 27.4428 36.8023 27.535 36.7068L31.121 33.1218C31.3996 32.8432 31.6207 32.5125 31.7715 32.1485C31.9222 31.7844 31.9999 31.3943 31.9999 31.0003C31.9999 30.6063 31.9222 30.2161 31.7715 29.8521C31.6207 29.4881 31.3996 29.1574 31.121 28.8788L27.535 25.2928C27.3475 25.1053 27.0932 25 26.828 25C26.5628 25 26.3085 25.1053 26.121 25.2928Z" fill="#F9F9FC"/>
</g>
<defs>
<clipPath id="clip0_6080_11543">
<rect width="24" height="24" fill="white" transform="translate(13 13)"/>
</clipPath>
</defs>
</svg>
