<svg width="19" height="21" viewBox="0 0 19 21" fill="none" xmlns="http://www.w3.org/2000/svg">
<path d="M18.8473 12.3812L17.264 6.68449C16.7999 5.01561 15.7913 3.54973 14.3984 2.51989C13.0056 1.49004 11.3085 0.955317 9.57689 1.00072C7.84526 1.04612 6.17851 1.66903 4.84155 2.77045C3.5046 3.87187 2.57417 5.38858 2.19817 7.07949L0.972332 12.592C0.836928 13.2011 0.840059 13.8329 0.981493 14.4406C1.12293 15.0483 1.39905 15.6166 1.78948 16.1033C2.17992 16.59 2.67468 16.9829 3.23726 17.2528C3.79983 17.5227 4.41585 17.6628 5.03983 17.6628H5.96817C6.15943 18.6047 6.67044 19.4516 7.41462 20.0598C8.15879 20.6681 9.09037 21.0003 10.0515 21.0003C11.0126 21.0003 11.9442 20.6681 12.6884 20.0598C13.4326 19.4516 13.9436 18.6047 14.1348 17.6628H14.8332C15.4755 17.6629 16.1092 17.5144 16.6846 17.229C17.2601 16.9436 17.7618 16.5291 18.1505 16.0177C18.5392 15.5063 18.8045 14.912 18.9255 14.2812C19.0465 13.6504 19.0201 13.0001 18.8482 12.3812H18.8473ZM10.0515 19.3295C9.53628 19.3274 9.03431 19.1661 8.61425 18.8678C8.19419 18.5694 7.87657 18.1486 7.70483 17.6628H12.3982C12.2264 18.1486 11.9088 18.5694 11.4887 18.8678C11.0687 19.1661 10.5667 19.3274 10.0515 19.3295ZM16.8232 15.0087C16.591 15.3167 16.2901 15.5664 15.9445 15.7378C15.5989 15.9092 15.2181 15.9977 14.8323 15.9962H5.03983C4.66549 15.9961 4.29593 15.912 3.95845 15.75C3.62097 15.588 3.32417 15.3523 3.08997 15.0602C2.85576 14.7682 2.69013 14.4273 2.6053 14.0627C2.52047 13.6981 2.5186 13.3191 2.59983 12.9537L3.82483 7.44033C4.12013 6.11217 4.85092 4.92083 5.90105 4.0557C6.95117 3.19057 8.26035 2.7013 9.62048 2.66567C10.9806 2.63004 12.3136 3.05009 13.4076 3.85905C14.5016 4.66801 15.2937 5.81945 15.6582 7.13033L17.2415 12.827C17.3461 13.1981 17.3628 13.5886 17.2902 13.9673C17.2175 14.346 17.0576 14.7025 16.8232 15.0087Z" fill="white"/>
</svg>
