<svg width="50" height="50" viewBox="0 0 50 50" fill="none" xmlns="http://www.w3.org/2000/svg">
<rect width="50" height="50" rx="15" fill="#1B183E"/>
<path fill-rule="evenodd" clip-rule="evenodd" d="M15.7368 28C16.6961 28 17.4737 28.7555 17.4737 29.6875V33.3181C17.4887 33.3284 17.5065 33.34 17.5275 33.3527C17.7498 33.4873 18.1638 33.625 18.7093 33.625H31.2907C31.8362 33.625 32.2502 33.4873 32.4725 33.3527C32.4935 33.34 32.5113 33.3284 32.5263 33.3181V29.6875C32.5263 28.7555 33.3039 28 34.2632 28C35.2224 28 36 28.7555 36 29.6875V33.5112C36 34.8038 35.1384 35.7152 34.3098 36.2169C33.4553 36.7344 32.3831 37 31.2907 37H18.7093C17.6169 37 16.5447 36.7344 15.6902 36.2169C14.8616 35.7152 14 34.8038 14 33.5112V29.6875C14 28.7555 14.7776 28 15.7368 28ZM32.5986 33.2577C32.5992 33.2578 32.5961 33.2622 32.5873 33.2706C32.5936 33.2618 32.598 33.2576 32.5986 33.2577ZM17.4014 33.2577C17.402 33.2576 17.4064 33.2618 17.4127 33.2706C17.4039 33.2622 17.4008 33.2578 17.4014 33.2577Z" fill="#23D288"/>
<path fill-rule="evenodd" clip-rule="evenodd" d="M27 19.229L29.725 22.3628C30.3706 23.1054 31.5337 23.2148 32.3229 22.6073C33.112 21.9998 33.2283 20.9053 32.5826 20.1628L27.0442 13.7934L27.0336 13.7814C26.5995 13.2911 26.0267 13.1403 25.8234 13.092C25.5345 13.0233 25.2471 13 25 13C24.753 13 24.4655 13.0233 24.1767 13.092C23.9733 13.1403 23.4006 13.2911 22.9664 13.7814L17.4174 20.1628C16.7717 20.9053 16.888 21.9998 17.6771 22.6073C18.4663 23.2148 19.6294 23.1054 20.275 22.3628L23 19.229V29.2327C23 30.2087 23.8954 31 25 31C26.1046 31 27 30.2087 27 29.2327V19.229Z" fill="#614BFF"/>
</svg>
