<svg width="50" height="50" viewBox="0 0 50 50" fill="none" xmlns="http://www.w3.org/2000/svg">
<rect width="50" height="50" rx="15" fill="#1B183E"/>
<path fill-rule="evenodd" clip-rule="evenodd" d="M25.0319 19.6753C23.5763 19.6753 22.233 20.0624 21.0835 20.7192C20.199 21.2246 19.0757 20.9113 18.5746 20.0194C18.0734 19.1274 18.3841 17.9947 19.2686 17.4893C20.9526 16.527 22.9187 15.9629 25.0319 15.9629C31.0318 15.9629 36.1302 20.5413 36.1302 26.4813C36.1302 32.4213 31.0318 36.9997 25.0319 36.9997C19.6036 36.9997 14.9228 33.263 14.0673 28.1351C13.8987 27.1242 14.5746 26.1668 15.5771 25.9967C16.5796 25.8267 17.529 26.5083 17.6977 27.5193C18.2265 30.6893 21.2243 33.2874 25.0319 33.2874C29.263 33.2874 32.4488 30.1143 32.4488 26.4813C32.4488 22.8484 29.263 19.6753 25.0319 19.6753Z" fill="#614BFF"/>
<path fill-rule="evenodd" clip-rule="evenodd" d="M20.4441 13.5469C21.3397 14.028 21.6757 15.144 21.1946 16.0395L19.4778 19.2356L22.8309 20.4925C23.7828 20.8494 24.2652 21.9103 23.9083 22.8622C23.5515 23.8142 22.4905 24.2966 21.5386 23.9397L16.4889 22.0467L16.4191 22.0136C15.337 21.5008 14.9753 20.307 15.2721 19.3557L15.3245 19.1879L17.9515 14.2974C18.4326 13.4018 19.5486 13.0658 20.4441 13.5469Z" fill="#23D288"/>
</svg>
