<svg width="45" height="45" viewBox="0 0 45 45" fill="none" xmlns="http://www.w3.org/2000/svg">
<g clip-path="url(#clip0_6202_100)">
<g filter="url(#filter0_d_6202_100)">
<rect width="50" height="50" rx="25" fill="#F3EFFF"/>
</g>
<g clip-path="url(#clip1_6202_100)">
<path d="M22.5006 11.5228C25.6496 11.5228 28.2024 9.61687 28.2024 7.26579C28.2024 4.91471 25.6496 3.00879 22.5006 3.00879C19.3516 3.00879 16.7988 4.91471 16.7988 7.26579C16.7988 9.61687 19.3516 11.5228 22.5006 11.5228Z" fill="#090909"/>
<path d="M28.7607 24.0105C28.7607 24.0105 29.2681 23.0817 29.9561 23.0989C30.5409 23.1161 31.1343 23.9417 30.8505 24.9049C30.5667 25.8767 30.0421 27.4849 30.0421 27.4849C30.0421 27.4849 29.5949 28.6115 28.6661 28.1299C27.7459 27.6655 28.7607 24.0105 28.7607 24.0105Z" fill="url(#paint0_linear_6202_100)"/>
<path d="M15.9901 24.0105C15.9901 24.0105 15.4827 23.0817 14.7947 23.0989C14.2099 23.1161 13.6165 23.9417 13.9003 24.9049C14.1841 25.8767 14.7087 27.4849 14.7087 27.4849C14.7087 27.4849 15.1559 28.6115 16.0847 28.1299C17.0049 27.6655 15.9901 24.0105 15.9901 24.0105Z" fill="url(#paint1_linear_6202_100)"/>
<path d="M35.7614 38.329C34.48 37.0648 28.3998 37.8646 26.3616 35.5684C25.9488 35.104 25.5532 33.5044 25.235 31.879C25.2264 31.8274 25.1748 31.793 25.1232 31.793H19.8686C19.817 31.793 19.7654 31.8274 19.7568 31.879C19.4386 33.5044 19.043 35.1126 18.6302 35.5684C16.592 37.8732 10.5118 37.0648 9.23037 38.329C8.70577 38.8536 8.56817 40.0318 8.55957 41.1154V45.9744C8.55957 46.0346 8.61117 46.0776 8.67137 46.0776H36.3032C36.3634 46.0776 36.415 46.0346 36.415 45.9744V41.1154C36.4236 40.0404 36.286 38.8536 35.7614 38.329Z" fill="url(#paint2_linear_6202_100)"/>
<path d="M15.6032 19.6582C16.5664 15.4442 19.6022 13.7586 22.4489 13.707H22.5865C25.4245 13.7586 28.4603 15.4528 29.4149 19.6754C30.7909 25.7556 28.4001 29.5568 25.6911 31.8616C24.5903 32.7904 23.5497 33.2118 22.5693 33.2118H22.4317C21.4427 33.2118 20.4021 32.7904 19.3098 31.853C16.5836 29.5482 14.21 25.7384 15.6032 19.6582Z" fill="url(#paint3_linear_6202_100)"/>
<path d="M22.8955 28.5684C22.7235 28.5684 22.5171 28.792 22.4397 28.792C22.3623 28.792 22.1559 28.5684 21.9839 28.5684C21.5969 28.5684 20.2983 29.2134 20.2983 29.2134C20.2983 29.2134 20.5993 29.4284 20.8487 29.5316C21.4593 29.7724 21.9323 29.9874 22.4397 29.9874C22.9471 29.9874 23.4201 29.7724 24.0307 29.5316C24.2801 29.437 24.5811 29.2134 24.5811 29.2134C24.5811 29.2134 23.2825 28.5684 22.8955 28.5684Z" fill="url(#paint4_linear_6202_100)"/>
<path d="M14.8804 23.9154C15.018 24.182 15.3362 24.268 15.5684 24.0874L18.931 21.516C20.4704 20.2948 24.521 18.0932 25.7766 17.1558C25.9916 17.001 26.284 17.0526 26.4302 17.2762C27.918 19.5294 28.7694 21.8084 29.208 23.408C29.337 23.881 29.9304 23.924 30.111 23.4682C30.5754 22.3158 31.143 20.0712 30.7388 17.2332C30.1626 13.1482 27.8664 10.3704 24.134 10.0952C23.4546 10.0436 15.5082 9.72541 14.1924 17.2332C13.5732 20.785 14.4074 23.0038 14.8804 23.9154Z" fill="url(#paint5_linear_6202_100)"/>
<path d="M28.2443 36.6693C27.2811 38.3033 25.0709 39.4471 22.4995 39.4471C19.9281 39.4471 17.7179 38.3033 16.7547 36.6693C16.7547 36.6693 15.6195 36.2651 12.4375 46.0863H32.5615C29.3881 36.2651 28.2443 36.6693 28.2443 36.6693Z" fill="url(#paint6_linear_6202_100)"/>
<path fill-rule="evenodd" clip-rule="evenodd" d="M18.8269 9.98771C19.2434 9.87515 20.7456 9.62988 22.7156 9.62988C23.6741 9.62988 24.4669 9.63414 25.0872 9.65287C25.6862 9.67095 26.194 9.70355 26.5431 9.7792C27.0266 9.88396 27.3337 10.3609 27.2289 10.8444C27.1242 11.3279 26.6472 11.635 26.1637 11.5302C25.9968 11.4941 25.6446 11.4622 25.0331 11.4437C24.443 11.4259 23.6749 11.4215 22.7156 11.4215C20.85 11.4215 19.5143 11.6579 19.2943 11.7173C18.8167 11.8464 18.3249 11.5639 18.1958 11.0862C18.0667 10.6086 18.3493 10.1168 18.8269 9.98771Z" fill="#FD3D00"/>
</g>
</g>
<defs>
<filter id="filter0_d_6202_100" x="-30" y="-18" width="110" height="110" filterUnits="userSpaceOnUse" color-interpolation-filters="sRGB">
<feFlood flood-opacity="0" result="BackgroundImageFix"/>
<feColorMatrix in="SourceAlpha" type="matrix" values="0 0 0 0 0 0 0 0 0 0 0 0 0 0 0 0 0 0 127 0" result="hardAlpha"/>
<feOffset dy="12"/>
<feGaussianBlur stdDeviation="15"/>
<feColorMatrix type="matrix" values="0 0 0 0 0.0784314 0 0 0 0 0.156863 0 0 0 0 0.313726 0 0 0 0.05 0"/>
<feBlend mode="normal" in2="BackgroundImageFix" result="effect1_dropShadow_6202_100"/>
<feBlend mode="normal" in="SourceGraphic" in2="effect1_dropShadow_6202_100" result="shape"/>
</filter>
<linearGradient id="paint0_linear_6202_100" x1="30.8167" y1="26.0095" x2="29.1397" y2="25.5794" gradientUnits="userSpaceOnUse">
<stop stop-color="#FFCA9D"/>
<stop offset="1" stop-color="#FFD9A9"/>
</linearGradient>
<linearGradient id="paint1_linear_6202_100" x1="13.5563" y1="25.6745" x2="15.69" y2="25.6745" gradientUnits="userSpaceOnUse">
<stop stop-color="#FFCA9D"/>
<stop offset="1" stop-color="#FFD9A9"/>
</linearGradient>
<linearGradient id="paint2_linear_6202_100" x1="22.1631" y1="32.0272" x2="22.6394" y2="48.2189" gradientUnits="userSpaceOnUse">
<stop offset="0.032" stop-color="#FAAF87"/>
<stop offset="0.82" stop-color="#FFD9A9"/>
</linearGradient>
<linearGradient id="paint3_linear_6202_100" x1="20.7723" y1="15.8307" x2="24.5564" y2="31.3966" gradientUnits="userSpaceOnUse">
<stop offset="0.032" stop-color="#FAAF87"/>
<stop offset="1" stop-color="#FFD9A9"/>
</linearGradient>
<linearGradient id="paint4_linear_6202_100" x1="22.4213" y1="28.8508" x2="22.4866" y2="29.9492" gradientUnits="userSpaceOnUse">
<stop stop-color="#FF0036"/>
<stop offset="1" stop-color="#FF2651"/>
</linearGradient>
<linearGradient id="paint5_linear_6202_100" x1="13.9713" y1="17.1354" x2="30.8738" y2="17.1354" gradientUnits="userSpaceOnUse">
<stop/>
<stop offset="1" stop-color="#111111"/>
</linearGradient>
<linearGradient id="paint6_linear_6202_100" x1="22.6092" y1="34.3872" x2="22.4943" y2="46.6202" gradientUnits="userSpaceOnUse">
<stop offset="0.549" stop-color="#FD8900"/>
<stop offset="0.995" stop-color="#FF515F"/>
</linearGradient>
<clipPath id="clip0_6202_100">
<rect width="45" height="45" rx="22.5" fill="white"/>
</clipPath>
<clipPath id="clip1_6202_100">
<rect width="43" height="43" fill="white" transform="translate(1 3)"/>
</clipPath>
</defs>
</svg>
