<svg width="16" height="9" viewBox="0 0 16 9" fill="none" xmlns="http://www.w3.org/2000/svg">
<path d="M8.4048 0.578125H8.96724C9.01374 0.583875 9.0607 0.587632 9.10785 0.589375C9.75103 0.627051 10.372 0.771109 10.9189 1.00955C11.136 1.10836 11.3361 1.22423 11.5151 1.35488C11.6557 1.46186 11.7819 1.57762 11.8919 1.70071C11.958 1.77574 12.0178 1.85331 12.0712 1.93305C12.2338 2.17919 12.3358 2.4426 12.3728 2.71225C12.3834 2.75579 12.3785 2.79981 12.3897 2.84334C12.3953 2.89617 12.3897 2.949 12.3897 3.00232C12.3933 3.06352 12.3905 3.12482 12.3813 3.18574C12.3695 3.34222 12.3411 3.49786 12.2962 3.65141C12.273 3.74337 12.2322 3.8319 12.2062 3.92337C11.9405 4.66295 11.6747 5.4027 11.4089 6.14261C11.3654 6.27957 11.3119 6.41506 11.2648 6.55153C11.2387 6.64104 11.1912 6.72685 11.1242 6.8054C11.0694 6.86459 11.0015 6.91741 10.9231 6.96193C10.7345 7.06187 10.5036 7.11539 10.2665 7.11405C10.1664 7.10983 10.0675 7.09702 9.97191 7.0759C9.8699 7.05249 9.7772 7.01279 9.70123 6.95997C9.59883 6.8934 9.538 6.80156 9.53179 6.70415C9.52658 6.644 9.53804 6.58372 9.56554 6.52659C9.69162 6.17604 9.8177 5.82548 9.94378 5.47493C9.99862 5.32819 10.0464 5.17753 10.1006 5.02932C10.2838 4.51866 10.4673 4.00799 10.6511 3.49733C10.6951 3.37225 10.7236 3.24477 10.7361 3.11629C10.7403 3.01726 10.7367 2.91814 10.7256 2.81938C10.7084 2.69583 10.6653 2.57471 10.5976 2.45986C10.5353 2.34917 10.4451 2.24713 10.3312 2.15854C10.2937 2.12885 10.2528 2.10136 10.2088 2.07637C10.191 2.06343 10.1717 2.0515 10.1512 2.04066C10.034 1.97603 9.90486 1.92257 9.76732 1.88169C9.64594 1.8416 9.51895 1.81029 9.38837 1.78826C9.20865 1.75178 9.02344 1.72995 8.83647 1.72321C8.75266 1.71694 8.66832 1.71481 8.58408 1.71685C8.51799 1.71685 8.45331 1.72663 8.38722 1.72565C8.07738 1.7465 7.77288 1.79584 7.48169 1.8724C7.29064 1.92123 7.1054 1.98044 6.92768 2.04947C6.71207 2.13557 6.50991 2.23704 6.32446 2.35225C6.26119 2.39676 6.19651 2.44078 6.13323 2.48529C6.00494 2.5831 5.89959 2.69436 5.82108 2.81497C5.74233 2.99351 5.67554 3.17498 5.60313 3.35303C5.51525 3.58586 5.42455 3.81869 5.34089 4.05202C5.23965 4.31615 5.14685 4.58225 5.03998 4.84589C4.99311 4.95644 4.94413 5.06682 4.89305 5.17704C4.87535 5.23852 4.84776 5.29841 4.81079 5.35558C4.67276 5.55596 4.40358 5.69729 4.08875 5.73467C3.8765 5.76606 3.65505 5.74056 3.46866 5.66325C3.30634 5.589 3.19934 5.46874 3.17619 5.33455C3.16262 5.29499 3.16262 5.25377 3.17619 5.21422C3.42648 4.64241 3.62614 4.06082 3.8455 3.48314C3.96712 3.15737 4.08875 2.8316 4.22514 2.50828C4.25762 2.42962 4.30241 2.35367 4.35873 2.28181C4.51016 2.06799 4.70477 1.87033 4.93664 1.69484L5.2045 1.50896C5.34372 1.42213 5.48945 1.34049 5.6411 1.26439C5.71843 1.22037 5.80702 1.1876 5.88857 1.14798C6.21928 1.00493 6.5715 0.887488 6.93893 0.79775C7.02892 0.776717 7.1168 0.748836 7.2089 0.734651C7.40224 0.694315 7.5987 0.661653 7.79736 0.636822C7.95133 0.614322 8.10811 0.604539 8.26419 0.587908C8.31142 0.588115 8.35856 0.584836 8.4048 0.578125V0.578125Z" fill="#00579C"/>
<path d="M2.01559 1.89492C2.07045 1.89492 2.12389 1.88428 2.17874 1.88478C2.32259 1.8899 2.46404 1.91341 2.59647 1.95421C2.68969 1.98511 2.77015 2.03296 2.82995 2.09305C2.90082 2.16835 2.9224 2.26223 2.88902 2.34997C2.81869 2.54659 2.7547 2.74421 2.67805 2.94032C2.596 3.1768 2.51372 3.41328 2.43121 3.64976C2.37003 3.83016 2.30111 4.00954 2.24133 4.18994C2.17101 4.39568 2.10068 4.60142 2.03036 4.80766C1.96918 4.97032 1.91503 5.134 1.85736 5.29717C1.78742 5.47221 1.7475 5.65278 1.73852 5.83482C1.72754 5.88213 1.72754 5.93042 1.73852 5.97772C1.74239 6.16952 1.80154 6.35865 1.91222 6.53311C1.96231 6.60454 2.02164 6.67241 2.08943 6.7358C2.14075 6.78257 2.1977 6.82598 2.25962 6.86553C2.32873 6.90854 2.40232 6.94768 2.47973 6.98259C2.56456 7.02037 2.65265 7.05422 2.74345 7.08393C2.9464 7.14224 3.15705 7.18553 3.37214 7.21315C3.57238 7.23711 3.7757 7.24493 3.97834 7.23646C4.48756 7.21253 4.98406 7.11152 5.43545 6.94002C5.70136 6.84068 5.94837 6.71703 6.17034 6.57213C6.29941 6.4857 6.41496 6.38935 6.51493 6.2848C6.58042 6.22245 6.63126 6.15278 6.66542 6.07856C6.93195 5.41473 7.15769 4.7428 7.40523 4.07542C7.45587 3.94367 7.51705 3.81445 7.5705 3.6832C7.61858 3.56062 7.70304 3.44703 7.81804 3.35027C7.88379 3.29204 7.96331 3.24263 8.05292 3.20433C8.2425 3.12098 8.46511 3.08534 8.68584 3.10299C8.79193 3.11039 8.89507 3.13241 8.98964 3.16785C9.10772 3.2066 9.20501 3.27208 9.26671 3.35433C9.31903 3.43328 9.33098 3.52301 9.30047 3.6077C9.1338 4.00701 8.98612 4.41037 8.84336 4.81425C8.64646 5.35798 8.45728 5.90272 8.23998 6.4424C8.22007 6.49102 8.19443 6.53832 8.16333 6.58378C8.10929 6.67287 8.04605 6.75892 7.97416 6.84121C7.8513 6.98751 7.70829 7.12452 7.54729 7.25014C7.48118 7.30994 7.39961 7.3596 7.32718 7.41483C7.1831 7.51122 7.03167 7.60173 6.87358 7.68594C6.62199 7.81781 6.35492 7.93362 6.07541 8.03204C5.94671 8.0736 5.81942 8.11819 5.68722 8.15417C5.57259 8.19015 5.45163 8.21447 5.33559 8.24538C5.15346 8.28795 4.9678 8.32038 4.78144 8.35028C4.71112 8.36041 4.64079 8.367 4.57047 8.37764C4.46147 8.39183 4.35176 8.3974 4.24276 8.40956C4.18621 8.41048 4.12982 8.4142 4.07398 8.42071H3.51139C3.49081 8.4163 3.46955 8.41374 3.44809 8.41311C3.36793 8.41311 3.28916 8.39842 3.20899 8.39538C2.96614 8.37299 2.72656 8.335 2.49309 8.28187C2.23186 8.22467 1.97984 8.14755 1.74133 8.05181C1.5683 7.97998 1.40366 7.89812 1.24906 7.80705C1.20124 7.77563 1.1492 7.74827 1.10841 7.71381C1.03809 7.66314 0.962136 7.61246 0.897438 7.55723C0.480887 7.21095 0.213738 6.78456 0.128795 6.33041C0.111214 6.25896 0.108401 6.18599 0.0908203 6.11251V5.70205C0.0983622 5.67431 0.10283 5.64619 0.104182 5.61793C0.129781 5.41492 0.179423 5.21386 0.252566 5.01694C0.371414 4.67945 0.483932 4.34095 0.604187 4.00346C0.697952 3.7332 0.791718 3.46294 0.885483 3.19268C0.974092 2.95502 1.05215 2.71482 1.13654 2.47615C1.15223 2.41607 1.17578 2.35719 1.20686 2.30031C1.24521 2.23505 1.29926 2.17518 1.3665 2.12346C1.40166 2.09913 1.43682 2.07278 1.47128 2.04998C1.6279 1.96121 1.81707 1.90731 2.01559 1.89492Z" fill="#DA251C"/>
</svg>
