<svg width="20" height="20" viewBox="0 0 20 20" fill="none" xmlns="http://www.w3.org/2000/svg">
<g clip-path="url(#clip0_6202_5060)">
<path d="M16.6668 6.66561C16.6692 5.58633 16.4095 4.5226 15.91 3.56584C15.4105 2.60908 14.6862 1.7879 13.7993 1.17284C12.9124 0.557777 11.8895 0.167238 10.8184 0.0347763C9.74724 -0.0976853 8.65996 0.0318911 7.64997 0.412372C6.63997 0.792852 5.73745 1.41286 5.01995 2.21912C4.30245 3.02539 3.79143 3.99379 3.5308 5.04114C3.27017 6.08848 3.26772 7.18345 3.52365 8.23195C3.77959 9.28045 4.28627 10.2511 5.00015 11.0606V17.9156C5.00014 18.3081 5.11099 18.6925 5.31992 19.0248C5.52886 19.357 5.82738 19.6234 6.18112 19.7934C6.53485 19.9634 6.9294 20.03 7.31933 19.9856C7.70927 19.9412 8.07872 19.7875 8.38515 19.5423L9.74015 18.4589C9.81398 18.4 9.90566 18.3679 10.0001 18.3679C10.0946 18.3679 10.1863 18.4 10.2601 18.4589L11.6151 19.5423C11.9216 19.7875 12.291 19.9412 12.681 19.9856C13.0709 20.03 13.4654 19.9634 13.8192 19.7934C14.1729 19.6234 14.4714 19.357 14.6804 19.0248C14.8893 18.6925 15.0002 18.3081 15.0001 17.9156V11.0606C16.0737 9.84827 16.6666 8.28498 16.6668 6.66561ZM10.0001 1.66561C10.9891 1.66561 11.9558 1.95886 12.778 2.50826C13.6002 3.05767 14.2411 3.83856 14.6195 4.75219C14.998 5.66582 15.097 6.67116 14.9041 7.64106C14.7111 8.61097 14.2349 9.50188 13.5357 10.2011C12.8364 10.9004 11.9455 11.3766 10.9756 11.5695C10.0057 11.7625 9.00036 11.6634 8.08673 11.285C7.1731 10.9066 6.39221 10.2657 5.8428 9.44346C5.29339 8.62122 5.00015 7.65452 5.00015 6.66561C5.00147 5.33993 5.52868 4.06893 6.46607 3.13154C7.40347 2.19414 8.67447 1.66693 10.0001 1.66561ZM13.0976 18.2889C13.0271 18.3239 12.9481 18.3377 12.8699 18.3289C12.7917 18.32 12.7177 18.2888 12.6568 18.2389L11.3018 17.1556C10.933 16.8585 10.4737 16.6966 10.0001 16.6966C9.52659 16.6966 9.06727 16.8585 8.69848 17.1556L7.34431 18.2389C7.28317 18.288 7.20941 18.3189 7.13152 18.3279C7.05364 18.3369 6.97478 18.3238 6.90402 18.2901C6.83325 18.2563 6.77345 18.2032 6.73149 18.137C6.68953 18.0708 6.66711 17.994 6.66681 17.9156V12.4306C7.67845 13.0211 8.82879 13.3322 10.0001 13.3322C11.1715 13.3322 12.3218 13.0211 13.3335 12.4306V17.9156C13.3344 17.994 13.3126 18.0709 13.2708 18.1372C13.2289 18.2034 13.1688 18.2561 13.0976 18.2889Z" fill="white"/>
</g>
<defs>
<clipPath id="clip0_6202_5060">
<rect width="20" height="20" fill="white"/>
</clipPath>
</defs>
</svg>
