<svg width="45" height="45" viewBox="0 0 45 45" fill="none" xmlns="http://www.w3.org/2000/svg">
<circle cx="22.5" cy="22.5" r="22.5" fill="#614BFF"/>
<path d="M21.5126 33.9517C21.5126 33.7358 21.574 33.5247 21.6889 33.3451C21.8039 33.1656 21.9673 33.0257 22.1585 32.943C22.3497 32.8604 22.56 32.8388 22.763 32.8809C22.966 32.923 23.1524 33.027 23.2987 33.1797C23.445 33.3324 23.5447 33.5269 23.5851 33.7387C23.6254 33.9505 23.6047 34.17 23.5255 34.3695C23.4463 34.569 23.3122 34.7395 23.1402 34.8595C22.9681 34.9794 22.7658 35.0435 22.5589 35.0435C22.2814 35.0435 22.0153 34.9285 21.819 34.7237C21.6228 34.519 21.5126 34.2413 21.5126 33.9517ZM26.2575 31.635C26.4536 31.4302 26.5638 31.1526 26.5638 30.8631C26.5638 30.5736 26.4536 30.2959 26.2575 30.0912C25.2765 29.0678 23.9461 28.4929 22.5589 28.4929C21.1717 28.4929 19.8413 29.0678 18.8603 30.0912C18.6697 30.2971 18.5642 30.5729 18.5666 30.8591C18.569 31.1454 18.679 31.4192 18.873 31.6217C19.067 31.8241 19.3294 31.9389 19.6038 31.9414C19.8781 31.9439 20.1424 31.8338 20.3397 31.635C20.9379 31.04 21.7325 30.7081 22.5589 30.7081C23.3852 30.7081 24.1799 31.04 24.7781 31.635C24.9743 31.8396 25.2403 31.9546 25.5178 31.9546C25.7952 31.9546 26.0613 31.8396 26.2575 31.635ZM29.2174 28.5474C29.4136 28.3427 29.5238 28.065 29.5238 27.7755C29.5238 27.486 29.4136 27.2084 29.2174 27.0036C27.4501 25.1636 25.0555 24.1301 22.5589 24.1301C20.0623 24.1301 17.6676 25.1636 15.9003 27.0036C15.7097 27.2096 15.6043 27.4853 15.6067 27.7716C15.609 28.0579 15.7191 28.3317 15.9131 28.5341C16.1071 28.7365 16.3695 28.8514 16.6438 28.8538C16.9181 28.8563 17.1824 28.7463 17.3798 28.5474C18.7548 27.1169 20.6172 26.3137 22.5589 26.3137C24.5005 26.3137 26.363 27.1169 27.738 28.5474C27.9342 28.7521 28.2003 28.8671 28.4777 28.8671C28.7552 28.8671 29.0212 28.7521 29.2174 28.5474ZM16.2676 33.0357C16.2897 32.8942 16.2849 32.7495 16.2534 32.6099C16.222 32.4704 16.1645 32.3386 16.0842 32.2222C16.004 32.1059 15.9025 32.0071 15.7857 31.9316C15.6689 31.8561 15.539 31.8054 15.4033 31.7823C14.6127 31.6519 13.8781 31.276 13.2951 30.7037C12.7121 30.1314 12.3077 29.3891 12.1347 28.5736C12.0222 27.7938 12.1454 26.9968 12.4873 26.2935C12.8291 25.5902 13.3726 25.0156 14.0421 24.6498C14.5241 24.3738 14.8826 23.911 15.0402 23.3615C15.1978 22.8119 15.1418 22.2197 14.8844 21.7129C14.4775 20.9044 14.2372 20.0161 14.1788 19.1049C14.1203 18.1938 14.2451 17.28 14.5451 16.4221C14.8451 15.5643 15.3136 14.7813 15.9207 14.1236C16.5277 13.4658 17.2599 12.9478 18.0701 12.6027C18.8803 12.2576 19.7508 12.0931 20.6255 12.1197C21.5003 12.1463 22.36 12.3635 23.1496 12.7573C23.9392 13.1511 24.6411 13.7128 25.2104 14.4063C25.7797 15.0999 26.2037 15.91 26.4552 16.7846C26.6101 17.3116 26.886 17.7912 27.2589 18.1816C27.6317 18.5721 28.0904 18.8616 28.5949 19.0249C29.9617 19.4591 31.1447 20.369 31.9466 21.6029C32.7485 22.8368 33.121 24.3203 33.0019 25.806C32.9083 26.9217 32.5273 27.9902 31.8992 28.8983C31.2711 29.8065 30.4193 30.5205 29.434 30.9646C29.19 31.093 29.0038 31.3158 28.9153 31.5855C28.8267 31.8553 28.8427 32.1505 28.96 32.408C29.0772 32.6655 29.2864 32.865 29.5427 32.9637C29.7991 33.0625 30.0823 33.0526 30.3317 32.9364C31.653 32.3321 32.7929 31.366 33.6305 30.1404C34.4681 28.9148 34.9722 27.4755 35.0892 25.9752C35.2472 23.9944 34.7497 22.0169 33.6797 20.3724C32.6097 18.728 31.0318 17.516 29.2091 16.9386C29.0296 16.8804 28.8667 16.7767 28.7349 16.6369C28.6031 16.4971 28.5065 16.3254 28.4537 16.1372C27.8998 14.2813 26.7684 12.6712 25.2386 11.5619C23.7089 10.4526 21.8682 9.90746 20.0081 10.0129C18.148 10.1182 16.3748 10.8681 14.9691 12.1437C13.5635 13.4193 12.6058 15.1478 12.2477 17.0554C11.882 18.9855 12.1697 20.9883 13.0618 22.7217C12.0102 23.2954 11.1563 24.1969 10.6189 25.3008C10.0814 26.4047 9.88712 27.6559 10.0631 28.8804C10.3022 30.1557 10.9098 31.324 11.8043 32.2282C12.6988 33.1323 13.8373 33.7288 15.0664 33.9375C15.202 33.9606 15.3407 33.9556 15.4745 33.9228C15.6082 33.8899 15.7345 33.8299 15.846 33.7462C15.9575 33.6625 16.0522 33.5566 16.1245 33.4347C16.1968 33.3128 16.2455 33.1772 16.2676 33.0357Z" fill="#F9F9F9"/>
</svg>
