<svg width="25" height="24" viewBox="0 0 25 24" fill="none" xmlns="http://www.w3.org/2000/svg">
<path d="M12.9365 2C7.51552 2 2.93652 6.579 2.93652 12C2.93652 15.189 4.52852 18.078 6.93652 19.924V20H7.03852C8.70652 21.245 10.7495 22 12.9365 22C15.1235 22 17.1665 21.245 18.8345 20H18.9365V19.924C21.3445 18.078 22.9365 15.19 22.9365 12C22.9365 6.579 18.3575 2 12.9365 2ZM9.01052 18.927C9.30752 17.582 10.5045 16.573 11.9365 16.573H13.9365C15.3685 16.573 16.5655 17.583 16.8625 18.927C15.6945 19.604 14.3525 20 12.9365 20C11.5205 20 10.1785 19.604 9.01052 18.927ZM18.5465 17.641C17.7895 15.841 16.0085 14.573 13.9365 14.573H11.9365C9.86452 14.573 8.08252 15.842 7.32652 17.641C5.85952 16.182 4.93652 14.176 4.93652 12C4.93652 7.663 8.59952 4 12.9365 4C17.2735 4 20.9365 7.663 20.9365 12C20.9365 14.176 20.0135 16.182 18.5465 17.641Z" fill="#343EDF"/>
<path d="M12.9365 6C10.6565 6 8.93652 7.72 8.93652 10C8.93652 12.28 10.6565 14 12.9365 14C15.2165 14 16.9365 12.28 16.9365 10C16.9365 7.72 15.2165 6 12.9365 6ZM12.9365 12C11.7585 12 10.9365 11.178 10.9365 10C10.9365 8.822 11.7585 8 12.9365 8C14.1145 8 14.9365 8.822 14.9365 10C14.9365 11.178 14.1145 12 12.9365 12Z" fill="#343EDF"/>
</svg>
