<svg width="20" height="21" viewBox="0 0 20 21" fill="none" xmlns="http://www.w3.org/2000/svg">
<path d="M18.9108 12.3821L17.3275 6.68547C16.8634 5.01658 15.8548 3.55071 14.4619 2.52086C13.0691 1.49102 11.372 0.956293 9.64036 1.00169C7.90874 1.04709 6.24198 1.67001 4.90503 2.77143C3.56807 3.87285 2.63765 5.38956 2.26164 7.08047L1.03581 12.593C0.900405 13.2021 0.903535 13.8338 1.04497 14.4416C1.1864 15.0493 1.46253 15.6175 1.85296 16.1043C2.24339 16.591 2.73816 16.9838 3.30073 17.2538C3.86331 17.5237 4.47933 17.6638 5.10331 17.6638H6.03164C6.2229 18.6057 6.73392 19.4525 7.47809 20.0608C8.22227 20.669 9.15385 21.0013 10.115 21.0013C11.0761 21.0013 12.0077 20.669 12.7519 20.0608C13.496 19.4525 14.007 18.6057 14.1983 17.6638H14.8966C15.539 17.6639 16.1726 17.5154 16.7481 17.23C17.3236 16.9446 17.8253 16.5301 18.214 16.0187C18.6027 15.5073 18.868 14.913 18.989 14.2822C19.11 13.6513 19.0835 13.0011 18.9116 12.3821H18.9108ZM10.115 19.3305C9.59976 19.3283 9.09778 19.1671 8.67773 18.8687C8.25767 18.5704 7.94004 18.1496 7.76831 17.6638H12.4616C12.2899 18.1496 11.9723 18.5704 11.5522 18.8687C11.1322 19.1671 10.6302 19.3283 10.115 19.3305ZM16.8866 15.0096C16.6544 15.3177 16.3536 15.5674 16.008 15.7388C15.6624 15.9102 15.2816 15.9987 14.8958 15.9971H5.10331C4.72896 15.9971 4.35941 15.9129 4.02193 15.751C3.68444 15.589 3.38765 15.3533 3.15344 15.0612C2.91924 14.7692 2.75361 14.4283 2.66878 14.0637C2.58394 13.6991 2.58208 13.3201 2.66331 12.9546L3.88831 7.4413C4.1836 6.11314 4.9144 4.92181 5.96452 4.05668C7.01465 3.19155 8.32383 2.70228 9.68395 2.66665C11.0441 2.63102 12.3771 3.05107 13.4711 3.86003C14.565 4.66899 15.3572 5.82043 15.7216 7.1313L17.305 12.828C17.4096 13.1991 17.4263 13.5895 17.3536 13.9682C17.281 14.347 17.1211 14.7035 16.8866 15.0096Z" fill="#343EDF"/>
</svg>
