<svg width="21" height="20" viewBox="0 0 21 20" fill="none" xmlns="http://www.w3.org/2000/svg">
<g clip-path="url(#clip0_6247_1735)">
<path d="M16.7303 6.66659C16.7326 5.5873 16.4729 4.52358 15.9735 3.56682C15.474 2.61006 14.7497 1.78887 13.8628 1.17381C12.9759 0.558753 11.953 0.168214 10.8818 0.0357528C9.81071 -0.0967088 8.72344 0.0328676 7.71344 0.413348C6.70344 0.793829 5.80092 1.41384 5.08343 2.2201C4.36593 3.02636 3.85491 3.99477 3.59428 5.04212C3.33364 6.08946 3.33119 7.18443 3.58713 8.23293C3.84307 9.28143 4.34974 10.2521 5.06362 11.0616V17.9166C5.06362 18.309 5.17447 18.6935 5.3834 19.0257C5.59234 19.358 5.89086 19.6244 6.24459 19.7944C6.59832 19.9644 6.99288 20.031 7.38281 19.9866C7.77274 19.9421 8.1422 19.7885 8.44862 19.5433L9.80362 18.4599C9.87746 18.401 9.96914 18.3688 10.0636 18.3688C10.1581 18.3688 10.2498 18.401 10.3236 18.4599L11.6786 19.5433C11.985 19.7885 12.3545 19.9421 12.7444 19.9866C13.1344 20.031 13.5289 19.9644 13.8827 19.7944C14.2364 19.6244 14.5349 19.358 14.7438 19.0257C14.9528 18.6935 15.0636 18.309 15.0636 17.9166V11.0616C16.1372 9.84925 16.73 8.28595 16.7303 6.66659ZM10.0636 1.66659C11.0525 1.66659 12.0192 1.95983 12.8415 2.50924C13.6637 3.05865 14.3046 3.83954 14.683 4.75317C15.0615 5.6668 15.1605 6.67213 14.9675 7.64204C14.7746 8.61194 14.2984 9.50286 13.5992 10.2021C12.8999 10.9014 12.009 11.3776 11.0391 11.5705C10.0692 11.7634 9.06384 11.6644 8.15021 11.286C7.23658 10.9075 6.45568 10.2667 5.90628 9.44444C5.35687 8.62219 5.06362 7.65549 5.06362 6.66659C5.06495 5.34091 5.59216 4.06991 6.52955 3.13252C7.46695 2.19512 8.73795 1.66791 10.0636 1.66659ZM13.1611 18.2899C13.0906 18.3249 13.0115 18.3387 12.9333 18.3299C12.8552 18.321 12.7812 18.2898 12.7203 18.2399L11.3653 17.1566C10.9965 16.8595 10.5372 16.6975 10.0636 16.6975C9.59006 16.6975 9.13075 16.8595 8.76196 17.1566L7.40779 18.2399C7.34664 18.289 7.27289 18.3198 7.195 18.3289C7.11711 18.3379 7.03826 18.3248 6.96749 18.291C6.89673 18.2573 6.83693 18.2042 6.79497 18.138C6.75301 18.0717 6.73059 17.995 6.73029 17.9166V12.4316C7.74193 13.0221 8.89227 13.3332 10.0636 13.3332C11.235 13.3332 12.3853 13.0221 13.397 12.4316V17.9166C13.3979 17.9949 13.3761 18.0719 13.3343 18.1381C13.2924 18.2044 13.2323 18.2571 13.1611 18.2899Z" fill="#343EDF"/>
</g>
<defs>
<clipPath id="clip0_6247_1735">
<rect width="20" height="20" fill="white" transform="translate(0.0634766)"/>
</clipPath>
</defs>
</svg>
