<svg width="70" height="70" viewBox="0 0 70 70" fill="none" xmlns="http://www.w3.org/2000/svg">
<circle cx="35" cy="35" r="35" fill="#FF438B"/>
<g clip-path="url(#clip0_6090_11479)">
<path d="M34.9997 51.6663C31.7688 51.6663 29.1403 49.0378 29.1403 45.807V40.7939H24.1924C20.9615 40.7939 18.333 38.1654 18.333 34.9346C18.333 31.7037 20.9615 29.0752 24.1924 29.0752H29.1403V24.1924C29.1403 20.9615 31.7688 18.333 34.9997 18.333C38.2305 18.333 40.859 20.9615 40.859 24.1924V29.0752H45.807C49.0378 29.0752 51.6663 31.7037 51.6663 34.9346C51.6663 35.6537 51.0834 36.2367 50.3643 36.2367C49.6451 36.2367 49.0622 35.6537 49.0622 34.9346C49.0622 33.1396 47.6019 31.6794 45.807 31.6794H39.557C38.8378 31.6794 38.2549 31.0964 38.2549 30.3773V24.1924C38.2549 22.3975 36.7946 20.9372 34.9997 20.9372C33.2048 20.9372 31.7445 22.3975 31.7445 24.1924V30.3773C31.7445 31.0964 31.1615 31.6794 30.4424 31.6794H24.1924C22.3975 31.6794 20.9372 33.1396 20.9372 34.9346C20.9372 36.7295 22.3975 38.1898 24.1924 38.1898H30.4424C31.1615 38.1898 31.7445 38.7727 31.7445 39.4919V45.807C31.7445 47.6019 33.2048 49.0622 34.9997 49.0622C36.7946 49.0622 38.2549 47.6019 38.2549 45.807V39.4919C38.2549 38.7727 38.8378 38.1898 39.557 38.1898C40.2761 38.1898 40.859 38.7727 40.859 39.4919V45.807C40.859 49.0378 38.2305 51.6663 34.9997 51.6663Z" fill="white"/>
<path d="M45.807 40.7939H44.6351C43.9159 40.7939 43.333 40.211 43.333 39.4918C43.333 38.7727 43.9159 38.1897 44.6351 38.1897H45.807C46.2428 38.1897 46.6807 38.0949 47.1086 37.908C47.7676 37.6202 48.5352 37.9209 48.823 38.5799C49.1109 39.2388 48.8101 40.0065 48.1512 40.2944C47.3925 40.6259 46.6038 40.7939 45.807 40.7939Z" fill="white"/>
</g>
<defs>
<clipPath id="clip0_6090_11479">
<rect width="40" height="40" fill="white" transform="translate(15 15)"/>
</clipPath>
</defs>
</svg>
