<svg width="329" height="166" viewBox="0 0 329 166" fill="none" xmlns="http://www.w3.org/2000/svg">
<path d="M1.5 53C1.5 29.5279 20.5279 10.5 44 10.5H285C308.472 10.5 327.5 29.5279 327.5 53V133.446C327.5 142.191 321.221 149.696 312.616 151.162C204.248 169.63 131.3 168.334 16.7743 150.896C7.99153 149.559 1.5 141.973 1.5 133.082V53Z" fill="#5634DF" stroke="url(#paint0_linear_5935_10900)" stroke-width="3"/>
<path d="M58.576 139.084C58.024 139.084 57.528 138.988 57.088 138.796C56.656 138.596 56.316 138.324 56.068 137.98C55.82 137.628 55.692 137.224 55.684 136.768H56.848C56.888 137.16 57.048 137.492 57.328 137.764C57.616 138.028 58.032 138.16 58.576 138.16C59.096 138.16 59.504 138.032 59.8 137.776C60.104 137.512 60.256 137.176 60.256 136.768C60.256 136.448 60.168 136.188 59.992 135.988C59.816 135.788 59.596 135.636 59.332 135.532C59.068 135.428 58.712 135.316 58.264 135.196C57.712 135.052 57.268 134.908 56.932 134.764C56.604 134.62 56.32 134.396 56.08 134.092C55.848 133.78 55.732 133.364 55.732 132.844C55.732 132.388 55.848 131.984 56.08 131.632C56.312 131.28 56.636 131.008 57.052 130.816C57.476 130.624 57.96 130.528 58.504 130.528C59.288 130.528 59.928 130.724 60.424 131.116C60.928 131.508 61.212 132.028 61.276 132.676H60.076C60.036 132.356 59.868 132.076 59.572 131.836C59.276 131.588 58.884 131.464 58.396 131.464C57.94 131.464 57.568 131.584 57.28 131.824C56.992 132.056 56.848 132.384 56.848 132.808C56.848 133.112 56.932 133.36 57.1 133.552C57.276 133.744 57.488 133.892 57.736 133.996C57.992 134.092 58.348 134.204 58.804 134.332C59.356 134.484 59.8 134.636 60.136 134.788C60.472 134.932 60.76 135.16 61 135.472C61.24 135.776 61.36 136.192 61.36 136.72C61.36 137.128 61.252 137.512 61.036 137.872C60.82 138.232 60.5 138.524 60.076 138.748C59.652 138.972 59.152 139.084 58.576 139.084ZM68.967 135.46C68.967 135.668 68.955 135.888 68.931 136.12H63.675C63.715 136.768 63.935 137.276 64.335 137.644C64.743 138.004 65.235 138.184 65.811 138.184C66.283 138.184 66.675 138.076 66.987 137.86C67.307 137.636 67.531 137.34 67.659 136.972H68.835C68.659 137.604 68.307 138.12 67.779 138.52C67.251 138.912 66.595 139.108 65.811 139.108C65.187 139.108 64.627 138.968 64.131 138.688C63.643 138.408 63.259 138.012 62.979 137.5C62.699 136.98 62.559 136.38 62.559 135.7C62.559 135.02 62.695 134.424 62.967 133.912C63.239 133.4 63.619 133.008 64.107 132.736C64.603 132.456 65.171 132.316 65.811 132.316C66.435 132.316 66.987 132.452 67.467 132.724C67.947 132.996 68.315 133.372 68.571 133.852C68.835 134.324 68.967 134.86 68.967 135.46ZM67.839 135.232C67.839 134.816 67.747 134.46 67.563 134.164C67.379 133.86 67.127 133.632 66.807 133.48C66.495 133.32 66.147 133.24 65.763 133.24C65.211 133.24 64.739 133.416 64.347 133.768C63.963 134.12 63.743 134.608 63.687 135.232H67.839ZM73.6124 132.304C74.4124 132.304 75.0604 132.548 75.5564 133.036C76.0524 133.516 76.3004 134.212 76.3004 135.124V139H75.2204V135.28C75.2204 134.624 75.0564 134.124 74.7284 133.78C74.4004 133.428 73.9524 133.252 73.3844 133.252C72.8084 133.252 72.3484 133.432 72.0044 133.792C71.6684 134.152 71.5004 134.676 71.5004 135.364V139H70.4084V132.424H71.5004V133.36C71.7164 133.024 72.0084 132.764 72.3764 132.58C72.7524 132.396 73.1644 132.304 73.6124 132.304ZM77.6762 135.688C77.6762 135.016 77.8122 134.428 78.0842 133.924C78.3562 133.412 78.7282 133.016 79.2002 132.736C79.6802 132.456 80.2162 132.316 80.8082 132.316C81.3202 132.316 81.7962 132.436 82.2362 132.676C82.6762 132.908 83.0122 133.216 83.2442 133.6V130.12H84.3482V139H83.2442V137.764C83.0282 138.156 82.7082 138.48 82.2842 138.736C81.8602 138.984 81.3642 139.108 80.7962 139.108C80.2122 139.108 79.6802 138.964 79.2002 138.676C78.7282 138.388 78.3562 137.984 78.0842 137.464C77.8122 136.944 77.6762 136.352 77.6762 135.688ZM83.2442 135.7C83.2442 135.204 83.1442 134.772 82.9442 134.404C82.7442 134.036 82.4722 133.756 82.1282 133.564C81.7922 133.364 81.4202 133.264 81.0122 133.264C80.6042 133.264 80.2322 133.36 79.8962 133.552C79.5602 133.744 79.2922 134.024 79.0922 134.392C78.8922 134.76 78.7922 135.192 78.7922 135.688C78.7922 136.192 78.8922 136.632 79.0922 137.008C79.2922 137.376 79.5602 137.66 79.8962 137.86C80.2322 138.052 80.6042 138.148 81.0122 138.148C81.4202 138.148 81.7922 138.052 82.1282 137.86C82.4722 137.66 82.7442 137.376 82.9442 137.008C83.1442 136.632 83.2442 136.196 83.2442 135.7Z" fill="white"/>
<path d="M153.576 139.084C153.024 139.084 152.528 138.988 152.088 138.796C151.656 138.596 151.316 138.324 151.068 137.98C150.82 137.628 150.692 137.224 150.684 136.768H151.848C151.888 137.16 152.048 137.492 152.328 137.764C152.616 138.028 153.032 138.16 153.576 138.16C154.096 138.16 154.504 138.032 154.8 137.776C155.104 137.512 155.256 137.176 155.256 136.768C155.256 136.448 155.168 136.188 154.992 135.988C154.816 135.788 154.596 135.636 154.332 135.532C154.068 135.428 153.712 135.316 153.264 135.196C152.712 135.052 152.268 134.908 151.932 134.764C151.604 134.62 151.32 134.396 151.08 134.092C150.848 133.78 150.732 133.364 150.732 132.844C150.732 132.388 150.848 131.984 151.08 131.632C151.312 131.28 151.636 131.008 152.052 130.816C152.476 130.624 152.96 130.528 153.504 130.528C154.288 130.528 154.928 130.724 155.424 131.116C155.928 131.508 156.212 132.028 156.276 132.676H155.076C155.036 132.356 154.868 132.076 154.572 131.836C154.276 131.588 153.884 131.464 153.396 131.464C152.94 131.464 152.568 131.584 152.28 131.824C151.992 132.056 151.848 132.384 151.848 132.808C151.848 133.112 151.932 133.36 152.1 133.552C152.276 133.744 152.488 133.892 152.736 133.996C152.992 134.092 153.348 134.204 153.804 134.332C154.356 134.484 154.8 134.636 155.136 134.788C155.472 134.932 155.76 135.16 156 135.472C156.24 135.776 156.36 136.192 156.36 136.72C156.36 137.128 156.252 137.512 156.036 137.872C155.82 138.232 155.5 138.524 155.076 138.748C154.652 138.972 154.152 139.084 153.576 139.084ZM157.559 135.7C157.559 135.02 157.695 134.428 157.967 133.924C158.239 133.412 158.615 133.016 159.095 132.736C159.583 132.456 160.139 132.316 160.763 132.316C161.571 132.316 162.235 132.512 162.755 132.904C163.283 133.296 163.631 133.84 163.799 134.536H162.623C162.511 134.136 162.291 133.82 161.963 133.588C161.643 133.356 161.243 133.24 160.763 133.24C160.139 133.24 159.635 133.456 159.251 133.888C158.867 134.312 158.675 134.916 158.675 135.7C158.675 136.492 158.867 137.104 159.251 137.536C159.635 137.968 160.139 138.184 160.763 138.184C161.243 138.184 161.643 138.072 161.963 137.848C162.283 137.624 162.503 137.304 162.623 136.888H163.799C163.623 137.56 163.271 138.1 162.743 138.508C162.215 138.908 161.555 139.108 160.763 139.108C160.139 139.108 159.583 138.968 159.095 138.688C158.615 138.408 158.239 138.012 157.967 137.5C157.695 136.988 157.559 136.388 157.559 135.7ZM164.848 135.688C164.848 135.016 164.984 134.428 165.256 133.924C165.528 133.412 165.9 133.016 166.372 132.736C166.852 132.456 167.384 132.316 167.968 132.316C168.544 132.316 169.044 132.44 169.468 132.688C169.892 132.936 170.208 133.248 170.416 133.624V132.424H171.52V139H170.416V137.776C170.2 138.16 169.876 138.48 169.444 138.736C169.02 138.984 168.524 139.108 167.956 139.108C167.372 139.108 166.844 138.964 166.372 138.676C165.9 138.388 165.528 137.984 165.256 137.464C164.984 136.944 164.848 136.352 164.848 135.688ZM170.416 135.7C170.416 135.204 170.316 134.772 170.116 134.404C169.916 134.036 169.644 133.756 169.3 133.564C168.964 133.364 168.592 133.264 168.184 133.264C167.776 133.264 167.404 133.36 167.068 133.552C166.732 133.744 166.464 134.024 166.264 134.392C166.064 134.76 165.964 135.192 165.964 135.688C165.964 136.192 166.064 136.632 166.264 137.008C166.464 137.376 166.732 137.66 167.068 137.86C167.404 138.052 167.776 138.148 168.184 138.148C168.592 138.148 168.964 138.052 169.3 137.86C169.644 137.66 169.916 137.376 170.116 137.008C170.316 136.632 170.416 136.196 170.416 135.7ZM176.569 132.304C177.369 132.304 178.017 132.548 178.513 133.036C179.009 133.516 179.257 134.212 179.257 135.124V139H178.177V135.28C178.177 134.624 178.013 134.124 177.685 133.78C177.357 133.428 176.909 133.252 176.341 133.252C175.765 133.252 175.305 133.432 174.961 133.792C174.625 134.152 174.457 134.676 174.457 135.364V139H173.365V132.424H174.457V133.36C174.673 133.024 174.965 132.764 175.333 132.58C175.709 132.396 176.121 132.304 176.569 132.304Z" fill="white"/>
<path d="M247.368 130.636V139H246.276V135.208H242.016V139H240.924V130.636H242.016V134.308H246.276V130.636H247.368ZM249.797 131.356C249.589 131.356 249.413 131.284 249.269 131.14C249.125 130.996 249.053 130.82 249.053 130.612C249.053 130.404 249.125 130.228 249.269 130.084C249.413 129.94 249.589 129.868 249.797 129.868C249.997 129.868 250.165 129.94 250.301 130.084C250.445 130.228 250.517 130.404 250.517 130.612C250.517 130.82 250.445 130.996 250.301 131.14C250.165 131.284 249.997 131.356 249.797 131.356ZM250.325 132.424V139H249.233V132.424H250.325ZM254.514 139.108C254.01 139.108 253.558 139.024 253.158 138.856C252.758 138.68 252.442 138.44 252.21 138.136C251.978 137.824 251.85 137.468 251.826 137.068H252.954C252.986 137.396 253.138 137.664 253.41 137.872C253.69 138.08 254.054 138.184 254.502 138.184C254.918 138.184 255.246 138.092 255.486 137.908C255.726 137.724 255.846 137.492 255.846 137.212C255.846 136.924 255.718 136.712 255.462 136.576C255.206 136.432 254.81 136.292 254.274 136.156C253.786 136.028 253.386 135.9 253.074 135.772C252.77 135.636 252.506 135.44 252.282 135.184C252.066 134.92 251.958 134.576 251.958 134.152C251.958 133.816 252.058 133.508 252.258 133.228C252.458 132.948 252.742 132.728 253.11 132.568C253.478 132.4 253.898 132.316 254.37 132.316C255.098 132.316 255.686 132.5 256.134 132.868C256.582 133.236 256.822 133.74 256.854 134.38H255.762C255.738 134.036 255.598 133.76 255.342 133.552C255.094 133.344 254.758 133.24 254.334 133.24C253.942 133.24 253.63 133.324 253.398 133.492C253.166 133.66 253.05 133.88 253.05 134.152C253.05 134.368 253.118 134.548 253.254 134.692C253.398 134.828 253.574 134.94 253.782 135.028C253.998 135.108 254.294 135.2 254.67 135.304C255.142 135.432 255.526 135.56 255.822 135.688C256.118 135.808 256.37 135.992 256.578 136.24C256.794 136.488 256.906 136.812 256.914 137.212C256.914 137.572 256.814 137.896 256.614 138.184C256.414 138.472 256.13 138.7 255.762 138.868C255.402 139.028 254.986 139.108 254.514 139.108ZM259.787 133.324V137.2C259.787 137.52 259.855 137.748 259.991 137.884C260.127 138.012 260.363 138.076 260.699 138.076H261.503V139H260.519C259.911 139 259.455 138.86 259.151 138.58C258.847 138.3 258.695 137.84 258.695 137.2V133.324H257.843V132.424H258.695V130.768H259.787V132.424H261.503V133.324H259.787ZM265.694 139.108C265.078 139.108 264.518 138.968 264.014 138.688C263.518 138.408 263.126 138.012 262.838 137.5C262.558 136.98 262.418 136.38 262.418 135.7C262.418 135.028 262.562 134.436 262.85 133.924C263.146 133.404 263.546 133.008 264.05 132.736C264.554 132.456 265.118 132.316 265.742 132.316C266.366 132.316 266.93 132.456 267.434 132.736C267.938 133.008 268.334 133.4 268.622 133.912C268.918 134.424 269.066 135.02 269.066 135.7C269.066 136.38 268.914 136.98 268.61 137.5C268.314 138.012 267.91 138.408 267.398 138.688C266.886 138.968 266.318 139.108 265.694 139.108ZM265.694 138.148C266.086 138.148 266.454 138.056 266.798 137.872C267.142 137.688 267.418 137.412 267.626 137.044C267.842 136.676 267.95 136.228 267.95 135.7C267.95 135.172 267.846 134.724 267.638 134.356C267.43 133.988 267.158 133.716 266.822 133.54C266.486 133.356 266.122 133.264 265.73 133.264C265.33 133.264 264.962 133.356 264.626 133.54C264.298 133.716 264.034 133.988 263.834 134.356C263.634 134.724 263.534 135.172 263.534 135.7C263.534 136.236 263.63 136.688 263.822 137.056C264.022 137.424 264.286 137.7 264.614 137.884C264.942 138.06 265.302 138.148 265.694 138.148ZM271.594 133.492C271.786 133.116 272.058 132.824 272.41 132.616C272.77 132.408 273.206 132.304 273.718 132.304V133.432H273.43C272.206 133.432 271.594 134.096 271.594 135.424V139H270.502V132.424H271.594V133.492ZM280.643 132.424L276.683 142.096H275.555L276.851 138.928L274.199 132.424H275.411L277.475 137.752L279.515 132.424H280.643Z" fill="white"/>
<path d="M125.667 42.2917C125.667 41.8544 126.021 41.5 126.458 41.5C126.895 41.5 127.25 41.8544 127.25 42.2917V43.875C127.25 44.3122 126.895 44.6667 126.458 44.6667C126.021 44.6667 125.667 44.3122 125.667 43.875V42.2917Z" fill="#F9F9F9"/>
<path d="M128.833 37.5417V35.9583C128.833 35.0851 128.123 34.375 127.25 34.375H116.958C115.649 34.375 114.583 35.4406 114.583 36.75V46.25C114.583 47.9925 116.004 48.625 116.958 48.625H128.833C129.707 48.625 130.417 47.9149 130.417 47.0417V39.125C130.417 38.2518 129.707 37.5417 128.833 37.5417ZM116.958 35.9583H127.25V37.5417H116.958C116.521 37.5417 116.167 37.1862 116.167 36.75C116.167 36.3138 116.521 35.9583 116.958 35.9583ZM128.833 47.0417H116.968C116.602 47.0322 116.167 46.8873 116.167 46.25V38.9785C116.415 39.068 116.679 39.125 116.958 39.125H128.833V47.0417Z" fill="#F9F9F9"/>
<path d="M145.938 43.186C145.938 43.6713 145.812 44.1287 145.56 44.558C145.317 44.978 144.953 45.328 144.468 45.608C143.992 45.8787 143.427 46.0373 142.774 46.084V47.218H141.878V46.07C140.945 45.986 140.193 45.706 139.624 45.23C139.055 44.7447 138.761 44.0913 138.742 43.27H140.842C140.898 43.942 141.243 44.348 141.878 44.488V41.814C141.206 41.646 140.665 41.478 140.254 41.31C139.843 41.142 139.489 40.8713 139.19 40.498C138.891 40.1247 138.742 39.616 138.742 38.972C138.742 38.16 139.031 37.4973 139.61 36.984C140.198 36.4707 140.954 36.1767 141.878 36.102V34.968H142.774V36.102C143.67 36.1767 144.384 36.4473 144.916 36.914C145.457 37.3807 145.761 38.0247 145.826 38.846H143.712C143.684 38.5753 143.586 38.342 143.418 38.146C143.259 37.9407 143.045 37.796 142.774 37.712V40.358C143.474 40.5353 144.025 40.708 144.426 40.876C144.837 41.0347 145.191 41.3007 145.49 41.674C145.789 42.038 145.938 42.542 145.938 43.186ZM140.786 38.874C140.786 39.182 140.879 39.434 141.066 39.63C141.253 39.8167 141.523 39.9707 141.878 40.092V37.67C141.542 37.7167 141.276 37.8427 141.08 38.048C140.884 38.2533 140.786 38.5287 140.786 38.874ZM142.774 44.516C143.129 44.4507 143.404 44.306 143.6 44.082C143.805 43.858 143.908 43.5873 143.908 43.27C143.908 42.962 143.81 42.7147 143.614 42.528C143.418 42.3413 143.138 42.1873 142.774 42.066V44.516ZM151 37.6V35.794H154.374V46H152.358V37.6H151ZM161.602 38.342C161.509 37.95 161.346 37.656 161.112 37.46C160.888 37.264 160.562 37.166 160.132 37.166C159.488 37.166 159.012 37.4273 158.704 37.95C158.406 38.4633 158.252 39.3033 158.242 40.47C158.466 40.0967 158.793 39.8073 159.222 39.602C159.652 39.3873 160.118 39.28 160.622 39.28C161.229 39.28 161.766 39.4107 162.232 39.672C162.699 39.9333 163.063 40.316 163.324 40.82C163.586 41.3147 163.716 41.912 163.716 42.612C163.716 43.2747 163.581 43.8673 163.31 44.39C163.049 44.9033 162.662 45.3047 162.148 45.594C161.635 45.8833 161.024 46.028 160.314 46.028C159.344 46.028 158.578 45.8133 158.018 45.384C157.468 44.9547 157.08 44.3573 156.856 43.592C156.642 42.8173 156.534 41.8653 156.534 40.736C156.534 39.028 156.828 37.74 157.416 36.872C158.004 35.9947 158.933 35.556 160.202 35.556C161.182 35.556 161.943 35.822 162.484 36.354C163.026 36.886 163.338 37.5487 163.422 38.342H161.602ZM160.174 40.89C159.68 40.89 159.264 41.0347 158.928 41.324C158.592 41.6133 158.424 42.0333 158.424 42.584C158.424 43.1347 158.578 43.5687 158.886 43.886C159.204 44.2033 159.647 44.362 160.216 44.362C160.72 44.362 161.117 44.208 161.406 43.9C161.705 43.592 161.854 43.1767 161.854 42.654C161.854 42.1127 161.71 41.6833 161.42 41.366C161.14 41.0487 160.725 40.89 160.174 40.89ZM167.631 43.942L165.993 47.876H164.733L165.643 43.942H167.631ZM168.82 40.764C168.82 39.1493 169.109 37.8847 169.688 36.97C170.276 36.0553 171.247 35.598 172.6 35.598C173.953 35.598 174.919 36.0553 175.498 36.97C176.086 37.8847 176.38 39.1493 176.38 40.764C176.38 42.388 176.086 43.662 175.498 44.586C174.919 45.51 173.953 45.972 172.6 45.972C171.247 45.972 170.276 45.51 169.688 44.586C169.109 43.662 168.82 42.388 168.82 40.764ZM174.448 40.764C174.448 40.0733 174.401 39.4947 174.308 39.028C174.224 38.552 174.047 38.1647 173.776 37.866C173.515 37.5673 173.123 37.418 172.6 37.418C172.077 37.418 171.681 37.5673 171.41 37.866C171.149 38.1647 170.971 38.552 170.878 39.028C170.794 39.4947 170.752 40.0733 170.752 40.764C170.752 41.4733 170.794 42.0707 170.878 42.556C170.962 43.032 171.139 43.4193 171.41 43.718C171.681 44.0073 172.077 44.152 172.6 44.152C173.123 44.152 173.519 44.0073 173.79 43.718C174.061 43.4193 174.238 43.032 174.322 42.556C174.406 42.0707 174.448 41.4733 174.448 40.764ZM177.871 40.764C177.871 39.1493 178.16 37.8847 178.739 36.97C179.327 36.0553 180.298 35.598 181.651 35.598C183.004 35.598 183.97 36.0553 184.549 36.97C185.137 37.8847 185.431 39.1493 185.431 40.764C185.431 42.388 185.137 43.662 184.549 44.586C183.97 45.51 183.004 45.972 181.651 45.972C180.298 45.972 179.327 45.51 178.739 44.586C178.16 43.662 177.871 42.388 177.871 40.764ZM183.499 40.764C183.499 40.0733 183.452 39.4947 183.359 39.028C183.275 38.552 183.098 38.1647 182.827 37.866C182.566 37.5673 182.174 37.418 181.651 37.418C181.128 37.418 180.732 37.5673 180.461 37.866C180.2 38.1647 180.022 38.552 179.929 39.028C179.845 39.4947 179.803 40.0733 179.803 40.764C179.803 41.4733 179.845 42.0707 179.929 42.556C180.013 43.032 180.19 43.4193 180.461 43.718C180.732 44.0073 181.128 44.152 181.651 44.152C182.174 44.152 182.57 44.0073 182.841 43.718C183.112 43.4193 183.289 43.032 183.373 42.556C183.457 42.0707 183.499 41.4733 183.499 40.764ZM186.95 38.482C186.996 37.5487 187.323 36.83 187.93 36.326C188.546 35.8127 189.353 35.556 190.352 35.556C191.033 35.556 191.616 35.6773 192.102 35.92C192.587 36.1533 192.951 36.4753 193.194 36.886C193.446 37.2873 193.572 37.7447 193.572 38.258C193.572 38.846 193.418 39.3453 193.11 39.756C192.811 40.1573 192.452 40.428 192.032 40.568V40.624C192.573 40.792 192.993 41.0907 193.292 41.52C193.6 41.9493 193.754 42.5 193.754 43.172C193.754 43.732 193.623 44.2313 193.362 44.67C193.11 45.1087 192.732 45.454 192.228 45.706C191.733 45.9487 191.136 46.07 190.436 46.07C189.381 46.07 188.522 45.804 187.86 45.272C187.197 44.74 186.847 43.956 186.81 42.92H188.714C188.732 43.3773 188.886 43.746 189.176 44.026C189.474 44.2967 189.88 44.432 190.394 44.432C190.87 44.432 191.234 44.3013 191.486 44.04C191.747 43.7693 191.878 43.424 191.878 43.004C191.878 42.444 191.7 42.0427 191.346 41.8C190.991 41.5573 190.44 41.436 189.694 41.436H189.288V39.826H189.694C191.019 39.826 191.682 39.3827 191.682 38.496C191.682 38.0947 191.56 37.782 191.318 37.558C191.084 37.334 190.744 37.222 190.296 37.222C189.857 37.222 189.516 37.3433 189.274 37.586C189.04 37.8193 188.905 38.118 188.868 38.482H186.95ZM196.395 46.098C196.04 46.098 195.746 45.9907 195.513 45.776C195.289 45.552 195.177 45.2767 195.177 44.95C195.177 44.6233 195.289 44.3527 195.513 44.138C195.746 43.914 196.04 43.802 196.395 43.802C196.74 43.802 197.025 43.914 197.249 44.138C197.473 44.3527 197.585 44.6233 197.585 44.95C197.585 45.2767 197.473 45.552 197.249 45.776C197.025 45.9907 196.74 46.098 196.395 46.098ZM198.939 40.764C198.939 39.1493 199.229 37.8847 199.807 36.97C200.395 36.0553 201.366 35.598 202.719 35.598C204.073 35.598 205.039 36.0553 205.617 36.97C206.205 37.8847 206.499 39.1493 206.499 40.764C206.499 42.388 206.205 43.662 205.617 44.586C205.039 45.51 204.073 45.972 202.719 45.972C201.366 45.972 200.395 45.51 199.807 44.586C199.229 43.662 198.939 42.388 198.939 40.764ZM204.567 40.764C204.567 40.0733 204.521 39.4947 204.427 39.028C204.343 38.552 204.166 38.1647 203.895 37.866C203.634 37.5673 203.242 37.418 202.719 37.418C202.197 37.418 201.8 37.5673 201.529 37.866C201.268 38.1647 201.091 38.552 200.997 39.028C200.913 39.4947 200.871 40.0733 200.871 40.764C200.871 41.4733 200.913 42.0707 200.997 42.556C201.081 43.032 201.259 43.4193 201.529 43.718C201.8 44.0073 202.197 44.152 202.719 44.152C203.242 44.152 203.639 44.0073 203.909 43.718C204.18 43.4193 204.357 43.032 204.441 42.556C204.525 42.0707 204.567 41.4733 204.567 40.764ZM207.99 40.764C207.99 39.1493 208.279 37.8847 208.858 36.97C209.446 36.0553 210.417 35.598 211.77 35.598C213.123 35.598 214.089 36.0553 214.668 36.97C215.256 37.8847 215.55 39.1493 215.55 40.764C215.55 42.388 215.256 43.662 214.668 44.586C214.089 45.51 213.123 45.972 211.77 45.972C210.417 45.972 209.446 45.51 208.858 44.586C208.279 43.662 207.99 42.388 207.99 40.764ZM213.618 40.764C213.618 40.0733 213.571 39.4947 213.478 39.028C213.394 38.552 213.217 38.1647 212.946 37.866C212.685 37.5673 212.293 37.418 211.77 37.418C211.247 37.418 210.851 37.5673 210.58 37.866C210.319 38.1647 210.141 38.552 210.048 39.028C209.964 39.4947 209.922 40.0733 209.922 40.764C209.922 41.4733 209.964 42.0707 210.048 42.556C210.132 43.032 210.309 43.4193 210.58 43.718C210.851 44.0073 211.247 44.152 211.77 44.152C212.293 44.152 212.689 44.0073 212.96 43.718C213.231 43.4193 213.408 43.032 213.492 42.556C213.576 42.0707 213.618 41.4733 213.618 40.764Z" fill="#F9F9F9"/>
<g filter="url(#filter0_d_5935_10900)">
<circle cx="165" cy="96" r="25" fill="#614BFF"/>
</g>
<path fill-rule="evenodd" clip-rule="evenodd" d="M167.4 85.8947C167.4 84.8483 168.206 84 169.2 84H171.74C174.755 84 177 86.7032 177 89.7805V92.2105C177 93.257 176.194 94.1053 175.2 94.1053C174.206 94.1053 173.4 93.257 173.4 92.2105V89.7805C173.4 88.5611 172.551 87.7895 171.74 87.7895H169.2C168.206 87.7895 167.4 86.9412 167.4 85.8947Z" fill="white"/>
<path fill-rule="evenodd" clip-rule="evenodd" d="M158.391 87.7895C157.443 87.7895 156.6 88.6293 156.6 89.7733V92.2105C156.6 93.257 155.794 94.1053 154.8 94.1053C153.806 94.1053 153 93.257 153 92.2105V89.7733C153 86.6286 155.368 84 158.391 84H160.8C161.794 84 162.6 84.8483 162.6 85.8947C162.6 86.9412 161.794 87.7895 160.8 87.7895H158.391Z" fill="white"/>
<path fill-rule="evenodd" clip-rule="evenodd" d="M175.2 97.8945C176.194 97.8945 177 98.7428 177 99.7893V102.227C177 105.303 174.752 108 171.74 108H169.2C168.206 108 167.4 107.151 167.4 106.105C167.4 105.059 168.206 104.21 169.2 104.21H171.74C172.554 104.21 173.4 103.438 173.4 102.227V99.7893C173.4 98.7428 174.206 97.8945 175.2 97.8945Z" fill="white"/>
<path fill-rule="evenodd" clip-rule="evenodd" d="M154.8 97.8945C155.794 97.8945 156.6 98.7428 156.6 99.7893V102.219C156.6 103.371 157.446 104.21 158.391 104.21H160.8C161.794 104.21 162.6 105.059 162.6 106.105C162.6 107.151 161.794 108 160.8 108H158.391C155.365 108 153 105.365 153 102.219V99.7893C153 98.7428 153.806 97.8945 154.8 97.8945Z" fill="white"/>
<g filter="url(#filter1_d_5935_10900)">
<circle cx="260" cy="96" r="25" fill="#614BFF"/>
</g>
<path fill-rule="evenodd" clip-rule="evenodd" d="M260.032 90.6753C258.576 90.6753 257.233 91.0624 256.083 91.7192C255.199 92.2246 254.076 91.9113 253.575 91.0194C253.073 90.1274 253.384 88.9947 254.269 88.4893C255.953 87.527 257.919 86.9629 260.032 86.9629C266.032 86.9629 271.13 91.5413 271.13 97.4813C271.13 103.421 266.032 108 260.032 108C254.604 108 249.923 104.263 249.067 99.1351C248.899 98.1242 249.575 97.1668 250.577 96.9967C251.58 96.8267 252.529 97.5083 252.698 98.5193C253.227 101.689 256.224 104.287 260.032 104.287C264.263 104.287 267.449 101.114 267.449 97.4813C267.449 93.8484 264.263 90.6753 260.032 90.6753Z" fill="white"/>
<path fill-rule="evenodd" clip-rule="evenodd" d="M255.444 84.5469C256.34 85.028 256.676 86.144 256.195 87.0395L254.478 90.2356L257.831 91.4925C258.783 91.8494 259.265 92.9103 258.908 93.8622C258.551 94.8142 257.491 95.2966 256.539 94.9397L251.489 93.0467L251.419 93.0136C250.337 92.5008 249.975 91.307 250.272 90.3557L250.324 90.1879L252.951 85.2974C253.433 84.4018 254.549 84.0658 255.444 84.5469Z" fill="white"/>
<g filter="url(#filter2_d_5935_10900)">
<circle cx="70" cy="96" r="25" fill="#614BFF"/>
</g>
<path fill-rule="evenodd" clip-rule="evenodd" d="M60.7368 99C61.6961 99 62.4737 99.7555 62.4737 100.688V104.318C62.4887 104.328 62.5065 104.34 62.5275 104.353C62.7498 104.487 63.1638 104.625 63.7093 104.625H76.2907C76.8362 104.625 77.2502 104.487 77.4725 104.353C77.4935 104.34 77.5113 104.328 77.5263 104.318V100.688C77.5263 99.7555 78.3039 99 79.2632 99C80.2224 99 81 99.7555 81 100.688V104.511C81 105.804 80.1384 106.715 79.3098 107.217C78.4553 107.734 77.3831 108 76.2907 108H63.7093C62.6169 108 61.5447 107.734 60.6902 107.217C59.8616 106.715 59 105.804 59 104.511V100.688C59 99.7555 59.7776 99 60.7368 99ZM77.5986 104.258C77.5992 104.258 77.5961 104.262 77.5873 104.271C77.5936 104.262 77.598 104.258 77.5986 104.258ZM62.4014 104.258C62.402 104.258 62.4064 104.262 62.4127 104.271C62.4039 104.262 62.4008 104.258 62.4014 104.258Z" fill="white"/>
<path fill-rule="evenodd" clip-rule="evenodd" d="M72 90.229L74.725 93.3628C75.3706 94.1054 76.5337 94.2148 77.3229 93.6073C78.112 92.9998 78.2283 91.9053 77.5826 91.1628L72.0442 84.7934L72.0336 84.7814C71.5995 84.2911 71.0267 84.1403 70.8234 84.092C70.5345 84.0233 70.2471 84 70 84C69.753 84 69.4655 84.0233 69.1767 84.092C68.9733 84.1403 68.4006 84.2911 67.9664 84.7814L62.4174 91.1628C61.7717 91.9053 61.888 92.9998 62.6771 93.6073C63.4663 94.2148 64.6294 94.1054 65.275 93.3628L68 90.229V100.233C68 101.209 68.8954 102 70 102C71.1046 102 72 101.209 72 100.233V90.229Z" fill="white"/>
<defs>
<filter id="filter0_d_5935_10900" x="138" y="70" width="54" height="54" filterUnits="userSpaceOnUse" color-interpolation-filters="sRGB">
<feFlood flood-opacity="0" result="BackgroundImageFix"/>
<feColorMatrix in="SourceAlpha" type="matrix" values="0 0 0 0 0 0 0 0 0 0 0 0 0 0 0 0 0 0 127 0" result="hardAlpha"/>
<feOffset dy="1"/>
<feGaussianBlur stdDeviation="1"/>
<feColorMatrix type="matrix" values="0 0 0 0 0.0313726 0 0 0 0 0.0588235 0 0 0 0 0.0941176 0 0 0 0.1 0"/>
<feBlend mode="normal" in2="BackgroundImageFix" result="effect1_dropShadow_5935_10900"/>
<feBlend mode="normal" in="SourceGraphic" in2="effect1_dropShadow_5935_10900" result="shape"/>
</filter>
<filter id="filter1_d_5935_10900" x="233" y="70" width="54" height="54" filterUnits="userSpaceOnUse" color-interpolation-filters="sRGB">
<feFlood flood-opacity="0" result="BackgroundImageFix"/>
<feColorMatrix in="SourceAlpha" type="matrix" values="0 0 0 0 0 0 0 0 0 0 0 0 0 0 0 0 0 0 127 0" result="hardAlpha"/>
<feOffset dy="1"/>
<feGaussianBlur stdDeviation="1"/>
<feColorMatrix type="matrix" values="0 0 0 0 0.0313726 0 0 0 0 0.0588235 0 0 0 0 0.0941176 0 0 0 0.1 0"/>
<feBlend mode="normal" in2="BackgroundImageFix" result="effect1_dropShadow_5935_10900"/>
<feBlend mode="normal" in="SourceGraphic" in2="effect1_dropShadow_5935_10900" result="shape"/>
</filter>
<filter id="filter2_d_5935_10900" x="43" y="70" width="54" height="54" filterUnits="userSpaceOnUse" color-interpolation-filters="sRGB">
<feFlood flood-opacity="0" result="BackgroundImageFix"/>
<feColorMatrix in="SourceAlpha" type="matrix" values="0 0 0 0 0 0 0 0 0 0 0 0 0 0 0 0 0 0 127 0" result="hardAlpha"/>
<feOffset dy="1"/>
<feGaussianBlur stdDeviation="1"/>
<feColorMatrix type="matrix" values="0 0 0 0 0.0313726 0 0 0 0 0.0588235 0 0 0 0 0.0941176 0 0 0 0.1 0"/>
<feBlend mode="normal" in2="BackgroundImageFix" result="effect1_dropShadow_5935_10900"/>
<feBlend mode="normal" in="SourceGraphic" in2="effect1_dropShadow_5935_10900" result="shape"/>
</filter>
<linearGradient id="paint0_linear_5935_10900" x1="-1.61943e-05" y1="20.0439" x2="295.21" y2="208.881" gradientUnits="userSpaceOnUse">
<stop stop-color="#AFB4FF"/>
<stop offset="0.223958" stop-color="#3945FF"/>
<stop offset="0.520833" stop-color="#2632FC"/>
<stop offset="0.734375" stop-color="#3440FF"/>
<stop offset="1" stop-color="#989EFF"/>
</linearGradient>
</defs>
</svg>
