<svg width="375" height="220" viewBox="0 0 375 220" fill="none" xmlns="http://www.w3.org/2000/svg">
<g filter="url(#filter0_d_577_47)">
<rect x="24" y="20" width="328" height="150" rx="40" fill="#343EE0"/>
</g>
<mask id="mask0_577_47" style="mask-type:luminance" maskUnits="userSpaceOnUse" x="24" y="20" width="327" height="150">
<rect x="24" y="20" width="326.985" height="150" rx="40" fill="white"/>
</mask>
<g mask="url(#mask0_577_47)">
<g filter="url(#filter1_f_577_47)">
<path fill-rule="evenodd" clip-rule="evenodd" d="M324.463 168.709C332.201 167.419 347.676 161.827 353.866 144.62C357.476 130.855 355.413 81.8156 355.413 50.4134C354.897 35.3575 350.771 30.1955 350.771 30.1955C347.676 25.4637 342.002 19.4413 334.264 16C247.659 16 179 74.5481 179 146.771C179 154.699 179.846 162.461 181.466 170C222.521 170 249.782 170 304.862 170C304.862 170 316.726 170 324.463 168.709Z" fill="url(#paint0_linear_577_47)"/>
</g>
<mask id="mask1_577_47" style="mask-type:alpha" maskUnits="userSpaceOnUse" x="24" y="20" width="327" height="150">
<path d="M24 90.4C24 65.7577 24 53.4365 28.7957 44.0244C33.0141 35.7453 39.7453 29.0141 48.0244 24.7957C57.4365 20 69.7577 20 94.4 20H280.585C305.227 20 317.548 20 326.96 24.7957C335.239 29.0141 341.97 35.7453 346.189 44.0244C350.985 53.4365 350.985 65.7577 350.985 90.4V99.6C350.985 124.242 350.985 136.563 346.189 145.976C341.97 154.255 335.239 160.986 326.96 165.204C317.548 170 305.227 170 280.585 170H94.4C69.7577 170 57.4365 170 48.0244 165.204C39.7453 160.986 33.0141 154.255 28.7957 145.976C24 136.563 24 124.242 24 99.6V90.4Z" fill="url(#paint1_linear_577_47)"/>
</mask>
<g mask="url(#mask1_577_47)">
<path fill-rule="evenodd" clip-rule="evenodd" d="M45.8648 132.826C130.849 132.826 199.741 77.3483 199.741 8.91304C199.741 -59.5222 130.849 -115 45.8648 -115C-39.1188 -115 -108.012 -59.5222 -108.012 8.91304C-108.012 77.3483 -39.1188 132.826 45.8648 132.826Z" fill="url(#paint2_linear_577_47)"/>
</g>
</g>
<g filter="url(#filter2_b_577_47)">
<rect x="168.876" y="84" width="50" height="50" rx="24" fill="white" fill-opacity="0.37"/>
</g>
<g clip-path="url(#clip0_577_47)">
<path d="M199.709 118H198.876C198.655 118 198.443 117.912 198.287 117.756C198.13 117.6 198.043 117.388 198.043 117.167C198.043 116.946 198.13 116.734 198.287 116.577C198.443 116.421 198.655 116.333 198.876 116.333H199.709C200.372 116.333 201.008 116.07 201.477 115.601C201.946 115.132 202.209 114.496 202.209 113.833V113C202.209 112.779 202.297 112.567 202.453 112.411C202.61 112.254 202.822 112.167 203.043 112.167C203.264 112.167 203.476 112.254 203.632 112.411C203.788 112.567 203.876 112.779 203.876 113V113.833C203.875 114.938 203.435 115.997 202.654 116.778C201.873 117.559 200.814 117.999 199.709 118ZM203.876 103V102.167C203.875 101.062 203.435 100.003 202.654 99.2218C201.873 98.4407 200.814 98.0013 199.709 98H198.876C198.655 98 198.443 98.0878 198.287 98.2441C198.13 98.4004 198.043 98.6123 198.043 98.8333C198.043 99.0543 198.13 99.2663 198.287 99.4226C198.443 99.5789 198.655 99.6667 198.876 99.6667H199.709C200.372 99.6667 201.008 99.9301 201.477 100.399C201.946 100.868 202.209 101.504 202.209 102.167V103C202.209 103.221 202.297 103.433 202.453 103.589C202.61 103.746 202.822 103.833 203.043 103.833C203.264 103.833 203.476 103.746 203.632 103.589C203.788 103.433 203.876 103.221 203.876 103ZM189.709 117.167C189.709 116.946 189.622 116.734 189.465 116.577C189.309 116.421 189.097 116.333 188.876 116.333H188.043C187.38 116.333 186.744 116.07 186.275 115.601C185.806 115.132 185.543 114.496 185.543 113.833V113C185.543 112.779 185.455 112.567 185.299 112.411C185.142 112.254 184.93 112.167 184.709 112.167C184.488 112.167 184.276 112.254 184.12 112.411C183.964 112.567 183.876 112.779 183.876 113V113.833C183.877 114.938 184.317 115.997 185.098 116.778C185.879 117.559 186.938 117.999 188.043 118H188.876C189.097 118 189.309 117.912 189.465 117.756C189.622 117.6 189.709 117.388 189.709 117.167ZM185.543 103V102.167C185.543 101.504 185.806 100.868 186.275 100.399C186.744 99.9301 187.38 99.6667 188.043 99.6667H188.876C189.097 99.6667 189.309 99.5789 189.465 99.4226C189.622 99.2663 189.709 99.0543 189.709 98.8333C189.709 98.6123 189.622 98.4004 189.465 98.2441C189.309 98.0878 189.097 98 188.876 98H188.043C186.938 98.0013 185.879 98.4407 185.098 99.2218C184.317 100.003 183.877 101.062 183.876 102.167V103C183.876 103.221 183.964 103.433 184.12 103.589C184.276 103.746 184.488 103.833 184.709 103.833C184.93 103.833 185.142 103.746 185.299 103.589C185.455 103.433 185.543 103.221 185.543 103Z" fill="#F2F2F2"/>
<path d="M183.876 107.999C183.876 107.539 184.249 107.166 184.709 107.166H203.043C203.503 107.166 203.876 107.539 203.876 107.999C203.876 108.46 203.503 108.833 203.043 108.833H184.709C184.249 108.833 183.876 108.46 183.876 107.999Z" fill="#F2F2F2"/>
</g>
<g filter="url(#filter3_b_577_47)">
<rect x="263.876" y="83" width="50" height="50" rx="24" fill="white" fill-opacity="0.37"/>
</g>
<g clip-path="url(#clip1_577_47)">
<path d="M288.876 103C288.655 103 288.443 103.088 288.287 103.244C288.131 103.4 288.043 103.612 288.043 103.833V108C288.043 108.221 288.131 108.433 288.287 108.589L290.787 111.089C290.944 111.241 291.155 111.325 291.373 111.323C291.592 111.321 291.801 111.234 291.955 111.079C292.11 110.925 292.197 110.715 292.199 110.497C292.201 110.279 292.117 110.068 291.965 109.911L289.71 107.655V103.833C289.71 103.612 289.622 103.4 289.466 103.244C289.309 103.088 289.097 103 288.876 103Z" fill="#F2F2F2"/>
<path d="M298.719 106.443C298.433 104.632 297.654 102.933 296.468 101.534C295.281 100.136 293.733 99.0901 291.992 98.5122C290.251 97.9343 288.385 97.8463 286.597 98.2579C284.81 98.6695 283.17 99.5648 281.857 100.846V98.8333C281.857 98.6123 281.77 98.4004 281.613 98.2441C281.457 98.0878 281.245 98 281.024 98C280.803 98 280.591 98.0878 280.435 98.2441C280.278 98.4004 280.191 98.6123 280.191 98.8333V102.167C280.191 102.609 280.366 103.033 280.679 103.345C280.991 103.658 281.415 103.833 281.857 103.833H285.191C285.412 103.833 285.624 103.746 285.78 103.589C285.936 103.433 286.024 103.221 286.024 103C286.024 102.779 285.936 102.567 285.78 102.411C285.624 102.254 285.412 102.167 285.191 102.167H282.898C284.23 100.815 285.983 99.9583 287.868 99.7392C289.753 99.5202 291.657 99.9518 293.263 100.962C294.869 101.973 296.082 103.502 296.7 105.296C297.318 107.09 297.305 109.042 296.662 110.828C296.02 112.613 294.787 114.126 293.167 115.114C291.547 116.103 289.638 116.509 287.756 116.264C285.874 116.02 284.133 115.139 282.819 113.77C281.506 112.4 280.7 110.622 280.536 108.732C280.514 108.529 280.417 108.341 280.264 108.205C280.111 108.07 279.913 107.997 279.709 108C279.592 108 279.477 108.025 279.371 108.072C279.264 108.119 279.169 108.188 279.09 108.275C279.012 108.361 278.952 108.463 278.915 108.573C278.878 108.684 278.865 108.801 278.876 108.917C279.007 110.245 279.404 111.533 280.041 112.705C280.678 113.877 281.544 114.91 282.586 115.743C283.629 116.576 284.828 117.191 286.112 117.554C287.396 117.916 288.74 118.017 290.064 117.852C291.388 117.687 292.666 117.259 293.822 116.592C294.978 115.926 295.989 115.034 296.795 113.971C297.601 112.908 298.187 111.694 298.516 110.401C298.846 109.108 298.914 107.762 298.716 106.443L298.719 106.443Z" fill="#F2F2F2"/>
</g>
<g filter="url(#filter4_b_577_47)">
<rect x="73.876" y="83" width="50" height="50" rx="24" fill="white" fill-opacity="0.37"/>
</g>
<g clip-path="url(#clip2_577_47)">
<path d="M107.209 112.167L107.209 113.833C107.209 114.496 106.946 115.132 106.477 115.601C106.008 116.07 105.372 116.333 104.709 116.333L93.0426 116.333C92.3796 116.333 91.7437 116.07 91.2749 115.601C90.806 115.132 90.5426 114.496 90.5426 113.833L90.5426 112.167C90.5426 111.946 90.4548 111.734 90.2986 111.577C90.1423 111.421 89.9303 111.333 89.7093 111.333C89.4883 111.333 89.2763 111.421 89.1201 111.577C88.9638 111.734 88.876 111.946 88.876 112.167L88.876 113.833C88.8773 114.938 89.3167 115.997 90.0978 116.778C90.8789 117.559 91.938 117.999 93.0426 118L104.709 118C105.814 117.999 106.873 117.559 107.654 116.778C108.435 115.997 108.875 114.938 108.876 113.833L108.876 112.167C108.876 111.946 108.788 111.734 108.632 111.577C108.476 111.421 108.264 111.333 108.043 111.333C107.822 111.333 107.61 111.421 107.453 111.577C107.297 111.734 107.209 111.946 107.209 112.167Z" fill="#F2F2F2"/>
<path d="M104.465 102.552L100.643 98.7298C100.174 98.2626 99.5383 98.0003 98.8758 98.0003C98.2134 98.0003 97.5779 98.2626 97.1083 98.7298L93.2867 102.552C93.1349 102.709 93.0509 102.92 93.0528 103.138C93.0547 103.357 93.1423 103.566 93.2968 103.721C93.4513 103.875 93.6603 103.963 93.8788 103.965C94.0973 103.966 94.3078 103.882 94.465 103.731L98.0425 100.154L98.0425 113.001C98.0425 113.222 98.1303 113.434 98.2866 113.59C98.4429 113.746 98.6548 113.834 98.8758 113.834C99.0968 113.834 99.3088 113.746 99.4651 113.59C99.6214 113.434 99.7092 113.222 99.7092 113.001L99.7092 100.153L103.287 103.731C103.364 103.81 103.455 103.874 103.557 103.917C103.659 103.961 103.768 103.984 103.879 103.985C103.989 103.986 104.099 103.965 104.202 103.923C104.304 103.881 104.397 103.819 104.475 103.741C104.554 103.663 104.615 103.57 104.657 103.467C104.699 103.365 104.72 103.255 104.719 103.144C104.718 103.034 104.695 102.924 104.652 102.823C104.608 102.721 104.545 102.629 104.465 102.552Z" fill="#F2F2F2"/>
</g>
<rect x="106.51" y="155" width="175.205" height="30" rx="15" fill="#23D288"/>
<g clip-path="url(#clip3_577_47)">
<path d="M148.501 164.604C145.234 164.604 142.474 167.363 142.474 170.631C142.474 173.898 145.234 176.658 148.501 176.658C151.769 176.658 154.528 173.898 154.528 170.631C154.528 167.363 151.769 164.604 148.501 164.604ZM148.501 175.318C145.96 175.318 143.813 173.171 143.813 170.631C143.813 168.09 145.96 165.943 148.501 165.943C151.042 165.943 153.189 168.09 153.189 170.631C153.189 173.171 151.042 175.318 148.501 175.318Z" fill="white"/>
<path d="M149.171 167.281H147.832V169.96H145.153V171.299H147.832V173.978H149.171V171.299H151.85V169.96H149.171V167.281Z" fill="white"/>
</g>
<path d="M165.333 174L163.858 171.322H163.443V174H161.715V166.906H164.616C165.175 166.906 165.65 167.004 166.04 167.199C166.438 167.395 166.734 167.664 166.93 168.008C167.125 168.344 167.223 168.722 167.223 169.139C167.223 169.611 167.088 170.032 166.819 170.403C166.556 170.773 166.165 171.036 165.646 171.191L167.283 174H165.333ZM163.443 170.099H164.515C164.831 170.099 165.067 170.022 165.222 169.867C165.384 169.712 165.464 169.493 165.464 169.21C165.464 168.941 165.384 168.728 165.222 168.573C165.067 168.419 164.831 168.341 164.515 168.341H163.443V170.099ZM173.623 171.09C173.623 171.251 173.613 171.42 173.593 171.595H169.682C169.709 171.945 169.82 172.215 170.015 172.403C170.217 172.585 170.463 172.676 170.753 172.676C171.184 172.676 171.484 172.494 171.652 172.131H173.491C173.397 172.501 173.225 172.835 172.976 173.131C172.734 173.427 172.427 173.66 172.057 173.828C171.686 173.997 171.272 174.081 170.814 174.081C170.261 174.081 169.769 173.963 169.338 173.727C168.907 173.491 168.57 173.155 168.328 172.717C168.085 172.279 167.964 171.767 167.964 171.181C167.964 170.595 168.082 170.083 168.318 169.645C168.56 169.207 168.897 168.87 169.328 168.634C169.759 168.398 170.254 168.28 170.814 168.28C171.359 168.28 171.844 168.395 172.269 168.624C172.693 168.853 173.023 169.18 173.259 169.604C173.502 170.029 173.623 170.524 173.623 171.09ZM171.854 170.635C171.854 170.339 171.753 170.103 171.551 169.928C171.349 169.752 171.097 169.665 170.793 169.665C170.504 169.665 170.258 169.749 170.056 169.917C169.86 170.086 169.739 170.325 169.692 170.635H171.854ZM174.191 171.181C174.191 170.595 174.309 170.083 174.545 169.645C174.787 169.207 175.121 168.87 175.545 168.634C175.976 168.398 176.468 168.28 177.02 168.28C177.728 168.28 178.317 168.466 178.789 168.836C179.267 169.207 179.58 169.729 179.729 170.403H177.889C177.734 169.971 177.435 169.756 176.99 169.756C176.673 169.756 176.421 169.88 176.232 170.13C176.044 170.372 175.949 170.723 175.949 171.181C175.949 171.639 176.044 171.992 176.232 172.242C176.421 172.484 176.673 172.605 176.99 172.605C177.435 172.605 177.734 172.39 177.889 171.959H179.729C179.58 172.619 179.267 173.138 178.789 173.515C178.31 173.892 177.721 174.081 177.02 174.081C176.468 174.081 175.976 173.963 175.545 173.727C175.121 173.491 174.787 173.155 174.545 172.717C174.309 172.279 174.191 171.767 174.191 171.181ZM184.119 168.301C184.766 168.301 185.284 168.516 185.675 168.947C186.066 169.372 186.261 169.958 186.261 170.706V174H184.543V170.938C184.543 170.561 184.446 170.268 184.25 170.059C184.055 169.85 183.792 169.746 183.462 169.746C183.132 169.746 182.869 169.85 182.674 170.059C182.479 170.268 182.381 170.561 182.381 170.938V174H180.653V166.522H182.381V169.119C182.556 168.87 182.795 168.671 183.098 168.523C183.402 168.375 183.742 168.301 184.119 168.301ZM187.119 171.171C187.119 170.591 187.226 170.083 187.442 169.645C187.664 169.207 187.964 168.87 188.341 168.634C188.719 168.398 189.14 168.28 189.604 168.28C190.002 168.28 190.349 168.361 190.645 168.523C190.948 168.685 191.181 168.897 191.343 169.16V168.361H193.071V174H191.343V173.202C191.174 173.464 190.938 173.677 190.635 173.838C190.339 174 189.992 174.081 189.594 174.081C189.136 174.081 188.719 173.963 188.341 173.727C187.964 173.485 187.664 173.144 187.442 172.707C187.226 172.262 187.119 171.75 187.119 171.171ZM191.343 171.181C191.343 170.749 191.221 170.409 190.979 170.16C190.743 169.911 190.453 169.786 190.11 169.786C189.766 169.786 189.473 169.911 189.231 170.16C188.995 170.403 188.877 170.739 188.877 171.171C188.877 171.602 188.995 171.945 189.231 172.201C189.473 172.451 189.766 172.575 190.11 172.575C190.453 172.575 190.743 172.451 190.979 172.201C191.221 171.952 191.343 171.612 191.343 171.181ZM196.049 169.301C196.251 168.991 196.503 168.749 196.807 168.573C197.11 168.392 197.447 168.301 197.817 168.301V170.13H197.342C196.911 170.13 196.588 170.224 196.372 170.413C196.156 170.595 196.049 170.918 196.049 171.383V174H194.321V168.361H196.049V169.301ZM200.785 168.28C201.183 168.28 201.53 168.361 201.826 168.523C202.129 168.685 202.362 168.897 202.523 169.16V168.361H204.251V173.99C204.251 174.509 204.147 174.977 203.938 175.395C203.736 175.819 203.423 176.156 202.998 176.405C202.581 176.654 202.059 176.779 201.432 176.779C200.597 176.779 199.92 176.58 199.401 176.183C198.882 175.792 198.586 175.26 198.512 174.586H200.219C200.273 174.802 200.401 174.97 200.603 175.091C200.806 175.219 201.055 175.283 201.351 175.283C201.708 175.283 201.991 175.179 202.2 174.97C202.416 174.768 202.523 174.441 202.523 173.99V173.192C202.355 173.454 202.123 173.67 201.826 173.838C201.53 174 201.183 174.081 200.785 174.081C200.32 174.081 199.899 173.963 199.522 173.727C199.145 173.485 198.845 173.144 198.623 172.707C198.407 172.262 198.299 171.75 198.299 171.171C198.299 170.591 198.407 170.083 198.623 169.645C198.845 169.207 199.145 168.87 199.522 168.634C199.899 168.398 200.32 168.28 200.785 168.28ZM202.523 171.181C202.523 170.749 202.402 170.409 202.16 170.16C201.924 169.911 201.634 169.786 201.291 169.786C200.947 169.786 200.654 169.911 200.411 170.16C200.176 170.403 200.058 170.739 200.058 171.171C200.058 171.602 200.176 171.945 200.411 172.201C200.654 172.451 200.947 172.575 201.291 172.575C201.634 172.575 201.924 172.451 202.16 172.201C202.402 171.952 202.523 171.612 202.523 171.181ZM210.817 171.09C210.817 171.251 210.807 171.42 210.787 171.595H206.876C206.903 171.945 207.014 172.215 207.209 172.403C207.411 172.585 207.657 172.676 207.947 172.676C208.378 172.676 208.678 172.494 208.846 172.131H210.686C210.591 172.501 210.419 172.835 210.17 173.131C209.928 173.427 209.621 173.66 209.251 173.828C208.88 173.997 208.466 174.081 208.008 174.081C207.455 174.081 206.963 173.963 206.532 173.727C206.101 173.491 205.764 173.155 205.522 172.717C205.279 172.279 205.158 171.767 205.158 171.181C205.158 170.595 205.276 170.083 205.512 169.645C205.754 169.207 206.091 168.87 206.522 168.634C206.953 168.398 207.449 168.28 208.008 168.28C208.553 168.28 209.038 168.395 209.463 168.624C209.887 168.853 210.217 169.18 210.453 169.604C210.696 170.029 210.817 170.524 210.817 171.09ZM209.049 170.635C209.049 170.339 208.947 170.103 208.745 169.928C208.543 169.752 208.291 169.665 207.987 169.665C207.698 169.665 207.452 169.749 207.25 169.917C207.054 170.086 206.933 170.325 206.886 170.635H209.049ZM223.632 166.906L221.782 174H219.691L218.559 169.331L217.387 174H215.295L213.496 166.906H215.345L216.366 172.07L217.629 166.906H219.529L220.742 172.07L221.772 166.906H223.632ZM224.155 171.171C224.155 170.591 224.262 170.083 224.478 169.645C224.7 169.207 225 168.87 225.377 168.634C225.755 168.398 226.176 168.28 226.641 168.28C227.038 168.28 227.385 168.361 227.681 168.523C227.985 168.685 228.217 168.897 228.379 169.16V168.361H230.107V174H228.379V173.202C228.21 173.464 227.974 173.677 227.671 173.838C227.375 174 227.028 174.081 226.63 174.081C226.172 174.081 225.755 173.963 225.377 173.727C225 173.485 224.7 173.144 224.478 172.707C224.262 172.262 224.155 171.75 224.155 171.171ZM228.379 171.181C228.379 170.749 228.257 170.409 228.015 170.16C227.779 169.911 227.489 169.786 227.146 169.786C226.802 169.786 226.509 169.911 226.267 170.16C226.031 170.403 225.913 170.739 225.913 171.171C225.913 171.602 226.031 171.945 226.267 172.201C226.509 172.451 226.802 172.575 227.146 172.575C227.489 172.575 227.779 172.451 228.015 172.201C228.257 171.952 228.379 171.612 228.379 171.181ZM233.085 166.522V174H231.357V166.522H233.085ZM236.065 166.522V174H234.337V166.522H236.065ZM242.633 171.09C242.633 171.251 242.623 171.42 242.602 171.595H238.692C238.719 171.945 238.83 172.215 239.025 172.403C239.227 172.585 239.473 172.676 239.763 172.676C240.194 172.676 240.494 172.494 240.662 172.131H242.501C242.407 172.501 242.235 172.835 241.986 173.131C241.743 173.427 241.437 173.66 241.066 173.828C240.696 173.997 240.282 174.081 239.823 174.081C239.271 174.081 238.779 173.963 238.348 173.727C237.917 173.491 237.58 173.155 237.338 172.717C237.095 172.279 236.974 171.767 236.974 171.181C236.974 170.595 237.092 170.083 237.327 169.645C237.57 169.207 237.907 168.87 238.338 168.634C238.769 168.398 239.264 168.28 239.823 168.28C240.369 168.28 240.854 168.395 241.279 168.624C241.703 168.853 242.033 169.18 242.269 169.604C242.511 170.029 242.633 170.524 242.633 171.09ZM240.864 170.635C240.864 170.339 240.763 170.103 240.561 169.928C240.359 169.752 240.106 169.665 239.803 169.665C239.514 169.665 239.268 169.749 239.066 169.917C238.87 170.086 238.749 170.325 238.702 170.635H240.864ZM246.687 172.535V174H245.808C245.181 174 244.693 173.848 244.343 173.545C243.992 173.235 243.817 172.733 243.817 172.04V169.796H243.13V168.361H243.817V166.987H245.545V168.361H246.677V169.796H245.545V172.06C245.545 172.228 245.586 172.349 245.666 172.424C245.747 172.498 245.882 172.535 246.071 172.535H246.687Z" fill="white"/>
<path d="M241.735 68.328C241.735 68.988 241.561 69.6 241.213 70.164C240.877 70.716 240.373 71.172 239.701 71.532C239.041 71.88 238.255 72.072 237.343 72.108V73.566H236.191V72.09C234.919 71.982 233.893 71.604 233.113 70.956C232.333 70.296 231.919 69.402 231.871 68.274H235.147C235.219 68.994 235.567 69.456 236.191 69.66V66.816C235.255 66.576 234.505 66.342 233.941 66.114C233.389 65.886 232.903 65.52 232.483 65.016C232.063 64.512 231.853 63.822 231.853 62.946C231.853 61.854 232.255 60.978 233.059 60.318C233.875 59.658 234.919 59.286 236.191 59.202V57.744H237.343V59.202C238.603 59.298 239.599 59.664 240.331 60.3C241.063 60.936 241.471 61.818 241.555 62.946H238.261C238.189 62.298 237.883 61.878 237.343 61.686V64.476C238.339 64.752 239.107 64.998 239.647 65.214C240.187 65.43 240.667 65.79 241.087 66.294C241.519 66.786 241.735 67.464 241.735 68.328ZM235.111 62.802C235.111 63.102 235.201 63.354 235.381 63.558C235.573 63.762 235.843 63.942 236.191 64.098V61.596C235.855 61.656 235.591 61.788 235.399 61.992C235.207 62.184 235.111 62.454 235.111 62.802ZM237.343 69.714C237.703 69.654 237.985 69.51 238.189 69.282C238.405 69.054 238.513 68.772 238.513 68.436C238.513 68.124 238.411 67.872 238.207 67.68C238.015 67.476 237.727 67.302 237.343 67.158V69.714ZM247.209 61.722V58.86H252.195V72H248.991V61.722H247.209ZM260.798 62.406C260.702 61.962 260.534 61.632 260.294 61.416C260.054 61.188 259.712 61.074 259.268 61.074C258.584 61.074 258.092 61.374 257.792 61.974C257.492 62.562 257.336 63.498 257.324 64.782C257.588 64.362 257.966 64.032 258.458 63.792C258.962 63.552 259.514 63.432 260.114 63.432C261.29 63.432 262.232 63.804 262.94 64.548C263.66 65.292 264.02 66.33 264.02 67.662C264.02 68.538 263.84 69.306 263.48 69.966C263.132 70.626 262.616 71.142 261.932 71.514C261.26 71.886 260.462 72.072 259.538 72.072C257.69 72.072 256.406 71.496 255.686 70.344C254.966 69.18 254.606 67.512 254.606 65.34C254.606 63.06 254.984 61.368 255.74 60.264C256.508 59.148 257.732 58.59 259.412 58.59C260.312 58.59 261.068 58.77 261.68 59.13C262.304 59.478 262.772 59.94 263.084 60.516C263.408 61.092 263.6 61.722 263.66 62.406H260.798ZM259.376 65.862C258.86 65.862 258.428 66.018 258.08 66.33C257.744 66.63 257.576 67.062 257.576 67.626C257.576 68.202 257.732 68.652 258.044 68.976C258.368 69.3 258.824 69.462 259.412 69.462C259.94 69.462 260.354 69.306 260.654 68.994C260.966 68.67 261.122 68.232 261.122 67.68C261.122 67.116 260.972 66.672 260.672 66.348C260.372 66.024 259.94 65.862 259.376 65.862ZM265.761 65.25C265.761 63.186 266.157 61.56 266.949 60.372C267.753 59.184 269.043 58.59 270.819 58.59C272.595 58.59 273.879 59.184 274.671 60.372C275.475 61.56 275.877 63.186 275.877 65.25C275.877 67.338 275.475 68.976 274.671 70.164C273.879 71.352 272.595 71.946 270.819 71.946C269.043 71.946 267.753 71.352 266.949 70.164C266.157 68.976 265.761 67.338 265.761 65.25ZM272.853 65.25C272.853 64.038 272.721 63.108 272.457 62.46C272.193 61.8 271.647 61.47 270.819 61.47C269.991 61.47 269.445 61.8 269.181 62.46C268.917 63.108 268.785 64.038 268.785 65.25C268.785 66.066 268.833 66.744 268.929 67.284C269.025 67.812 269.217 68.244 269.505 68.58C269.805 68.904 270.243 69.066 270.819 69.066C271.395 69.066 271.827 68.904 272.115 68.58C272.415 68.244 272.613 67.812 272.709 67.284C272.805 66.744 272.853 66.066 272.853 65.25ZM277.503 65.25C277.503 63.186 277.899 61.56 278.691 60.372C279.495 59.184 280.785 58.59 282.561 58.59C284.337 58.59 285.621 59.184 286.413 60.372C287.217 61.56 287.619 63.186 287.619 65.25C287.619 67.338 287.217 68.976 286.413 70.164C285.621 71.352 284.337 71.946 282.561 71.946C280.785 71.946 279.495 71.352 278.691 70.164C277.899 68.976 277.503 67.338 277.503 65.25ZM284.595 65.25C284.595 64.038 284.463 63.108 284.199 62.46C283.935 61.8 283.389 61.47 282.561 61.47C281.733 61.47 281.187 61.8 280.923 62.46C280.659 63.108 280.527 64.038 280.527 65.25C280.527 66.066 280.575 66.744 280.671 67.284C280.767 67.812 280.959 68.244 281.247 68.58C281.547 68.904 281.985 69.066 282.561 69.066C283.137 69.066 283.569 68.904 283.857 68.58C284.157 68.244 284.355 67.812 284.451 67.284C284.547 66.744 284.595 66.066 284.595 65.25ZM290.992 72.144C290.452 72.144 290.008 71.988 289.66 71.676C289.324 71.352 289.156 70.956 289.156 70.488C289.156 70.008 289.324 69.606 289.66 69.282C290.008 68.958 290.452 68.796 290.992 68.796C291.52 68.796 291.952 68.958 292.288 69.282C292.636 69.606 292.81 70.008 292.81 70.488C292.81 70.956 292.636 71.352 292.288 71.676C291.952 71.988 291.52 72.144 290.992 72.144ZM294.326 65.25C294.326 63.186 294.722 61.56 295.514 60.372C296.318 59.184 297.608 58.59 299.384 58.59C301.16 58.59 302.444 59.184 303.236 60.372C304.04 61.56 304.442 63.186 304.442 65.25C304.442 67.338 304.04 68.976 303.236 70.164C302.444 71.352 301.16 71.946 299.384 71.946C297.608 71.946 296.318 71.352 295.514 70.164C294.722 68.976 294.326 67.338 294.326 65.25ZM301.418 65.25C301.418 64.038 301.286 63.108 301.022 62.46C300.758 61.8 300.212 61.47 299.384 61.47C298.556 61.47 298.01 61.8 297.746 62.46C297.482 63.108 297.35 64.038 297.35 65.25C297.35 66.066 297.398 66.744 297.494 67.284C297.59 67.812 297.782 68.244 298.07 68.58C298.37 68.904 298.808 69.066 299.384 69.066C299.96 69.066 300.392 68.904 300.68 68.58C300.98 68.244 301.178 67.812 301.274 67.284C301.37 66.744 301.418 66.066 301.418 65.25ZM306.068 65.25C306.068 63.186 306.464 61.56 307.256 60.372C308.06 59.184 309.35 58.59 311.126 58.59C312.902 58.59 314.186 59.184 314.978 60.372C315.782 61.56 316.184 63.186 316.184 65.25C316.184 67.338 315.782 68.976 314.978 70.164C314.186 71.352 312.902 71.946 311.126 71.946C309.35 71.946 308.06 71.352 307.256 70.164C306.464 68.976 306.068 67.338 306.068 65.25ZM313.16 65.25C313.16 64.038 313.028 63.108 312.764 62.46C312.5 61.8 311.954 61.47 311.126 61.47C310.298 61.47 309.752 61.8 309.488 62.46C309.224 63.108 309.092 64.038 309.092 65.25C309.092 66.066 309.14 66.744 309.236 67.284C309.332 67.812 309.524 68.244 309.812 68.58C310.112 68.904 310.55 69.066 311.126 69.066C311.702 69.066 312.134 68.904 312.422 68.58C312.722 68.244 312.92 67.812 313.016 67.284C313.112 66.744 313.16 66.066 313.16 65.25Z" fill="#F2F2F2"/>
<path d="M105.776 53.192C105.776 53.5173 105.701 53.816 105.552 54.088C105.403 54.3547 105.173 54.5707 104.864 54.736C104.555 54.9013 104.171 54.984 103.712 54.984H102.864V57H101.496V51.384H103.712C104.16 51.384 104.539 51.4613 104.848 51.616C105.157 51.7707 105.389 51.984 105.544 52.256C105.699 52.528 105.776 52.84 105.776 53.192ZM103.608 53.896C103.869 53.896 104.064 53.8347 104.192 53.712C104.32 53.5893 104.384 53.416 104.384 53.192C104.384 52.968 104.32 52.7947 104.192 52.672C104.064 52.5493 103.869 52.488 103.608 52.488H102.864V53.896H103.608ZM106.216 54.76C106.216 54.3013 106.302 53.8987 106.472 53.552C106.648 53.2053 106.886 52.9387 107.184 52.752C107.483 52.5653 107.816 52.472 108.184 52.472C108.499 52.472 108.774 52.536 109.008 52.664C109.248 52.792 109.432 52.96 109.56 53.168V52.536H110.928V57H109.56V56.368C109.427 56.576 109.24 56.744 109 56.872C108.766 57 108.491 57.064 108.176 57.064C107.814 57.064 107.483 56.9707 107.184 56.784C106.886 56.592 106.648 56.3227 106.472 55.976C106.302 55.624 106.216 55.2187 106.216 54.76ZM109.56 54.768C109.56 54.4267 109.464 54.1573 109.272 53.96C109.086 53.7627 108.856 53.664 108.584 53.664C108.312 53.664 108.08 53.7627 107.888 53.96C107.702 54.152 107.608 54.4187 107.608 54.76C107.608 55.1013 107.702 55.3733 107.888 55.576C108.08 55.7733 108.312 55.872 108.584 55.872C108.856 55.872 109.086 55.7733 109.272 55.576C109.464 55.3787 109.56 55.1093 109.56 54.768ZM116.478 52.536L113.678 59.12H112.206L113.23 56.848L111.414 52.536H112.942L113.974 55.328L114.998 52.536H116.478ZM119.005 57.064C118.567 57.064 118.173 56.9707 117.821 56.784C117.474 56.5973 117.199 56.3307 116.997 55.984C116.799 55.6373 116.701 55.232 116.701 54.768C116.701 54.3093 116.802 53.9067 117.005 53.56C117.207 53.208 117.485 52.9387 117.837 52.752C118.189 52.5653 118.583 52.472 119.021 52.472C119.458 52.472 119.853 52.5653 120.205 52.752C120.557 52.9387 120.834 53.208 121.037 53.56C121.239 53.9067 121.341 54.3093 121.341 54.768C121.341 55.2267 121.237 55.632 121.029 55.984C120.826 56.3307 120.546 56.5973 120.189 56.784C119.837 56.9707 119.442 57.064 119.005 57.064ZM119.005 55.88C119.266 55.88 119.487 55.784 119.669 55.592C119.855 55.4 119.949 55.1253 119.949 54.768C119.949 54.4107 119.858 54.136 119.677 53.944C119.501 53.752 119.282 53.656 119.021 53.656C118.754 53.656 118.533 53.752 118.357 53.944C118.181 54.1307 118.093 54.4053 118.093 54.768C118.093 55.1253 118.178 55.4 118.349 55.592C118.525 55.784 118.743 55.88 119.005 55.88ZM126.474 52.536V57H125.106V56.392C124.968 56.5893 124.778 56.7493 124.538 56.872C124.304 56.9893 124.042 57.048 123.754 57.048C123.413 57.048 123.112 56.9733 122.85 56.824C122.589 56.6693 122.386 56.448 122.242 56.16C122.098 55.872 122.026 55.5333 122.026 55.144V52.536H123.386V54.96C123.386 55.2587 123.464 55.4907 123.618 55.656C123.773 55.8213 123.981 55.904 124.242 55.904C124.509 55.904 124.72 55.8213 124.874 55.656C125.029 55.4907 125.106 55.2587 125.106 54.96V52.536H126.474ZM104.896 66.12C105.221 66.1893 105.483 66.352 105.68 66.608C105.877 66.8587 105.976 67.1467 105.976 67.472C105.976 67.9413 105.811 68.3147 105.48 68.592C105.155 68.864 104.699 69 104.112 69H101.496V63.384H104.024C104.595 63.384 105.04 63.5147 105.36 63.776C105.685 64.0373 105.848 64.392 105.848 64.84C105.848 65.1707 105.76 65.4453 105.584 65.664C105.413 65.8827 105.184 66.0347 104.896 66.12ZM102.864 65.656H103.76C103.984 65.656 104.155 65.608 104.272 65.512C104.395 65.4107 104.456 65.264 104.456 65.072C104.456 64.88 104.395 64.7333 104.272 64.632C104.155 64.5307 103.984 64.48 103.76 64.48H102.864V65.656ZM103.872 67.896C104.101 67.896 104.277 67.8453 104.4 67.744C104.528 67.6373 104.592 67.4853 104.592 67.288C104.592 67.0907 104.525 66.936 104.392 66.824C104.264 66.712 104.085 66.656 103.856 66.656H102.864V67.896H103.872ZM106.497 66.76C106.497 66.3013 106.583 65.8987 106.753 65.552C106.929 65.2053 107.167 64.9387 107.465 64.752C107.764 64.5653 108.097 64.472 108.465 64.472C108.78 64.472 109.055 64.536 109.289 64.664C109.529 64.792 109.713 64.96 109.841 65.168V64.536H111.209V69H109.841V68.368C109.708 68.576 109.521 68.744 109.281 68.872C109.047 69 108.772 69.064 108.457 69.064C108.095 69.064 107.764 68.9707 107.465 68.784C107.167 68.592 106.929 68.3227 106.753 67.976C106.583 67.624 106.497 67.2187 106.497 66.76ZM109.841 66.768C109.841 66.4267 109.745 66.1573 109.553 65.96C109.367 65.7627 109.137 65.664 108.865 65.664C108.593 65.664 108.361 65.7627 108.169 65.96C107.983 66.152 107.889 66.4187 107.889 66.76C107.889 67.1013 107.983 67.3733 108.169 67.576C108.361 67.7733 108.593 67.872 108.865 67.872C109.137 67.872 109.367 67.7733 109.553 67.576C109.745 67.3787 109.841 67.1093 109.841 66.768ZM113.567 63.08V69H112.199V63.08H113.567ZM114.287 66.76C114.287 66.3013 114.372 65.8987 114.543 65.552C114.719 65.2053 114.956 64.9387 115.255 64.752C115.553 64.5653 115.887 64.472 116.255 64.472C116.569 64.472 116.844 64.536 117.079 64.664C117.319 64.792 117.503 64.96 117.631 65.168V64.536H118.999V69H117.631V68.368C117.497 68.576 117.311 68.744 117.071 68.872C116.836 69 116.561 69.064 116.247 69.064C115.884 69.064 115.553 68.9707 115.255 68.784C114.956 68.592 114.719 68.3227 114.543 67.976C114.372 67.624 114.287 67.2187 114.287 66.76ZM117.631 66.768C117.631 66.4267 117.535 66.1573 117.343 65.96C117.156 65.7627 116.927 65.664 116.655 65.664C116.383 65.664 116.151 65.7627 115.959 65.96C115.772 66.152 115.679 66.4187 115.679 66.76C115.679 67.1013 115.772 67.3733 115.959 67.576C116.151 67.7733 116.383 67.872 116.655 67.872C116.927 67.872 117.156 67.7733 117.343 67.576C117.535 67.3787 117.631 67.1093 117.631 66.768ZM122.708 64.488C123.231 64.488 123.647 64.6587 123.956 65C124.271 65.336 124.428 65.8 124.428 66.392V69H123.068V66.576C123.068 66.2773 122.991 66.0453 122.836 65.88C122.682 65.7147 122.474 65.632 122.212 65.632C121.951 65.632 121.743 65.7147 121.588 65.88C121.434 66.0453 121.356 66.2773 121.356 66.576V69H119.988V64.536H121.356V65.128C121.495 64.9307 121.682 64.776 121.916 64.664C122.151 64.5467 122.415 64.488 122.708 64.488ZM125.107 66.768C125.107 66.304 125.2 65.8987 125.387 65.552C125.579 65.2053 125.843 64.9387 126.179 64.752C126.52 64.5653 126.909 64.472 127.347 64.472C127.907 64.472 128.373 64.6187 128.747 64.912C129.125 65.2053 129.373 65.6187 129.491 66.152H128.035C127.912 65.8107 127.675 65.64 127.323 65.64C127.072 65.64 126.872 65.7387 126.723 65.936C126.573 66.128 126.499 66.4053 126.499 66.768C126.499 67.1307 126.573 67.4107 126.723 67.608C126.872 67.8 127.072 67.896 127.323 67.896C127.675 67.896 127.912 67.7253 128.035 67.384H129.491C129.373 67.9067 129.125 68.3173 128.747 68.616C128.368 68.9147 127.901 69.064 127.347 69.064C126.909 69.064 126.52 68.9707 126.179 68.784C125.843 68.5973 125.579 68.3307 125.387 67.984C125.2 67.6373 125.107 67.232 125.107 66.768ZM134.431 66.696C134.431 66.824 134.423 66.9573 134.407 67.096H131.311C131.332 67.3733 131.42 67.5867 131.575 67.736C131.735 67.88 131.929 67.952 132.159 67.952C132.5 67.952 132.737 67.808 132.871 67.52H134.327C134.252 67.8133 134.116 68.0773 133.919 68.312C133.727 68.5467 133.484 68.7307 133.191 68.864C132.897 68.9973 132.569 69.064 132.207 69.064C131.769 69.064 131.38 68.9707 131.039 68.784C130.697 68.5973 130.431 68.3307 130.239 67.984C130.047 67.6373 129.951 67.232 129.951 66.768C129.951 66.304 130.044 65.8987 130.231 65.552C130.423 65.2053 130.689 64.9387 131.031 64.752C131.372 64.5653 131.764 64.472 132.207 64.472C132.639 64.472 133.023 64.5627 133.359 64.744C133.695 64.9253 133.956 65.184 134.143 65.52C134.335 65.856 134.431 66.248 134.431 66.696ZM133.031 66.336C133.031 66.1013 132.951 65.9147 132.791 65.776C132.631 65.6373 132.431 65.568 132.191 65.568C131.961 65.568 131.767 65.6347 131.607 65.768C131.452 65.9013 131.356 66.0907 131.319 66.336H133.031Z" fill="#F2F2F2"/>
<path d="M87 61C87 60.4477 87.4477 60 88 60C88.5523 60 89 60.4477 89 61V63C89 63.5523 88.5523 64 88 64C87.4477 64 87 63.5523 87 63V61Z" fill="#F2F2F2"/>
<path d="M91 55V53C91 51.897 90.103 51 89 51H76C74.346 51 73 52.346 73 54V66C73 68.201 74.794 69 76 69H91C92.103 69 93 68.103 93 67V57C93 55.897 92.103 55 91 55ZM76 53H89V55H76C75.448 55 75 54.551 75 54C75 53.449 75.448 53 76 53ZM91 67H76.012C75.55 66.988 75 66.805 75 66V56.815C75.314 56.928 75.647 57 76 57H91V67Z" fill="#F2F2F2"/>
<defs>
<filter id="filter0_d_577_47" x="-11" y="0" width="398" height="220" filterUnits="userSpaceOnUse" color-interpolation-filters="sRGB">
<feFlood flood-opacity="0" result="BackgroundImageFix"/>
<feColorMatrix in="SourceAlpha" type="matrix" values="0 0 0 0 0 0 0 0 0 0 0 0 0 0 0 0 0 0 127 0" result="hardAlpha"/>
<feOffset dy="15"/>
<feGaussianBlur stdDeviation="17.5"/>
<feColorMatrix type="matrix" values="0 0 0 0 0.203922 0 0 0 0 0.243137 0 0 0 0 0.87451 0 0 0 0.4 0"/>
<feBlend mode="normal" in2="BackgroundImageFix" result="effect1_dropShadow_577_47"/>
<feBlend mode="normal" in="SourceGraphic" in2="effect1_dropShadow_577_47" result="shape"/>
</filter>
<filter id="filter1_f_577_47" x="158" y="-5" width="219" height="196" filterUnits="userSpaceOnUse" color-interpolation-filters="sRGB">
<feFlood flood-opacity="0" result="BackgroundImageFix"/>
<feBlend mode="normal" in="SourceGraphic" in2="BackgroundImageFix" result="shape"/>
<feGaussianBlur stdDeviation="10.5" result="effect1_foregroundBlur_577_47"/>
</filter>
<filter id="filter2_b_577_47" x="148.876" y="64" width="90" height="90" filterUnits="userSpaceOnUse" color-interpolation-filters="sRGB">
<feFlood flood-opacity="0" result="BackgroundImageFix"/>
<feGaussianBlur in="BackgroundImageFix" stdDeviation="10"/>
<feComposite in2="SourceAlpha" operator="in" result="effect1_backgroundBlur_577_47"/>
<feBlend mode="normal" in="SourceGraphic" in2="effect1_backgroundBlur_577_47" result="shape"/>
</filter>
<filter id="filter3_b_577_47" x="243.876" y="63" width="90" height="90" filterUnits="userSpaceOnUse" color-interpolation-filters="sRGB">
<feFlood flood-opacity="0" result="BackgroundImageFix"/>
<feGaussianBlur in="BackgroundImageFix" stdDeviation="10"/>
<feComposite in2="SourceAlpha" operator="in" result="effect1_backgroundBlur_577_47"/>
<feBlend mode="normal" in="SourceGraphic" in2="effect1_backgroundBlur_577_47" result="shape"/>
</filter>
<filter id="filter4_b_577_47" x="53.876" y="63" width="90" height="90" filterUnits="userSpaceOnUse" color-interpolation-filters="sRGB">
<feFlood flood-opacity="0" result="BackgroundImageFix"/>
<feGaussianBlur in="BackgroundImageFix" stdDeviation="10"/>
<feComposite in2="SourceAlpha" operator="in" result="effect1_backgroundBlur_577_47"/>
<feBlend mode="normal" in="SourceGraphic" in2="effect1_backgroundBlur_577_47" result="shape"/>
</filter>
<linearGradient id="paint0_linear_577_47" x1="160.861" y1="147.31" x2="345.693" y2="-17.4088" gradientUnits="userSpaceOnUse">
<stop stop-color="#0500FF" stop-opacity="0.45"/>
<stop offset="0.78125" stop-color="#A47CFA" stop-opacity="0.67"/>
</linearGradient>
<linearGradient id="paint1_linear_577_47" x1="24" y1="95.0001" x2="350.985" y2="95.0001" gradientUnits="userSpaceOnUse">
<stop stop-color="#454FFF"/>
<stop offset="1" stop-color="#3184FF"/>
</linearGradient>
<linearGradient id="paint2_linear_577_47" x1="73.2515" y1="74" x2="-42.884" y2="19.1354" gradientUnits="userSpaceOnUse">
<stop stop-color="#4A54FF" stop-opacity="0.27"/>
<stop offset="1" stop-color="#0066FF" stop-opacity="0.6"/>
</linearGradient>
<clipPath id="clip0_577_47">
<rect width="20" height="20" fill="white" transform="translate(183.876 98)"/>
</clipPath>
<clipPath id="clip1_577_47">
<rect width="20" height="20" fill="white" transform="translate(278.876 98)"/>
</clipPath>
<clipPath id="clip2_577_47">
<rect width="20" height="20" fill="white" transform="translate(88.876 118) rotate(-90)"/>
</clipPath>
<clipPath id="clip3_577_47">
<rect width="13" height="13" fill="white" transform="translate(142 164)"/>
</clipPath>
</defs>
</svg>
