<svg width="50" height="50" viewBox="0 0 50 50" fill="none" xmlns="http://www.w3.org/2000/svg">
<rect width="50" height="50" rx="15" fill="#1B183E"/>
<path fill-rule="evenodd" clip-rule="evenodd" d="M15.7368 28.1465C16.6961 28.1465 17.4737 28.9095 17.4737 29.8507V33.5174C17.4887 33.5278 17.5065 33.5395 17.5275 33.5523C17.7498 33.6882 18.1638 33.8273 18.7093 33.8273H31.2907C31.8362 33.8273 32.2502 33.6882 32.4725 33.5523C32.4935 33.5395 32.5113 33.5278 32.5263 33.5174V29.8507C32.5263 28.9095 33.3039 28.1465 34.2632 28.1465C35.2224 28.1465 36 28.9095 36 29.8507V33.7124C36 35.0178 35.1384 35.9383 34.3098 36.445C33.4553 36.9676 32.3831 37.2358 31.2907 37.2358H18.7093C17.6169 37.2358 16.5447 36.9676 15.6902 36.445C14.8616 35.9383 14 35.0178 14 33.7124V29.8507C14 28.9095 14.7776 28.1465 15.7368 28.1465ZM32.5986 33.4564C32.5992 33.4565 32.5961 33.461 32.5873 33.4694C32.5936 33.4605 32.598 33.4563 32.5986 33.4564ZM17.4014 33.4564C17.402 33.4563 17.4064 33.4605 17.4127 33.4694C17.4039 33.461 17.4008 33.4565 17.4014 33.4564Z" fill="#FF438B"/>
<path fill-rule="evenodd" clip-rule="evenodd" d="M23.2632 24.7653L20.5548 21.4222C19.9473 20.6724 18.8531 20.5619 18.1107 21.1754C17.3683 21.7888 17.2589 22.894 17.8663 23.6437L23.0768 30.0753L23.0868 30.0875C23.4952 30.5825 24.0341 30.7348 24.2254 30.7836C24.4971 30.853 24.7676 30.8765 25 30.8765C25.2324 30.8765 25.5028 30.853 25.7746 30.7836C25.9659 30.7348 26.5047 30.5826 26.9132 30.0875L32.1337 23.6437C32.7411 22.894 32.6317 21.7888 31.8893 21.1754C31.1469 20.5619 30.0527 20.6724 29.4452 21.4222L26.7369 24.7653V14.9904C26.7369 14.0217 25.9593 13.2363 25 13.2363C24.0408 13.2363 23.2632 14.0217 23.2632 14.9904V24.7653Z" fill="#FF438B"/>
</svg>
